<svg class="pg-svg" xmlns="http://www.w3.org/2000/svg" xmlns:xlink="http://www.w3.org/1999/xlink" xmlns:inkscape="http://www.inkscape.org/namespaces/inkscape" version="1.1" width="419.5" height="595.25" viewBox="0 0 419.5 595.25">
<defs>
<clipPath id="clip_1">
<path transform="matrix(1,0,0,-1,0,595.25)" d="M.000006251 0H419.5V595.25H.000006251Z" clip-rule="evenodd"/>
</clipPath>
<clipPath id="clip_2">
<path transform="matrix(1,0,0,-1,0,595.25)" d="M.000006251 0H419.5V595.25H.000006251Z" clip-rule="evenodd"/>
</clipPath>
<clipPath id="clip_3">
<path transform="matrix(1,0,0,-1,0,595.25)" d="M371.48 547.72H376.48V559.22H371.48Z" clip-rule="evenodd"/>
</clipPath>
<clipPath id="clip_4">
<path transform="matrix(1,0,0,-1,0,595.25)" d="M371.48 547.72H376.48V559.22H371.48Z" clip-rule="evenodd"/>
</clipPath>
<clipPath id="clip_5">
<path transform="matrix(1,0,0,-1,0,595.25)" d="M371.48 547.72H376.48V559.22H371.48Z" clip-rule="evenodd"/>
</clipPath>
<clipPath id="clip_6">
<path transform="matrix(1,0,0,-1,0,595.25)" d="M.000006251 0H419.5V595.25H.000006251Z" clip-rule="evenodd"/>
</clipPath>
<clipPath id="clip_7">
<path transform="matrix(1,0,0,-1,0,595.25)" d="M.000006251 0H419.5V595.25H.000006251Z" clip-rule="evenodd"/>
</clipPath>
<clipPath id="clip_8">
<path transform="matrix(1,0,0,-1,0,595.25)" d="M.000006251 0H419.5V595.25H.000006251Z" clip-rule="evenodd"/>
</clipPath>
<clipPath id="clip_9">
<path transform="matrix(1,0,0,-1,0,595.25)" d="M.000006251 0H419.5V595.25H.000006251Z" clip-rule="evenodd"/>
</clipPath>
<clipPath id="clip_10">
<path transform="matrix(1,0,0,-1,0,595.25)" d="M.000006251 0H419.5V595.25H.000006251Z" clip-rule="evenodd"/>
</clipPath>
<clipPath id="clip_11">
<path transform="matrix(1,0,0,-1,0,595.25)" d="M.000006251 0H419.5V595.25H.000006251Z" clip-rule="evenodd"/>
</clipPath>
<clipPath id="clip_12">
<path transform="matrix(1,0,0,-1,0,595.25)" d="M.000006251 0H419.5V595.25H.000006251Z" clip-rule="evenodd"/>
</clipPath>
<clipPath id="clip_13">
<path transform="matrix(1,0,0,-1,0,595.25)" d="M.000006251 0H419.5V595.25H.000006251Z" clip-rule="evenodd"/>
</clipPath>
<clipPath id="clip_14">
<path transform="matrix(1,0,0,-1,0,595.25)" d="M.000006251 0H419.5V595.25H.000006251Z" clip-rule="evenodd"/>
</clipPath>
<clipPath id="clip_15">
<path transform="matrix(1,0,0,-1,0,595.25)" d="M.000006251 0H419.5V595.25H.000006251Z" clip-rule="evenodd"/>
</clipPath>
<clipPath id="clip_16">
<path transform="matrix(1,0,0,-1,0,595.25)" d="M.000006251 0H419.5V595.25H.000006251Z" clip-rule="evenodd"/>
</clipPath>
<clipPath id="clip_17">
<path transform="matrix(1,0,0,-1,0,595.25)" d="M.000006251 0H419.5V595.25H.000006251Z" clip-rule="evenodd"/>
</clipPath>
<clipPath id="clip_18">
<path transform="matrix(1,0,0,-1,0,595.25)" d="M.000006251 0H419.5V595.25H.000006251Z" clip-rule="evenodd"/>
</clipPath>
<clipPath id="clip_19">
<path transform="matrix(1,0,0,-1,0,595.25)" d="M.000006251 0H419.5V595.25H.000006251Z" clip-rule="evenodd"/>
</clipPath>
<clipPath id="clip_20">
<path transform="matrix(1,0,0,-1,0,595.25)" d="M.000006251 0H419.5V595.25H.000006251Z" clip-rule="evenodd"/>
</clipPath>
<clipPath id="clip_21">
<path transform="matrix(1,0,0,-1,0,595.25)" d="M.000006251 0H419.5V595.25H.000006251Z" clip-rule="evenodd"/>
</clipPath>
<clipPath id="clip_22">
<path transform="matrix(1,0,0,-1,0,595.25)" d="M.000006251 0H419.5V595.25H.000006251Z" clip-rule="evenodd"/>
</clipPath>
<clipPath id="clip_23">
<path transform="matrix(1,0,0,-1,0,595.25)" d="M.000006251 0H419.5V595.25H.000006251Z" clip-rule="evenodd"/>
</clipPath>
<clipPath id="clip_24">
<path transform="matrix(1,0,0,-1,0,595.25)" d="M.000006251 0H419.5V595.25H.000006251Z" clip-rule="evenodd"/>
</clipPath>
<clipPath id="clip_25">
<path transform="matrix(1,0,0,-1,0,595.25)" d="M.000006251 0H419.5V595.25H.000006251Z" clip-rule="evenodd"/>
</clipPath>
<clipPath id="clip_26">
<path transform="matrix(1,0,0,-1,0,595.25)" d="M.000006251 0H419.5V595.25H.000006251Z" clip-rule="evenodd"/>
</clipPath>
<clipPath id="clip_27">
<path transform="matrix(1,0,0,-1,0,595.25)" d="M.000006251 0H419.5V595.25H.000006251Z" clip-rule="evenodd"/>
</clipPath>
<clipPath id="clip_28">
<path transform="matrix(1,0,0,-1,0,595.25)" d="M.000006251 0H419.5V595.25H.000006251Z" clip-rule="evenodd"/>
</clipPath>
<clipPath id="clip_29">
<path transform="matrix(1,0,0,-1,0,595.25)" d="M.000006251 0H419.5V595.25H.000006251Z" clip-rule="evenodd"/>
</clipPath>
<clipPath id="clip_30">
<path transform="matrix(1,0,0,-1,0,595.25)" d="M.000006251 0H419.5V595.25H.000006251Z" clip-rule="evenodd"/>
</clipPath>
<clipPath id="clip_31">
<path transform="matrix(1,0,0,-1,0,595.25)" d="M.000006251 0H419.5V595.25H.000006251Z" clip-rule="evenodd"/>
</clipPath>
<clipPath id="clip_32">
<path transform="matrix(1,0,0,-1,0,595.25)" d="M.000006251 0H419.5V595.25H.000006251Z" clip-rule="evenodd"/>
</clipPath>
<clipPath id="clip_33">
<path transform="matrix(1,0,0,-1,0,595.25)" d="M.000006251 0H419.5V595.25H.000006251Z" clip-rule="evenodd"/>
</clipPath>
<clipPath id="clip_34">
<path transform="matrix(1,0,0,-1,0,595.25)" d="M.000006251 0H419.5V595.25H.000006251Z" clip-rule="evenodd"/>
</clipPath>
<clipPath id="clip_35">
<path transform="matrix(1,0,0,-1,0,595.25)" d="M.000006251 0H419.5V595.25H.000006251Z" clip-rule="evenodd"/>
</clipPath>
<clipPath id="clip_36">
<path transform="matrix(1,0,0,-1,0,595.25)" d="M.000006251 0H419.5V595.25H.000006251Z" clip-rule="evenodd"/>
</clipPath>
<clipPath id="clip_37">
<path transform="matrix(1,0,0,-1,0,595.25)" d="M.000006251 0H419.5V595.25H.000006251Z" clip-rule="evenodd"/>
</clipPath>
<clipPath id="clip_38">
<path transform="matrix(1,0,0,-1,0,595.25)" d="M.000006251 0H419.5V595.25H.000006251Z" clip-rule="evenodd"/>
</clipPath>
<clipPath id="clip_39">
<path transform="matrix(1,0,0,-1,0,595.25)" d="M.000006251 0H419.5V595.25H.000006251Z" clip-rule="evenodd"/>
</clipPath>
<clipPath id="clip_40">
<path transform="matrix(1,0,0,-1,0,595.25)" d="M.000006251 0H419.5V595.25H.000006251Z" clip-rule="evenodd"/>
</clipPath>
<clipPath id="clip_41">
<path transform="matrix(1,0,0,-1,0,595.25)" d="M.000006251 0H419.5V595.25H.000006251Z" clip-rule="evenodd"/>
</clipPath>
<clipPath id="clip_42">
<path transform="matrix(1,0,0,-1,0,595.25)" d="M.000006251 0H419.5V595.25H.000006251Z" clip-rule="evenodd"/>
</clipPath>
<clipPath id="clip_43">
<path transform="matrix(1,0,0,-1,0,595.25)" d="M.000006251 0H419.5V595.25H.000006251Z" clip-rule="evenodd"/>
</clipPath>
<clipPath id="clip_44">
<path transform="matrix(1,0,0,-1,0,595.25)" d="M.000006251 0H419.5V595.25H.000006251Z" clip-rule="evenodd"/>
</clipPath>
<clipPath id="clip_45">
<path transform="matrix(1,0,0,-1,0,595.25)" d="M.000006251 0H419.5V595.25H.000006251Z" clip-rule="evenodd"/>
</clipPath>
<clipPath id="clip_46">
<path transform="matrix(1,0,0,-1,0,595.25)" d="M.000006251 0H419.5V595.25H.000006251Z" clip-rule="evenodd"/>
</clipPath>
<clipPath id="clip_47">
<path transform="matrix(1,0,0,-1,0,595.25)" d="M.000006251 0H419.5V595.25H.000006251Z" clip-rule="evenodd"/>
</clipPath>
<clipPath id="clip_48">
<path transform="matrix(1,0,0,-1,0,595.25)" d="M.000006251 0H419.5V595.25H.000006251Z" clip-rule="evenodd"/>
</clipPath>
<clipPath id="clip_49">
<path transform="matrix(1,0,0,-1,0,595.25)" d="M.000006251 0H419.5V595.25H.000006251Z" clip-rule="evenodd"/>
</clipPath>
<clipPath id="clip_50">
<path transform="matrix(1,0,0,-1,0,595.25)" d="M.000006251 0H419.5V595.25H.000006251Z" clip-rule="evenodd"/>
</clipPath>
<clipPath id="clip_51">
<path transform="matrix(1,0,0,-1,0,595.25)" d="M.000006251 0H419.5V595.25H.000006251Z" clip-rule="evenodd"/>
</clipPath>
<clipPath id="clip_52">
<path transform="matrix(1,0,0,-1,0,595.25)" d="M.000006251 0H419.5V595.25H.000006251Z" clip-rule="evenodd"/>
</clipPath>
<clipPath id="clip_53">
<path transform="matrix(1,0,0,-1,0,595.25)" d="M.000006251 0H419.5V595.25H.000006251Z" clip-rule="evenodd"/>
</clipPath>
<clipPath id="clip_54">
<path transform="matrix(1,0,0,-1,0,595.25)" d="M.000006251 0H419.5V595.25H.000006251Z" clip-rule="evenodd"/>
</clipPath>
<clipPath id="clip_55">
<path transform="matrix(1,0,0,-1,0,595.25)" d="M.000006251 0H419.5V595.25H.000006251Z" clip-rule="evenodd"/>
</clipPath>
<clipPath id="clip_56">
<path transform="matrix(1,0,0,-1,0,595.25)" d="M.000006251 0H419.5V595.25H.000006251Z" clip-rule="evenodd"/>
</clipPath>
<clipPath id="clip_57">
<path transform="matrix(1,0,0,-1,0,595.25)" d="M.000006251 0H419.5V595.25H.000006251Z" clip-rule="evenodd"/>
</clipPath>
<clipPath id="clip_58">
<path transform="matrix(1,0,0,-1,0,595.25)" d="M.000006251 0H419.5V595.25H.000006251Z" clip-rule="evenodd"/>
</clipPath>
<clipPath id="clip_59">
<path transform="matrix(1,0,0,-1,0,595.25)" d="M.000006251 0H419.5V595.25H.000006251Z" clip-rule="evenodd"/>
</clipPath>
<clipPath id="clip_60">
<path transform="matrix(1,0,0,-1,0,595.25)" d="M.000006251 0H419.5V595.25H.000006251Z" clip-rule="evenodd"/>
</clipPath>
<clipPath id="clip_61">
<path transform="matrix(1,0,0,-1,0,595.25)" d="M.000006251 0H419.5V595.25H.000006251Z" clip-rule="evenodd"/>
</clipPath>
<clipPath id="clip_62">
<path transform="matrix(1,0,0,-1,0,595.25)" d="M.000006251 0H419.5V595.25H.000006251Z" clip-rule="evenodd"/>
</clipPath>
<clipPath id="clip_63">
<path transform="matrix(1,0,0,-1,0,595.25)" d="M.000006251 0H419.5V595.25H.000006251Z" clip-rule="evenodd"/>
</clipPath>
<clipPath id="clip_64">
<path transform="matrix(1,0,0,-1,0,595.25)" d="M.000006251 0H419.5V595.25H.000006251Z" clip-rule="evenodd"/>
</clipPath>
<clipPath id="clip_65">
<path transform="matrix(1,0,0,-1,0,595.25)" d="M.000006251 0H419.5V595.25H.000006251Z" clip-rule="evenodd"/>
</clipPath>
<clipPath id="clip_66">
<path transform="matrix(1,0,0,-1,0,595.25)" d="M.000006251 0H419.5V595.25H.000006251Z" clip-rule="evenodd"/>
</clipPath>
<clipPath id="clip_67">
<path transform="matrix(1,0,0,-1,0,595.25)" d="M.000006251 0H419.5V595.25H.000006251Z" clip-rule="evenodd"/>
</clipPath>
<clipPath id="clip_68">
<path transform="matrix(1,0,0,-1,0,595.25)" d="M.000006251 0H419.5V595.25H.000006251Z" clip-rule="evenodd"/>
</clipPath>
<clipPath id="clip_69">
<path transform="matrix(1,0,0,-1,0,595.25)" d="M.000006251 0H419.5V595.25H.000006251Z" clip-rule="evenodd"/>
</clipPath>
<clipPath id="clip_70">
<path transform="matrix(1,0,0,-1,0,595.25)" d="M.000006251 0H419.5V595.25H.000006251Z" clip-rule="evenodd"/>
</clipPath>
<clipPath id="clip_71">
<path transform="matrix(1,0,0,-1,0,595.25)" d="M.000006251 0H419.5V595.25H.000006251Z" clip-rule="evenodd"/>
</clipPath>
<clipPath id="clip_72">
<path transform="matrix(1,0,0,-1,0,595.25)" d="M.000006251 0H419.5V595.25H.000006251Z" clip-rule="evenodd"/>
</clipPath>
<clipPath id="clip_73">
<path transform="matrix(1,0,0,-1,0,595.25)" d="M.000006251 0H419.5V595.25H.000006251Z" clip-rule="evenodd"/>
</clipPath>
<clipPath id="clip_74">
<path transform="matrix(1,0,0,-1,0,595.25)" d="M.000006251 0H419.5V595.25H.000006251Z" clip-rule="evenodd"/>
</clipPath>
<clipPath id="clip_75">
<path transform="matrix(1,0,0,-1,0,595.25)" d="M.000006251 0H419.5V595.25H.000006251Z" clip-rule="evenodd"/>
</clipPath>
<clipPath id="clip_76">
<path transform="matrix(1,0,0,-1,0,595.25)" d="M.000006251 0H419.5V595.25H.000006251Z" clip-rule="evenodd"/>
</clipPath>
<clipPath id="clip_77">
<path transform="matrix(1,0,0,-1,0,595.25)" d="M.000006251 0H419.5V595.25H.000006251Z" clip-rule="evenodd"/>
</clipPath>
<clipPath id="clip_78">
<path transform="matrix(1,0,0,-1,0,595.25)" d="M.000006251 0H419.5V595.25H.000006251Z" clip-rule="evenodd"/>
</clipPath>
<clipPath id="clip_79">
<path transform="matrix(1,0,0,-1,0,595.25)" d="M.000006251 0H419.5V595.25H.000006251Z" clip-rule="evenodd"/>
</clipPath>
<clipPath id="clip_80">
<path transform="matrix(1,0,0,-1,0,595.25)" d="M.000006251 0H419.5V595.25H.000006251Z" clip-rule="evenodd"/>
</clipPath>
<clipPath id="clip_81">
<path transform="matrix(1,0,0,-1,0,595.25)" d="M.000006251 0H419.5V595.25H.000006251Z" clip-rule="evenodd"/>
</clipPath>
<clipPath id="clip_82">
<path transform="matrix(1,0,0,-1,0,595.25)" d="M.000006251 0H419.5V595.25H.000006251Z" clip-rule="evenodd"/>
</clipPath>
<clipPath id="clip_83">
<path transform="matrix(1,0,0,-1,0,595.25)" d="M.000006251 0H419.5V595.25H.000006251Z" clip-rule="evenodd"/>
</clipPath>
<clipPath id="clip_84">
<path transform="matrix(1,0,0,-1,0,595.25)" d="M.000006251 0H419.5V595.25H.000006251Z" clip-rule="evenodd"/>
</clipPath>
<clipPath id="clip_85">
<path transform="matrix(1,0,0,-1,0,595.25)" d="M.000006251 0H419.5V595.25H.000006251Z" clip-rule="evenodd"/>
</clipPath>
<clipPath id="clip_86">
<path transform="matrix(1,0,0,-1,0,595.25)" d="M.000006251 0H419.5V595.25H.000006251Z" clip-rule="evenodd"/>
</clipPath>
<clipPath id="clip_87">
<path transform="matrix(1,0,0,-1,0,595.25)" d="M.000006251 0H419.5V595.25H.000006251Z" clip-rule="evenodd"/>
</clipPath>
<clipPath id="clip_88">
<path transform="matrix(1,0,0,-1,0,595.25)" d="M.000006251 0H419.5V595.25H.000006251Z" clip-rule="evenodd"/>
</clipPath>
<clipPath id="clip_89">
<path transform="matrix(1,0,0,-1,0,595.25)" d="M.000006251 0H419.5V595.25H.000006251Z" clip-rule="evenodd"/>
</clipPath>
<clipPath id="clip_90">
<path transform="matrix(1,0,0,-1,0,595.25)" d="M.000006251 0H419.5V595.25H.000006251Z" clip-rule="evenodd"/>
</clipPath>
<clipPath id="clip_91">
<path transform="matrix(1,0,0,-1,0,595.25)" d="M.000006251 0H419.5V595.25H.000006251Z" clip-rule="evenodd"/>
</clipPath>
<clipPath id="clip_92">
<path transform="matrix(1,0,0,-1,0,595.25)" d="M.000006251 0H419.5V595.25H.000006251Z" clip-rule="evenodd"/>
</clipPath>
<clipPath id="clip_93">
<path transform="matrix(1,0,0,-1,0,595.25)" d="M.000006251 0H419.5V595.25H.000006251Z" clip-rule="evenodd"/>
</clipPath>
<clipPath id="clip_94">
<path transform="matrix(1,0,0,-1,0,595.25)" d="M.000006251 0H419.5V595.25H.000006251Z" clip-rule="evenodd"/>
</clipPath>
<clipPath id="clip_95">
<path transform="matrix(1,0,0,-1,0,595.25)" d="M.000006251 0H419.5V595.25H.000006251Z" clip-rule="evenodd"/>
</clipPath>
<clipPath id="clip_96">
<path transform="matrix(1,0,0,-1,0,595.25)" d="M.000006251 0H419.5V595.25H.000006251Z" clip-rule="evenodd"/>
</clipPath>
<clipPath id="clip_97">
<path transform="matrix(1,0,0,-1,0,595.25)" d="M.000006251 0H419.5V595.25H.000006251Z" clip-rule="evenodd"/>
</clipPath>
<clipPath id="clip_98">
<path transform="matrix(1,0,0,-1,0,595.25)" d="M.000006251 0H419.5V595.25H.000006251Z" clip-rule="evenodd"/>
</clipPath>
<clipPath id="clip_99">
<path transform="matrix(1,0,0,-1,0,595.25)" d="M.000006251 0H419.5V595.25H.000006251Z" clip-rule="evenodd"/>
</clipPath>
<clipPath id="clip_100">
<path transform="matrix(1,0,0,-1,0,595.25)" d="M.000006251 0H419.5V595.25H.000006251Z" clip-rule="evenodd"/>
</clipPath>
<clipPath id="clip_101">
<path transform="matrix(1,0,0,-1,0,595.25)" d="M.000006251 0H419.5V595.25H.000006251Z" clip-rule="evenodd"/>
</clipPath>
<clipPath id="clip_102">
<path transform="matrix(1,0,0,-1,0,595.25)" d="M.000006251 0H419.5V595.25H.000006251Z" clip-rule="evenodd"/>
</clipPath>
<clipPath id="clip_103">
<path transform="matrix(1,0,0,-1,0,595.25)" d="M.000006251 0H419.5V595.25H.000006251Z" clip-rule="evenodd"/>
</clipPath>
<clipPath id="clip_104">
<path transform="matrix(1,0,0,-1,0,595.25)" d="M.000006251 0H419.5V595.25H.000006251Z" clip-rule="evenodd"/>
</clipPath>
<clipPath id="clip_105">
<path transform="matrix(1,0,0,-1,0,595.25)" d="M.000006251 0H419.5V595.25H.000006251Z" clip-rule="evenodd"/>
</clipPath>
<clipPath id="clip_106">
<path transform="matrix(1,0,0,-1,0,595.25)" d="M.000006251 0H419.5V595.25H.000006251Z" clip-rule="evenodd"/>
</clipPath>
<clipPath id="clip_107">
<path transform="matrix(1,0,0,-1,0,595.25)" d="M.000006251 0H419.5V595.25H.000006251Z" clip-rule="evenodd"/>
</clipPath>
<clipPath id="clip_108">
<path transform="matrix(1,0,0,-1,0,595.25)" d="M.000006251 0H419.5V595.25H.000006251Z" clip-rule="evenodd"/>
</clipPath>
<clipPath id="clip_109">
<path transform="matrix(1,0,0,-1,0,595.25)" d="M.000006251 0H419.5V595.25H.000006251Z" clip-rule="evenodd"/>
</clipPath>
<clipPath id="clip_110">
<path transform="matrix(1,0,0,-1,0,595.25)" d="M.000006251 0H419.5V595.25H.000006251Z" clip-rule="evenodd"/>
</clipPath>
<clipPath id="clip_111">
<path transform="matrix(1,0,0,-1,0,595.25)" d="M.000006251 0H419.5V595.25H.000006251Z" clip-rule="evenodd"/>
</clipPath>
<clipPath id="clip_112">
<path transform="matrix(1,0,0,-1,0,595.25)" d="M.000006251 0H419.5V595.25H.000006251Z" clip-rule="evenodd"/>
</clipPath>
<clipPath id="clip_113">
<path transform="matrix(1,0,0,-1,0,595.25)" d="M.000006251 0H419.5V595.25H.000006251Z" clip-rule="evenodd"/>
</clipPath>
<clipPath id="clip_114">
<path transform="matrix(1,0,0,-1,0,595.25)" d="M.000006251 0H419.5V595.25H.000006251Z" clip-rule="evenodd"/>
</clipPath>
<clipPath id="clip_115">
<path transform="matrix(1,0,0,-1,0,595.25)" d="M.000006251 0H419.5V595.25H.000006251Z" clip-rule="evenodd"/>
</clipPath>
<clipPath id="clip_116">
<path transform="matrix(1,0,0,-1,0,595.25)" d="M.000006251 0H419.5V595.25H.000006251Z" clip-rule="evenodd"/>
</clipPath>
<clipPath id="clip_117">
<path transform="matrix(1,0,0,-1,0,595.25)" d="M.000006251 0H419.5V595.25H.000006251Z" clip-rule="evenodd"/>
</clipPath>
<clipPath id="clip_118">
<path transform="matrix(1,0,0,-1,0,595.25)" d="M.000006251 0H419.5V595.25H.000006251Z" clip-rule="evenodd"/>
</clipPath>
<clipPath id="clip_119">
<path transform="matrix(1,0,0,-1,0,595.25)" d="M.000006251 0H419.5V595.25H.000006251Z" clip-rule="evenodd"/>
</clipPath>
<clipPath id="clip_120">
<path transform="matrix(1,0,0,-1,0,595.25)" d="M.000006251 0H419.5V595.25H.000006251Z" clip-rule="evenodd"/>
</clipPath>
<clipPath id="clip_121">
<path transform="matrix(1,0,0,-1,0,595.25)" d="M.000006251 0H419.5V595.25H.000006251Z" clip-rule="evenodd"/>
</clipPath>
<clipPath id="clip_122">
<path transform="matrix(1,0,0,-1,0,595.25)" d="M.000006251 0H419.5V595.25H.000006251Z" clip-rule="evenodd"/>
</clipPath>
<clipPath id="clip_123">
<path transform="matrix(1,0,0,-1,0,595.25)" d="M.000006251 0H419.5V595.25H.000006251Z" clip-rule="evenodd"/>
</clipPath>
<clipPath id="clip_124">
<path transform="matrix(1,0,0,-1,0,595.25)" d="M.000006251 0H419.5V595.25H.000006251Z" clip-rule="evenodd"/>
</clipPath>
<clipPath id="clip_125">
<path transform="matrix(1,0,0,-1,0,595.25)" d="M.000006251 0H419.5V595.25H.000006251Z" clip-rule="evenodd"/>
</clipPath>
<clipPath id="clip_126">
<path transform="matrix(1,0,0,-1,0,595.25)" d="M.000006251 0H419.5V595.25H.000006251Z" clip-rule="evenodd"/>
</clipPath>
<clipPath id="clip_127">
<path transform="matrix(1,0,0,-1,0,595.25)" d="M.000006251 0H419.5V595.25H.000006251Z" clip-rule="evenodd"/>
</clipPath>
<clipPath id="clip_128">
<path transform="matrix(1,0,0,-1,0,595.25)" d="M.000006251 0H419.5V595.25H.000006251Z" clip-rule="evenodd"/>
</clipPath>
</defs>
<g>
<g clip-path="url(#clip_1)">
<text xml:space="preserve" transform="matrix(1 0 -0 1 0 595.25)" font-size="10" font-family="Times New Roman"><tspan y="-549.97" x="358.45"> </tspan></text>
</g>
<g clip-path="url(#clip_2)">
</g>
<g clip-path="url(#clip_3)">
<g clip-path="url(#clip_4)">

</g>
<g clip-path="url(#clip_5)">
<text xml:space="preserve" transform="matrix(1 0 -0 1 0 595.25)" font-size="10" font-family="Times New Roman"><tspan y="-549.97" x="376.48"> </tspan></text>
</g>
</g>
<g clip-path="url(#clip_6)">
<text xml:space="preserve" transform="matrix(1 0 -0 1 0 595.25)" font-size="14" font-family="Times New Roman" font-weight="bold"><tspan y="-527.97" x="190.1 200.09601 207.09601 214.88 219.58402 225.80002 233.58402 238.31603">Contents</tspan></text>
</g>
<g clip-path="url(#clip_7)">
<text xml:space="preserve" transform="matrix(1 0 -0 1 0 595.25)" font-size="14" font-family="Times New Roman" font-weight="bold"><tspan y="-527.97" x="243.9"> </tspan></text>
</g>
<g clip-path="url(#clip_8)">
<text xml:space="preserve" transform="matrix(1 0 -0 1 0 595.25)" font-size="11" font-family="Times New Roman"><tspan y="-508.48" x="57.525 64.774 70.274 75.774 78.777 83.771 89.271 92.274 96.553 107.553 118.553 129.55301 140.55301 146.05301 151.014 156.514 161.50801">Contents&#x2026;&#x2026;&#x2026;&#x2026;page </tspan></text>
</g>
<g clip-path="url(#clip_9)">
<text xml:space="preserve" transform="matrix(1 0 -0 1 0 595.25)" font-size="11" font-family="Times New Roman"><tspan y="-508.48" x="164.35">1</tspan></text>
</g>
<g clip-path="url(#clip_10)">
<text xml:space="preserve" transform="matrix(1 0 -0 1 0 595.25)" font-size="11" font-family="Times New Roman"><tspan y="-508.48" x="169.85">.</tspan></text>
</g>
<g clip-path="url(#clip_11)">
<text xml:space="preserve" transform="matrix(1 0 -0 1 0 595.25)" font-size="11" font-family="Times New Roman"><tspan y="-508.48" x="172.6"> </tspan></text>
</g>
<g clip-path="url(#clip_12)">
<text xml:space="preserve" transform="matrix(1 0 -0 1 0 595.25)" font-size="11" font-family="Times New Roman"><tspan y="-495.7" x="57.525 65.511 70.505008 76.005008 81.505008 87.005008 94.991008 97.994 102.98801 108.48801 113.73501 118.72901 127.23201 132.22602 137.72602 140.72902 145.00803 156.00803 167.00803 178.00803 189.00803 194.50803 199.46903 204.96903 209.96303">Acknowledgements&#x2026;&#x2026;&#x2026;&#x2026;page </tspan></text>
</g>
<g clip-path="url(#clip_13)">
<text xml:space="preserve" transform="matrix(1 0 -0 1 0 595.25)" font-size="11" font-family="Times New Roman"><tspan y="-495.7" x="212.88">3</tspan></text>
</g>
<g clip-path="url(#clip_14)">
<text xml:space="preserve" transform="matrix(1 0 -0 1 0 595.25)" font-size="11" font-family="Times New Roman"><tspan y="-495.7" x="218.38">.</tspan></text>
</g>
<g clip-path="url(#clip_15)">
<text xml:space="preserve" transform="matrix(1 0 -0 1 0 595.25)" font-size="11" font-family="Times New Roman"><tspan y="-495.7" x="220.88"> </tspan></text>
</g>
<g clip-path="url(#clip_16)">
<text xml:space="preserve" transform="matrix(1 0 -0 1 0 595.25)" font-size="11" font-family="Times New Roman"><tspan y="-483.2" x="57.525 63.520006 67.26001 72.25401 75.99402 80.74602 85.74002 90.734027 101.734027 112.734027 123.734027">Preface&#x2026;&#x2026;&#x2026;&#x2026;</tspan></text>
</g>
<g clip-path="url(#clip_17)">
<text xml:space="preserve" transform="matrix(1 0 -0 1 0 595.25)" font-size="11" font-family="Times New Roman"><tspan y="-483.2" x="134.83 140.077 145.071 150.571 155.565">page </tspan></text>
</g>
<g clip-path="url(#clip_18)">
<text xml:space="preserve" transform="matrix(1 0 -0 1 0 595.25)" font-size="11" font-family="Times New Roman"><tspan y="-483.2" x="158.35">5</tspan></text>
</g>
<g clip-path="url(#clip_19)">
<text xml:space="preserve" transform="matrix(1 0 -0 1 0 595.25)" font-size="11" font-family="Times New Roman"><tspan y="-483.2" x="163.85">.</tspan></text>
</g>
<g clip-path="url(#clip_20)">
<text xml:space="preserve" transform="matrix(1 0 -0 1 0 595.25)" font-size="11" font-family="Times New Roman"><tspan y="-483.2" x="166.35"> </tspan></text>
</g>
<g clip-path="url(#clip_21)">
<text xml:space="preserve" transform="matrix(1 0 -0 1 0 595.25)" font-size="11" font-family="Times New Roman"><tspan y="-470.45" x="57.525 65.511 71.011 76.511 82.011 85.014 87.764 90.767 96.267 101.261 104.011 111.997 117.497 120.5 126 131.5 135.23999 146.23999 157.23999 168.23999 179.23999 184.73999 189.734 194.98099 199.97499">About the Author&#x2026;&#x2026;&#x2026;&#x2026;page </tspan></text>
</g>
<g clip-path="url(#clip_22)">
<text xml:space="preserve" transform="matrix(1 0 -0 1 0 595.25)" font-size="11" font-family="Times New Roman"><tspan y="-470.45" x="202.88">6</tspan></text>
</g>
<g clip-path="url(#clip_23)">
<text xml:space="preserve" transform="matrix(1 0 -0 1 0 595.25)" font-size="11" font-family="Times New Roman"><tspan y="-470.45" x="208.38">.</tspan></text>
</g>
<g clip-path="url(#clip_24)">
<text xml:space="preserve" transform="matrix(1 0 -0 1 0 595.25)" font-size="11" font-family="Times New Roman"><tspan y="-470.45" x="210.88"> </tspan></text>
</g>
<g clip-path="url(#clip_25)">
<text xml:space="preserve" transform="matrix(1 0 -0 1 0 595.25)" font-size="11" font-family="Times New Roman"><tspan y="-457.7" x="57.525"> </tspan></text>
</g>
<g clip-path="url(#clip_26)">
<text xml:space="preserve" transform="matrix(1 0 -0 1 0 595.25)" font-size="11" font-family="Times New Roman"><tspan y="-445.17" x="57.525 64.774 67.777 73.277 76.28 79.283 84.783 90.283 94.023 99.017009 104.517009 110.017009 115.517009 118.267009 122.00701 127.50701 131.24701 133.99701 139.49701 142.24701 148.242 153.23601 156.23902 161.23302 164.973 175.973 186.973 197.973 208.973 214.22 219.214 224.714 229.70801">Bibliography for 1 Peter&#x2026;&#x2026;&#x2026;&#x2026;page </tspan></text>
</g>
<g clip-path="url(#clip_27)">
<text xml:space="preserve" transform="matrix(1 0 -0 1 0 595.25)" font-size="11" font-family="Times New Roman"><tspan y="-445.17" x="232.63">7</tspan></text>
</g>
<g clip-path="url(#clip_28)">
<text xml:space="preserve" transform="matrix(1 0 -0 1 0 595.25)" font-size="11" font-family="Times New Roman"><tspan y="-445.17" x="238.15">.</tspan></text>
</g>
<g clip-path="url(#clip_29)">
<text xml:space="preserve" transform="matrix(1 0 -0 1 0 595.25)" font-size="11" font-family="Times New Roman"><tspan y="-445.17" x="240.65"> </tspan></text>
</g>
<g clip-path="url(#clip_30)">
<text xml:space="preserve" transform="matrix(1 0 -0 1 0 595.25)" font-size="11" font-family="Times New Roman"><tspan y="-432.42" x="57.525"> </tspan></text>
</g>
<g clip-path="url(#clip_31)">
<text xml:space="preserve" transform="matrix(1 0 -0 1 0 595.25)" font-size="11" font-family="Times New Roman"><tspan y="-419.92" x="57.525 61.265005 66.765 69.768 73.508 79.008 84.508 90.008 95.00201 98.005008 101.008 106.508 112.008">Introduction </tspan></text>
</g>
<g clip-path="url(#clip_32)">
<text xml:space="preserve" transform="matrix(1 0 -0 1 0 595.25)" font-size="11" font-family="Times New Roman"><tspan y="-419.92" x="114.82 117.82">to</tspan></text>
</g>
<g clip-path="url(#clip_33)">
<text xml:space="preserve" transform="matrix(1 0 -0 1 0 595.25)" font-size="11" font-family="Times New Roman"><tspan y="-419.92" x="123.32"> </tspan></text>
</g>
<g clip-path="url(#clip_34)">
<text xml:space="preserve" transform="matrix(1 0 -0 1 0 595.25)" font-size="11" font-family="Times New Roman"><tspan y="-419.92" x="126.07 131.57 134.32 140.315 145.309 148.31201 153.30602">1 Peter</tspan></text>
</g>
<g clip-path="url(#clip_35)">
<text xml:space="preserve" transform="matrix(1 0 -0 1 0 595.25)" font-size="11" font-family="Times New Roman"><tspan y="-419.92" x="156.85"> </tspan></text>
</g>
<path transform="matrix(1,0,0,-1,0,595.25)" d="M57.525 418.17H156.85V418.67H57.525Z" fill-rule="evenodd"/>
<g clip-path="url(#clip_36)">
<text xml:space="preserve" transform="matrix(1 0 -0 1 0 595.25)" font-size="11" font-family="Times New Roman"><tspan y="-407.17" x="57.525 62.519 68.514 73.508 76.511 81.505008 85.24501 87.99501 90.49201 95.486019 100.986019 103.736019 108.73002 114.23002 119.73002 124.00902 126.97902 129.98203 134.97603 139.97003 150.97003 161.97003 172.97003 183.97003 189.21703 194.21103 199.71103 204.70503">&#x201c;Peter, an apostle&#x201d;&#x2026;&#x2026;&#x2026;&#x2026;page </tspan></text>
</g>
<g clip-path="url(#clip_37)">
<text xml:space="preserve" transform="matrix(1 0 -0 1 0 595.25)" font-size="11" font-family="Times New Roman"><tspan y="-407.17" x="207.63">9</tspan></text>
</g>
<g clip-path="url(#clip_38)">
<text xml:space="preserve" transform="matrix(1 0 -0 1 0 595.25)" font-size="11" font-family="Times New Roman"><tspan y="-407.17" x="213.13">.</tspan></text>
</g>
<g clip-path="url(#clip_39)">
<text xml:space="preserve" transform="matrix(1 0 -0 1 0 595.25)" font-size="11" font-family="Times New Roman"><tspan y="-407.17" x="215.63"> </tspan></text>
</g>
<g clip-path="url(#clip_40)">
<text xml:space="preserve" transform="matrix(1 0 -0 1 0 595.25)" font-size="11" font-family="Times New Roman"><tspan y="-394.42" x="75.55 81.05">1.</tspan></text>
</g>
<g clip-path="url(#clip_41)">
<text xml:space="preserve" transform="matrix(1 0 -0 1 0 595.25)" font-size="11" font-family="Arial"><tspan y="-394.42" x="83.8"> </tspan></text>
</g>
<g clip-path="url(#clip_42)">
<text xml:space="preserve" transform="matrix(1 0 -0 1 0 595.25)" font-size="11" font-family="Times New Roman"><tspan y="-394.42" x="93.55 101.536 107.036 110.039 115.539 121.039 124.77901 129.05802 134.55802 137.52802">Authorship</tspan></text>
</g>
<g clip-path="url(#clip_43)">
<text xml:space="preserve" transform="matrix(1 0 -0 1 0 595.25)" font-size="11" font-family="Times New Roman"><tspan y="-394.42" x="143.08"> </tspan></text>
</g>
<g clip-path="url(#clip_44)">
<text xml:space="preserve" transform="matrix(1 0 -0 1 0 595.25)" font-size="11" font-family="Times New Roman"><tspan y="-379.65" x="111.58 116.58">a.</tspan></text>
</g>
<g clip-path="url(#clip_45)">
<text xml:space="preserve" transform="matrix(1 0 -0 1 0 595.25)" font-size="11" font-family="Arial"><tspan y="-379.65" x="119.32"> </tspan></text>
</g>
<g clip-path="url(#clip_46)">
<text xml:space="preserve" transform="matrix(1 0 -0 1 0 595.25)" font-size="11" font-family="Times New Roman"><tspan y="-379.65" x="129.58 136.301 141.801 144.859 149.81999 153.55998 159.05998 164.05399 167.05699 169.80699 176.52799 182.02799 185.08599 190.58599 195.54698 200.79398 205.78798">External Evidence</tspan></text>
</g>
<g clip-path="url(#clip_47)">
<text xml:space="preserve" transform="matrix(1 0 -0 1 0 595.25)" font-size="11" font-family="Times New Roman"><tspan y="-379.65" x="210.63"> </tspan></text>
</g>
<g clip-path="url(#clip_48)">
<text xml:space="preserve" transform="matrix(1 0 -0 1 0 595.25)" font-size="11" font-family="Times New Roman"><tspan y="-365.15" x="111.58 117.08">b.</tspan></text>
</g>
<g clip-path="url(#clip_49)">
<text xml:space="preserve" transform="matrix(1 0 -0 1 0 595.25)" font-size="11" font-family="Arial"><tspan y="-365.15" x="119.82"> </tspan></text>
</g>
<g clip-path="url(#clip_50)">
<text xml:space="preserve" transform="matrix(1 0 -0 1 0 595.25)" font-size="11" font-family="Times New Roman"><tspan y="-365.15" x="129.58 133.31999 138.81999 141.823 146.817 150.55699 156.05699 161.051 164.054 166.804 173.525 179.025 182.083 187.308 192.302 197.802 202.796">Internal Evidence</tspan></text>
</g>
<g clip-path="url(#clip_51)">
<text xml:space="preserve" transform="matrix(1 0 -0 1 0 595.25)" font-size="11" font-family="Times New Roman"><tspan y="-365.15" x="207.63"> </tspan></text>
</g>
<g clip-path="url(#clip_52)">
<text xml:space="preserve" transform="matrix(1 0 -0 1 0 595.25)" font-size="11" font-family="Times New Roman" font-style="italic"><tspan y="-350.65" x="57.525 64.246 69.26201 74.25601 79.75601 84.03501 88.25901 93.75901 98.03801 101.74501 104.49501 110.490009 115.990009 120.98401 123.73401 130.98302 136.48302 144.46903 152.45503 157.95503 163.45503 166.45804 171.45204 176.95204 179.95505 182.95806 188.45806 193.95806 196.70806 202.20806 205.21106 207.96106 213.46106 216.21106 221.71106 227.21106 232.71106 235.46106 240.96106 243.71106 250.43206 255.44806 258.19807 263.19206 267.47105 271.17805 273.92805 281.91404 287.41404 294.66304 297.41304 305.39903 308.40205 311.40507 314.40809 319.40208 323.68107 328.64207 334.14207 337.14509 339.89509 346.6161 350.89509 355.88908">Excursus: The Communication of 1 and 2 Peter: How Different Are </tspan></text>
</g>
<g clip-path="url(#clip_53)">
<text xml:space="preserve" transform="matrix(1 0 -0 1 0 595.25)" font-size="11" font-family="Times New Roman" font-style="italic"><tspan y="-337.9" x="57.525 63.520006 69.020008 74.01401 79.00801">They?</tspan></text>
</g>
<g clip-path="url(#clip_54)">
<text xml:space="preserve" transform="matrix(1 0 -0 1 0 595.25)" font-size="11" font-family="Times New Roman"><tspan y="-337.9" x="84.55 95.55 106.55 117.55 128.55 134.05 139.044 144.544 149.53801">&#x2026;&#x2026;&#x2026;&#x2026;page </tspan></text>
</g>
<g clip-path="url(#clip_55)">
<text xml:space="preserve" transform="matrix(1 0 -0 1 0 595.25)" font-size="11" font-family="Times New Roman"><tspan y="-337.9" x="152.35 157.85">10</tspan></text>
</g>
<g clip-path="url(#clip_56)">
<text xml:space="preserve" transform="matrix(1 0 -0 1 0 595.25)" font-size="11" font-family="Times New Roman"><tspan y="-337.9" x="163.35">.</tspan></text>
</g>
<g clip-path="url(#clip_57)">
<text xml:space="preserve" transform="matrix(1 0 -0 1 0 595.25)" font-size="11" font-family="Times New Roman"><tspan y="-337.9" x="165.85"> </tspan></text>
</g>
<g clip-path="url(#clip_58)">
<text xml:space="preserve" transform="matrix(1 0 -0 1 0 595.25)" font-size="11" font-family="Times New Roman"><tspan y="-325.13" x="57.525 65.511 70.505008 73.508 76.511 82.011">Dating</tspan></text>
</g>
<g clip-path="url(#clip_59)">
<text xml:space="preserve" transform="matrix(1 0 -0 1 0 595.25)" font-size="11" font-family="Times New Roman"><tspan y="-325.13" x="87.55"> </tspan></text>
</g>
<g clip-path="url(#clip_60)">
<text xml:space="preserve" transform="matrix(1 0 -0 1 0 595.25)" font-size="11" font-family="Times New Roman"><tspan y="-312.63" x="57.525">&#x201c;</tspan></text>
</g>
<g clip-path="url(#clip_61)">
<text xml:space="preserve" transform="matrix(1 0 -0 1 0 595.25)" font-size="11" font-family="Times New Roman"><tspan y="-312.63" x="62.525 68.52 74.02 79.014 81.764 89.75 95.25 100.75 103.5 106.503 110.782 113.532 116.502 122.002">She who is in </tspan></text>
</g>
<g clip-path="url(#clip_62)">
<text xml:space="preserve" transform="matrix(1 0 -0 1 0 595.25)" font-size="11" font-family="Times New Roman"><tspan y="-312.63" x="124.83 132.07901 137.07302 142.57302 148.07302 151.07602 156.57602 162.07602">Babylon&#x201d;</tspan></text>
</g>
<g clip-path="url(#clip_63)">
<text xml:space="preserve" transform="matrix(1 0 -0 1 0 595.25)" font-size="11" font-family="Times New Roman"><tspan y="-312.63" x="167.1"> </tspan></text>
</g>
<g clip-path="url(#clip_64)">
<text xml:space="preserve" transform="matrix(1 0 -0 1 0 595.25)" font-size="11" font-family="Times New Roman"><tspan y="-299.88" x="75.55 81.05">1.</tspan></text>
</g>
<g clip-path="url(#clip_65)">
<text xml:space="preserve" transform="matrix(1 0 -0 1 0 595.25)" font-size="11" font-family="Arial"><tspan y="-299.88" x="83.8"> </tspan></text>
</g>
<g clip-path="url(#clip_66)">
<text xml:space="preserve" transform="matrix(1 0 -0 1 0 595.25)" font-size="11" font-family="Times New Roman"><tspan y="-299.88" x="93.55 103.549 107.28901 110.29201 113.295009 116.298007 121.29201 126.79201 129.542 133.282 137.02199 142.52199 151.025 153.775 161.024 166.524 175.02701 180.02101">Written from Rome?</tspan></text>
</g>
<g clip-path="url(#clip_67)">
<text xml:space="preserve" transform="matrix(1 0 -0 1 0 595.25)" font-size="11" font-family="Times New Roman"><tspan y="-299.88" x="184.85"> </tspan></text>
</g>
<g clip-path="url(#clip_68)">
<text xml:space="preserve" transform="matrix(1 0 -0 1 0 595.25)" font-size="11" font-family="Times New Roman"><tspan y="-285.38" x="57.525 65.511 71.011 76.511 79.514 84.508 90.008 95.00201">Audience</tspan></text>
</g>
<g clip-path="url(#clip_69)">
<text xml:space="preserve" transform="matrix(1 0 -0 1 0 595.25)" font-size="11" font-family="Times New Roman"><tspan y="-285.38" x="99.8"> </tspan></text>
</g>
<g clip-path="url(#clip_70)">
<text xml:space="preserve" transform="matrix(1 0 -0 1 0 595.25)" font-size="11" font-family="Times New Roman"><tspan y="-272.63" x="75.55 81.05">1.</tspan></text>
</g>
<g clip-path="url(#clip_71)">
<text xml:space="preserve" transform="matrix(1 0 -0 1 0 595.25)" font-size="11" font-family="Arial"><tspan y="-272.63" x="83.8"> </tspan></text>
</g>
<g clip-path="url(#clip_72)">
<text xml:space="preserve" transform="matrix(1 0 -0 1 0 595.25)" font-size="11" font-family="Times New Roman"><tspan y="-272.63" x="93.55 101.536 106.53001 110.809009 113.77901 116.782009 122.282009 127.27601 130.27902 133.28203 138.78203">Destination</tspan></text>
</g>
<g clip-path="url(#clip_73)">
<text xml:space="preserve" transform="matrix(1 0 -0 1 0 595.25)" font-size="11" font-family="Times New Roman"><tspan y="-272.63" x="144.33"> </tspan></text>
</g>
<g clip-path="url(#clip_74)">
<text xml:space="preserve" transform="matrix(1 0 -0 1 0 595.25)" font-size="11" font-family="Times New Roman"><tspan y="-257.85" x="75.55 81.05">2.</tspan></text>
</g>
<g clip-path="url(#clip_75)">
<text xml:space="preserve" transform="matrix(1 0 -0 1 0 595.25)" font-size="11" font-family="Arial"><tspan y="-257.85" x="83.8"> </tspan></text>
</g>
<g clip-path="url(#clip_76)">
<text xml:space="preserve" transform="matrix(1 0 -0 1 0 595.25)" font-size="11" font-family="Times New Roman"><tspan y="-257.85" x="93.55 100.799 105.79301 110.78701 113.79001 119.29001 122.29301 127.28701 132.78702 135.79003">Recipients</tspan></text>
</g>
<g clip-path="url(#clip_77)">
<text xml:space="preserve" transform="matrix(1 0 -0 1 0 595.25)" font-size="11" font-family="Times New Roman"><tspan y="-257.85" x="140.08"> </tspan></text>
</g>
<g clip-path="url(#clip_78)">
<text xml:space="preserve" transform="matrix(1 0 -0 1 0 595.25)" font-size="11" font-family="Times New Roman"><tspan y="-243.1" x="111.58 116.58">a.</tspan></text>
</g>
<g clip-path="url(#clip_79)">
<text xml:space="preserve" transform="matrix(1 0 -0 1 0 595.25)" font-size="11" font-family="Arial"><tspan y="-243.1" x="119.32"> </tspan></text>
</g>
<g clip-path="url(#clip_80)">
<text xml:space="preserve" transform="matrix(1 0 -0 1 0 595.25)" font-size="11" font-family="Times New Roman"><tspan y="-243.1" x="129.58 136.82901 139.57901 143.85802 148.81902 156.80503 159.80803 164.08704 169.58704 171.80904 179.79505 185.29505 190.79505 193.79805 198.79206 204.29206 209.04405 214.03806">A Jewish Audience?</tspan></text>
</g>
<g clip-path="url(#clip_81)">
<text xml:space="preserve" transform="matrix(1 0 -0 1 0 595.25)" font-size="11" font-family="Times New Roman"><tspan y="-243.1" x="218.88"> </tspan></text>
</g>
<g clip-path="url(#clip_82)">
<text xml:space="preserve" transform="matrix(1 0 -0 1 0 595.25)" font-size="11" font-family="Times New Roman"><tspan y="-228.6" x="111.58 117.08">b.</tspan></text>
</g>
<g clip-path="url(#clip_83)">
<text xml:space="preserve" transform="matrix(1 0 -0 1 0 595.25)" font-size="11" font-family="Arial"><tspan y="-228.6" x="119.82"> </tspan></text>
</g>
<g clip-path="url(#clip_84)">
<text xml:space="preserve" transform="matrix(1 0 -0 1 0 595.25)" font-size="11" font-family="Times New Roman"><tspan y="-228.6" x="129.58 136.82901 139.57901 147.56502 152.55902 158.05902 161.06203 164.06504 167.06804 172.06204 174.31705 182.30306 187.80306 193.30306 196.30606 201.30007 206.54706 211.54106 216.53507">A Gentile Audience?</tspan></text>
</g>
<g clip-path="url(#clip_85)">
<text xml:space="preserve" transform="matrix(1 0 -0 1 0 595.25)" font-size="11" font-family="Times New Roman"><tspan y="-228.6" x="221.38"> </tspan></text>
</g>
<g clip-path="url(#clip_86)">
<text xml:space="preserve" transform="matrix(1 0 -0 1 0 595.25)" font-size="11" font-family="Times New Roman"><tspan y="-214.1" x="57.525 64.246 69.746 74.76201 83.26501 88.25901">Themes</tspan></text>
</g>
<g clip-path="url(#clip_87)">
<text xml:space="preserve" transform="matrix(1 0 -0 1 0 595.25)" font-size="11" font-family="Times New Roman"><tspan y="-214.1" x="92.3"> </tspan></text>
</g>
<g clip-path="url(#clip_88)">
<text xml:space="preserve" transform="matrix(1 0 -0 1 0 595.25)" font-size="11" font-family="Times New Roman"><tspan y="-201.33" x="57.525 63.520006 69.020008 72.76001 78.26001 83.76001 88.03901">Purpose</tspan></text>
</g>
<g clip-path="url(#clip_89)">
<text xml:space="preserve" transform="matrix(1 0 -0 1 0 595.25)" font-size="11" font-family="Times New Roman"><tspan y="-201.33" x="93.05"> </tspan></text>
</g>
<g clip-path="url(#clip_90)">
<text xml:space="preserve" transform="matrix(1 0 -0 1 0 595.25)" font-size="11" font-family="Times New Roman"><tspan y="-188.58" x="57.525"> </tspan></text>
</g>
<g clip-path="url(#clip_91)">
<text xml:space="preserve" transform="matrix(1 0 -0 1 0 595.25)" font-size="11" font-family="Times New Roman"><tspan y="-176.07" x="57.525 63.025 65.775 71.77 76.764 79.767 84.761">1 Peter</tspan></text>
</g>
<g clip-path="url(#clip_92)">
<text xml:space="preserve" transform="matrix(1 0 -0 1 0 595.25)" font-size="11" font-family="Times New Roman"><tspan y="-176.07" x="88.3"> </tspan></text>
</g>
<path transform="matrix(1,0,0,-1,0,595.25)" d="M57.525 174.32H88.3V174.82H57.525Z" fill-rule="evenodd"/>
<g clip-path="url(#clip_93)">
<text xml:space="preserve" transform="matrix(1 0 -0 1 0 595.25)" font-size="11" font-family="Times New Roman"><tspan y="-163.33" x="57.525 63.025 66.028">1:1</tspan></text>
</g>
<g clip-path="url(#clip_94)">
<text xml:space="preserve" transform="matrix(1 0 -0 1 0 595.25)" font-size="11" font-family="Times New Roman"><tspan y="-163.33" x="71.55">-</tspan></text>
</g>
<g clip-path="url(#clip_95)">
<text xml:space="preserve" transform="matrix(1 0 -0 1 0 595.25)" font-size="11" font-family="Times New Roman"><tspan y="-163.33" x="75.3"> </tspan></text>
</g>
<g clip-path="url(#clip_96)">
<text xml:space="preserve" transform="matrix(1 0 -0 1 0 595.25)" font-size="11" font-family="Times New Roman"><tspan y="-163.33" x="78.05 89.05 100.05 111.05 122.05 127.55 132.544 138.044 143.03801">&#x2026;&#x2026;&#x2026;&#x2026;page </tspan></text>
</g>
<g clip-path="url(#clip_97)">
<text xml:space="preserve" transform="matrix(1 0 -0 1 0 595.25)" font-size="11" font-family="Times New Roman"><tspan y="-163.33" x="145.83 151.33">34</tspan></text>
</g>
<g clip-path="url(#clip_98)">
<text xml:space="preserve" transform="matrix(1 0 -0 1 0 595.25)" font-size="11" font-family="Times New Roman"><tspan y="-163.33" x="156.85">.</tspan></text>
</g>
<g clip-path="url(#clip_99)">
<text xml:space="preserve" transform="matrix(1 0 -0 1 0 595.25)" font-size="11" font-family="Times New Roman"><tspan y="-163.33" x="159.35"> </tspan></text>
</g>
<g clip-path="url(#clip_100)">
<text xml:space="preserve" transform="matrix(1 0 -0 1 0 595.25)" font-size="11" font-family="Times New Roman"><tspan y="-150.83" x="57.525"> </tspan></text>
</g>
<g clip-path="url(#clip_101)">
<text xml:space="preserve" transform="matrix(1 0 -0 1 0 595.25)" font-size="11" font-family="Times New Roman"><tspan y="-138.05" x="57.525 64.774 67.777 73.277 76.28 79.283 84.783 90.283 94.023 99.017009 104.517009 110.017009 115.517009 118.267009 122.00701 127.50701 131.24701 133.99701 139.49701 142.24701 148.242 153.23601 156.23902 161.23302 164.973 175.973 186.973 197.973 208.973 214.22 219.214 224.714 229.70801">Bibliography for 2 Peter&#x2026;&#x2026;&#x2026;&#x2026;page </tspan></text>
</g>
<g clip-path="url(#clip_102)">
<text xml:space="preserve" transform="matrix(1 0 -0 1 0 595.25)" font-size="11" font-family="Times New Roman"><tspan y="-138.05" x="232.63 238.13">35</tspan></text>
</g>
<g clip-path="url(#clip_103)">
<text xml:space="preserve" transform="matrix(1 0 -0 1 0 595.25)" font-size="11" font-family="Times New Roman"><tspan y="-138.05" x="243.65">.</tspan></text>
</g>
<g clip-path="url(#clip_104)">
<text xml:space="preserve" transform="matrix(1 0 -0 1 0 595.25)" font-size="11" font-family="Times New Roman"><tspan y="-138.05" x="246.15"> </tspan></text>
</g>
<g clip-path="url(#clip_105)">
<text xml:space="preserve" transform="matrix(1 0 -0 1 0 595.25)" font-size="11" font-family="Times New Roman"><tspan y="-125.3" x="57.525"> </tspan></text>
</g>
<g clip-path="url(#clip_106)">
<text xml:space="preserve" transform="matrix(1 0 -0 1 0 595.25)" font-size="11" font-family="Times New Roman"><tspan y="-112.8" x="57.525 61.265005 66.765 69.768 73.508 79.008 84.508 90.008 95.00201 98.005008 101.008 106.508 112.008">Introduction </tspan></text>
</g>
<g clip-path="url(#clip_107)">
<text xml:space="preserve" transform="matrix(1 0 -0 1 0 595.25)" font-size="11" font-family="Times New Roman"><tspan y="-112.8" x="114.82 117.82">to</tspan></text>
</g>
<g clip-path="url(#clip_108)">
<text xml:space="preserve" transform="matrix(1 0 -0 1 0 595.25)" font-size="11" font-family="Times New Roman"><tspan y="-112.8" x="123.32"> </tspan></text>
</g>
<g clip-path="url(#clip_109)">
<text xml:space="preserve" transform="matrix(1 0 -0 1 0 595.25)" font-size="11" font-family="Times New Roman"><tspan y="-112.8" x="126.07 131.57 134.32 140.315 145.309 148.31201 153.30602">2 Peter</tspan></text>
</g>
<g clip-path="url(#clip_110)">
<text xml:space="preserve" transform="matrix(1 0 -0 1 0 595.25)" font-size="11" font-family="Times New Roman"><tspan y="-112.8" x="156.85"> </tspan></text>
</g>
<path transform="matrix(1,0,0,-1,0,595.25)" d="M57.525 111.05H156.85V111.55H57.525Z" fill-rule="evenodd"/>
<g clip-path="url(#clip_111)">
<text xml:space="preserve" transform="matrix(1 0 -0 1 0 595.25)" font-size="11" font-family="Times New Roman"><tspan y="-100.05" x="57.525 62.519 68.514 71.517 80.02 85.52 91.02 93.77 99.76499 104.758998 107.76199 112.756 116.496 119.246 121.996 126.990009 129.74 135.24 140.74 146.24">&#x201c;Simon Peter, a bond</tspan></text>
</g>
<g clip-path="url(#clip_112)">
<text xml:space="preserve" transform="matrix(1 0 -0 1 0 595.25)" font-size="11" font-family="Times New Roman"><tspan y="-100.05" x="151.85">-</tspan></text>
</g>
<g clip-path="url(#clip_113)">
<text xml:space="preserve" transform="matrix(1 0 -0 1 0 595.25)" font-size="11" font-family="Times New Roman"><tspan y="-100.05" x="155.6 159.87902 164.59803 168.33802 173.83802 178.83202 184.33202 187.33502 190.08502 195.07903 200.57903 206.07903 208.57602 213.57003 219.07003 224.57003 228.84903 231.81903 234.82204 239.81604 244.81005 255.81005 266.81007 277.81007 288.81007 294.05708 299.05107 304.55107 309.54505">servant and apostle&#x201d;&#x2026;&#x2026;&#x2026;&#x2026;page </tspan></text>
</g>
<g clip-path="url(#clip_114)">
<text xml:space="preserve" transform="matrix(1 0 -0 1 0 595.25)" font-size="11" font-family="Times New Roman"><tspan y="-100.05" x="312.17 317.67">38</tspan></text>
</g>
<g clip-path="url(#clip_115)">
<text xml:space="preserve" transform="matrix(1 0 -0 1 0 595.25)" font-size="11" font-family="Times New Roman"><tspan y="-100.05" x="323.2">.</tspan></text>
</g>
<g clip-path="url(#clip_116)">
<text xml:space="preserve" transform="matrix(1 0 -0 1 0 595.25)" font-size="11" font-family="Times New Roman"><tspan y="-100.05" x="325.95"> </tspan></text>
</g>
<g clip-path="url(#clip_117)">
<text xml:space="preserve" transform="matrix(1 0 -0 1 0 595.25)" font-size="11" font-family="Times New Roman"><tspan y="-87.275" x="75.55 81.05">1.</tspan></text>
</g>
<g clip-path="url(#clip_118)">
<text xml:space="preserve" transform="matrix(1 0 -0 1 0 595.25)" font-size="11" font-family="Arial"><tspan y="-87.275" x="83.8"> </tspan></text>
</g>
<g clip-path="url(#clip_119)">
<text xml:space="preserve" transform="matrix(1 0 -0 1 0 595.25)" font-size="11" font-family="Times New Roman"><tspan y="-87.275" x="93.55 101.536 107.036 110.039 115.539 121.039 124.77901 129.05802 134.55802 137.52802">Authorship</tspan></text>
</g>
<g clip-path="url(#clip_120)">
<text xml:space="preserve" transform="matrix(1 0 -0 1 0 595.25)" font-size="11" font-family="Times New Roman"><tspan y="-87.275" x="143.08"> </tspan></text>
</g>
<g clip-path="url(#clip_121)">
<text xml:space="preserve" transform="matrix(1 0 -0 1 0 595.25)" font-size="11" font-family="Times New Roman"><tspan y="-72.775" x="111.58 116.58">a.</tspan></text>
</g>
<g clip-path="url(#clip_122)">
<text xml:space="preserve" transform="matrix(1 0 -0 1 0 595.25)" font-size="11" font-family="Arial"><tspan y="-72.775" x="119.32"> </tspan></text>
</g>
<g clip-path="url(#clip_123)">
<text xml:space="preserve" transform="matrix(1 0 -0 1 0 595.25)" font-size="11" font-family="Times New Roman"><tspan y="-72.775" x="129.58 136.301 141.801 144.859 149.81999 153.55998 159.05998 164.05399 167.05699 169.80699 176.52799 182.02799 185.08599 190.58599 195.54698 200.79398 205.78798">External Evidence</tspan></text>
</g>
<g clip-path="url(#clip_124)">
<text xml:space="preserve" transform="matrix(1 0 -0 1 0 595.25)" font-size="11" font-family="Times New Roman"><tspan y="-72.775" x="210.63"> </tspan></text>
</g>
<g clip-path="url(#clip_125)">
<text xml:space="preserve" transform="matrix(1 0 -0 1 0 595.25)" font-size="11" font-family="Times New Roman"><tspan y="-58.025" x="111.58 117.08">b.</tspan></text>
</g>
<g clip-path="url(#clip_126)">
<text xml:space="preserve" transform="matrix(1 0 -0 1 0 595.25)" font-size="11" font-family="Arial"><tspan y="-58.025" x="119.82"> </tspan></text>
</g>
<g clip-path="url(#clip_127)">
<text xml:space="preserve" transform="matrix(1 0 -0 1 0 595.25)" font-size="11" font-family="Times New Roman"><tspan y="-58.025" x="129.58 133.31999 138.81999 141.823 146.817 150.55699 156.05699 161.051 164.054 166.804 173.525 179.025 182.083 187.308 192.302 197.802 202.796">Internal Evidence</tspan></text>
</g>
<g clip-path="url(#clip_128)">
<text xml:space="preserve" transform="matrix(1 0 -0 1 0 595.25)" font-size="11" font-family="Times New Roman"><tspan y="-58.025" x="207.63"> </tspan></text>
</g>
</g>
</svg>
