<svg class="pg-svg" xmlns="http://www.w3.org/2000/svg" xmlns:xlink="http://www.w3.org/1999/xlink" xmlns:inkscape="http://www.inkscape.org/namespaces/inkscape" version="1.1" width="419.5" height="595.25" viewBox="0 0 419.5 595.25">
<defs>
<clipPath id="clip_1">
<path transform="matrix(1,0,0,-1,0,595.25)" d="M.000006251 0H419.5V595.25H.000006251Z" clip-rule="evenodd"/>
</clipPath>
<clipPath id="clip_2">
<path transform="matrix(1,0,0,-1,0,595.25)" d="M.000006251 0H419.5V595.25H.000006251Z" clip-rule="evenodd"/>
</clipPath>
<clipPath id="clip_3">
<path transform="matrix(1,0,0,-1,0,595.25)" d="M365.48 546.47H376.48V559.22H365.48Z" clip-rule="evenodd"/>
</clipPath>
<clipPath id="clip_4">
<path transform="matrix(1,0,0,-1,0,595.25)" d="M365.48 546.47H376.48V559.22H365.48Z" clip-rule="evenodd"/>
</clipPath>
<clipPath id="clip_5">
<path transform="matrix(1,0,0,-1,0,595.25)" d="M365.48 546.47H376.48V559.22H365.48Z" clip-rule="evenodd"/>
</clipPath>
<clipPath id="clip_6">
<path transform="matrix(1,0,0,-1,0,595.25)" d="M.000006251 0H419.5V595.25H.000006251Z" clip-rule="evenodd"/>
</clipPath>
<clipPath id="clip_7">
<path transform="matrix(1,0,0,-1,0,595.25)" d="M.000006251 0H419.5V595.25H.000006251Z" clip-rule="evenodd"/>
</clipPath>
<clipPath id="clip_8">
<path transform="matrix(1,0,0,-1,0,595.25)" d="M.000006251 0H419.5V595.25H.000006251Z" clip-rule="evenodd"/>
</clipPath>
<clipPath id="clip_9">
<path transform="matrix(1,0,0,-1,0,595.25)" d="M.000006251 0H419.5V595.25H.000006251Z" clip-rule="evenodd"/>
</clipPath>
<clipPath id="clip_10">
<path transform="matrix(1,0,0,-1,0,595.25)" d="M.000006251 0H419.5V595.25H.000006251Z" clip-rule="evenodd"/>
</clipPath>
<clipPath id="clip_11">
<path transform="matrix(1,0,0,-1,0,595.25)" d="M.000006251 0H419.5V595.25H.000006251Z" clip-rule="evenodd"/>
</clipPath>
<clipPath id="clip_12">
<path transform="matrix(1,0,0,-1,0,595.25)" d="M.000006251 0H419.5V595.25H.000006251Z" clip-rule="evenodd"/>
</clipPath>
<clipPath id="clip_13">
<path transform="matrix(1,0,0,-1,0,595.25)" d="M.000006251 0H419.5V595.25H.000006251Z" clip-rule="evenodd"/>
</clipPath>
<clipPath id="clip_14">
<path transform="matrix(1,0,0,-1,0,595.25)" d="M.000006251 0H419.5V595.25H.000006251Z" clip-rule="evenodd"/>
</clipPath>
<clipPath id="clip_15">
<path transform="matrix(1,0,0,-1,0,595.25)" d="M.000006251 0H419.5V595.25H.000006251Z" clip-rule="evenodd"/>
</clipPath>
<clipPath id="clip_16">
<path transform="matrix(1,0,0,-1,0,595.25)" d="M.000006251 0H419.5V595.25H.000006251Z" clip-rule="evenodd"/>
</clipPath>
<clipPath id="clip_17">
<path transform="matrix(1,0,0,-1,0,595.25)" d="M.000006251 0H419.5V595.25H.000006251Z" clip-rule="evenodd"/>
</clipPath>
<clipPath id="clip_18">
<path transform="matrix(1,0,0,-1,0,595.25)" d="M.000006251 0H419.5V595.25H.000006251Z" clip-rule="evenodd"/>
</clipPath>
<clipPath id="clip_19">
<path transform="matrix(1,0,0,-1,0,595.25)" d="M.000006251 0H419.5V595.25H.000006251Z" clip-rule="evenodd"/>
</clipPath>
<clipPath id="clip_20">
<path transform="matrix(1,0,0,-1,0,595.25)" d="M.000006251 0H419.5V595.25H.000006251Z" clip-rule="evenodd"/>
</clipPath>
<clipPath id="clip_21">
<path transform="matrix(1,0,0,-1,0,595.25)" d="M.000006251 0H419.5V595.25H.000006251Z" clip-rule="evenodd"/>
</clipPath>
<clipPath id="clip_22">
<path transform="matrix(1,0,0,-1,0,595.25)" d="M.000006251 0H419.5V595.25H.000006251Z" clip-rule="evenodd"/>
</clipPath>
<clipPath id="clip_23">
<path transform="matrix(1,0,0,-1,0,595.25)" d="M.000006251 0H419.5V595.25H.000006251Z" clip-rule="evenodd"/>
</clipPath>
<clipPath id="clip_24">
<path transform="matrix(1,0,0,-1,0,595.25)" d="M.000006251 0H419.5V595.25H.000006251Z" clip-rule="evenodd"/>
</clipPath>
<clipPath id="clip_25">
<path transform="matrix(1,0,0,-1,0,595.25)" d="M.000006251 0H419.5V595.25H.000006251Z" clip-rule="evenodd"/>
</clipPath>
<clipPath id="clip_26">
<path transform="matrix(1,0,0,-1,0,595.25)" d="M.000006251 0H419.5V595.25H.000006251Z" clip-rule="evenodd"/>
</clipPath>
<clipPath id="clip_27">
<path transform="matrix(1,0,0,-1,0,595.25)" d="M.000006251 0H419.5V595.25H.000006251Z" clip-rule="evenodd"/>
</clipPath>
<clipPath id="clip_28">
<path transform="matrix(1,0,0,-1,0,595.25)" d="M.000006251 0H419.5V595.25H.000006251Z" clip-rule="evenodd"/>
</clipPath>
<clipPath id="clip_29">
<path transform="matrix(1,0,0,-1,0,595.25)" d="M.000006251 0H419.5V595.25H.000006251Z" clip-rule="evenodd"/>
</clipPath>
<clipPath id="clip_30">
<path transform="matrix(1,0,0,-1,0,595.25)" d="M.000006251 0H419.5V595.25H.000006251Z" clip-rule="evenodd"/>
</clipPath>
<clipPath id="clip_31">
<path transform="matrix(1,0,0,-1,0,595.25)" d="M.000006251 0H419.5V595.25H.000006251Z" clip-rule="evenodd"/>
</clipPath>
<clipPath id="clip_32">
<path transform="matrix(1,0,0,-1,0,595.25)" d="M.000006251 0H419.5V595.25H.000006251Z" clip-rule="evenodd"/>
</clipPath>
<clipPath id="clip_33">
<path transform="matrix(1,0,0,-1,0,595.25)" d="M.000006251 0H419.5V595.25H.000006251Z" clip-rule="evenodd"/>
</clipPath>
<clipPath id="clip_34">
<path transform="matrix(1,0,0,-1,0,595.25)" d="M.000006251 0H419.5V595.25H.000006251Z" clip-rule="evenodd"/>
</clipPath>
<clipPath id="clip_35">
<path transform="matrix(1,0,0,-1,0,595.25)" d="M.000006251 0H419.5V595.25H.000006251Z" clip-rule="evenodd"/>
</clipPath>
<clipPath id="clip_36">
<path transform="matrix(1,0,0,-1,0,595.25)" d="M.000006251 0H419.5V595.25H.000006251Z" clip-rule="evenodd"/>
</clipPath>
<clipPath id="clip_37">
<path transform="matrix(1,0,0,-1,0,595.25)" d="M.000006251 0H419.5V595.25H.000006251Z" clip-rule="evenodd"/>
</clipPath>
<clipPath id="clip_38">
<path transform="matrix(1,0,0,-1,0,595.25)" d="M.000006251 0H419.5V595.25H.000006251Z" clip-rule="evenodd"/>
</clipPath>
<clipPath id="clip_39">
<path transform="matrix(1,0,0,-1,0,595.25)" d="M.000006251 0H419.5V595.25H.000006251Z" clip-rule="evenodd"/>
</clipPath>
<clipPath id="clip_40">
<path transform="matrix(1,0,0,-1,0,595.25)" d="M.000006251 0H419.5V595.25H.000006251Z" clip-rule="evenodd"/>
</clipPath>
<clipPath id="clip_41">
<path transform="matrix(1,0,0,-1,0,595.25)" d="M.000006251 0H419.5V595.25H.000006251Z" clip-rule="evenodd"/>
</clipPath>
<clipPath id="clip_42">
<path transform="matrix(1,0,0,-1,0,595.25)" d="M.000006251 0H419.5V595.25H.000006251Z" clip-rule="evenodd"/>
</clipPath>
<clipPath id="clip_43">
<path transform="matrix(1,0,0,-1,0,595.25)" d="M.000006251 0H419.5V595.25H.000006251Z" clip-rule="evenodd"/>
</clipPath>
<clipPath id="clip_44">
<path transform="matrix(1,0,0,-1,0,595.25)" d="M.000006251 0H419.5V595.25H.000006251Z" clip-rule="evenodd"/>
</clipPath>
<clipPath id="clip_45">
<path transform="matrix(1,0,0,-1,0,595.25)" d="M.000006251 0H419.5V595.25H.000006251Z" clip-rule="evenodd"/>
</clipPath>
<clipPath id="clip_46">
<path transform="matrix(1,0,0,-1,0,595.25)" d="M.000006251 0H419.5V595.25H.000006251Z" clip-rule="evenodd"/>
</clipPath>
<clipPath id="clip_47">
<path transform="matrix(1,0,0,-1,0,595.25)" d="M.000006251 0H419.5V595.25H.000006251Z" clip-rule="evenodd"/>
</clipPath>
<clipPath id="clip_48">
<path transform="matrix(1,0,0,-1,0,595.25)" d="M.000006251 0H419.5V595.25H.000006251Z" clip-rule="evenodd"/>
</clipPath>
<clipPath id="clip_49">
<path transform="matrix(1,0,0,-1,0,595.25)" d="M.000006251 0H419.5V595.25H.000006251Z" clip-rule="evenodd"/>
</clipPath>
<clipPath id="clip_50">
<path transform="matrix(1,0,0,-1,0,595.25)" d="M.000006251 0H419.5V595.25H.000006251Z" clip-rule="evenodd"/>
</clipPath>
<clipPath id="clip_51">
<path transform="matrix(1,0,0,-1,0,595.25)" d="M.000006251 0H419.5V595.25H.000006251Z" clip-rule="evenodd"/>
</clipPath>
<clipPath id="clip_52">
<path transform="matrix(1,0,0,-1,0,595.25)" d="M.000006251 0H419.5V595.25H.000006251Z" clip-rule="evenodd"/>
</clipPath>
<clipPath id="clip_53">
<path transform="matrix(1,0,0,-1,0,595.25)" d="M.000006251 0H419.5V595.25H.000006251Z" clip-rule="evenodd"/>
</clipPath>
<clipPath id="clip_54">
<path transform="matrix(1,0,0,-1,0,595.25)" d="M.000006251 0H419.5V595.25H.000006251Z" clip-rule="evenodd"/>
</clipPath>
<clipPath id="clip_55">
<path transform="matrix(1,0,0,-1,0,595.25)" d="M.000006251 0H419.5V595.25H.000006251Z" clip-rule="evenodd"/>
</clipPath>
<clipPath id="clip_56">
<path transform="matrix(1,0,0,-1,0,595.25)" d="M.000006251 0H419.5V595.25H.000006251Z" clip-rule="evenodd"/>
</clipPath>
<clipPath id="clip_57">
<path transform="matrix(1,0,0,-1,0,595.25)" d="M.000006251 0H419.5V595.25H.000006251Z" clip-rule="evenodd"/>
</clipPath>
<clipPath id="clip_58">
<path transform="matrix(1,0,0,-1,0,595.25)" d="M.000006251 0H419.5V595.25H.000006251Z" clip-rule="evenodd"/>
</clipPath>
<clipPath id="clip_59">
<path transform="matrix(1,0,0,-1,0,595.25)" d="M.000006251 0H419.5V595.25H.000006251Z" clip-rule="evenodd"/>
</clipPath>
</defs>
<g>
<g clip-path="url(#clip_1)">
<text xml:space="preserve" transform="matrix(1 0 -0 1 0 595.25)" font-size="11" font-family="Times New Roman"><tspan y="-548.97" x="358.45"> </tspan></text>
</g>
<g clip-path="url(#clip_2)">
</g>
<g clip-path="url(#clip_3)">
<g clip-path="url(#clip_4)">

</g>
<g clip-path="url(#clip_5)">
<text xml:space="preserve" transform="matrix(1 0 -0 1 0 595.25)" font-size="11" font-family="Times New Roman"><tspan y="-548.97" x="376.48"> </tspan></text>
</g>
</g>
<g clip-path="url(#clip_6)">
<text xml:space="preserve" transform="matrix(1 0 -0 1 0 595.25)" font-size="11" font-family="Times New Roman"><tspan y="-530.97" x="57.525 62.519 66.259 71.253009 73.75001 78.74401 83.02301 85.77301 90.73402 93.737018 99.237018 103.516017 108.47702 111.22702 114.23002 117.23302 122.73302 128.23302 133.73302 136.73603 141.01503 143.98503 146.98804 151.98204 156.97605 159.97905 162.98206 168.48206 171.23206 176.22606 180.50507 183.25507 188.75507 191.50507 196.46607 201.96607 207.46607 210.21607 215.71607 218.46607 225.71508 231.21508 234.95507 237.95807 243.45807 246.46108 251.96108 254.96408 259.95808 265.45808 269.73707 272.70707 277.70106 280.45106 288.43705 291.18705 293.68406 300.40507 303.15507 305.90507 311.93305 314.93608 323.4391 331.9421 336.2211 338.9711 346.9131 352.4131 357.9131">are as close linguistically as 1 and 2 Corinthians;&#x201d; A. E. Simms who </tspan></text>
</g>
<g clip-path="url(#clip_7)">
<text xml:space="preserve" transform="matrix(1 0 -0 1 0 595.25)" font-size="11" font-family="Times New Roman"><tspan y="-516.47" x="57.525 63.025 68.019008 76.522 82.022 87.522 91.801 94.771 98.51101 103.50501 106.50801 111.502017 117.002017 119.752017 122.75501 128.255 133.24901 136.25202 139.00202 144.50202 147.25202 152.24602 157.74602 163.24602 165.99602 171.49602 174.24602 180.24102 185.23502 187.98502 192.97902 196.71901 199.216 204.21 207.95 212.944 215.441 220.435 224.714 227.464 232.425 235.42801 240.92801 245.20702 250.16802 252.66501 257.659 263.159 268.659 271.409 274.41203 279.91203 284.906 287.656 291.935 296.896 302.143 305.883 310.635 313.385 318.885 322.625 325.375 333.361 338.861 342.60099 348.10099 352.37998">demonstrated that 1 and 2 Peter are as close &#x201c;on the score of words </tspan></text>
</g>
<g clip-path="url(#clip_8)">
<text xml:space="preserve" transform="matrix(1 0 -0 1 0 595.25)" font-size="11" font-family="Times New Roman"><tspan y="-501.95" x="57.525 63.025 67.304 72.26501 77.76501 82.75901 85.50901 90.50301 94.78201 97.53201 103.03201 105.50701 110.501018 116.001018 121.501018 124.251018 129.751 132.501 139.222 142.28 150.75 156.25 159.253 164.753 170.253 173.003 176.743 184.729 190.229 193.23201 198.22602 203.72602 206.47602 211.97602 216.97002 222.21701 227.21102 229.96102 234.95502 237.70502 243.20502 248.70502 251.70803 255.44802 258.198 263.192 268.692 271.442 276.43598 281.93598 284.939 290.439 295.939 299.43699 303.17698 306.18 308.93 313.92399 319.42399 324.92399 327.67399 331.41398 334.417 339.917 344.91099 347.914 350.91703 356.41703 359.16703 367.153 369.903">used&#x201d; as 1 and 2 Timothy (which have a unified author); and finally A. </tspan></text>
</g>
<g clip-path="url(#clip_9)">
<text xml:space="preserve" transform="matrix(1 0 -0 1 0 595.25)" font-size="11" font-family="Times New Roman"><tspan y="-487.2" x="57.525 65.511 68.261 71.011 80.79 86.29 89.997 93 98.5 104 106.75 114.736 120.236 125.736 128.486 136.472 140.21199 145.71199 148.715 153.709 156.459 159.462 164.709 169.703 172.70601 175.45601 180.45001 184.19 187.93 193.43 201.933 204.43 209.424 214.924 223.427 228.927 231.93001 236.92401 239.92702 242.93003 248.43003 253.42403 256.174 260.453 265.953 274.423 277.173 282.167">Q. Morton who wrote that &#x201c;from cumulative sum an</tspan></text>
</g>
<g clip-path="url(#clip_10)">
<text xml:space="preserve" transform="matrix(1 0 -0 1 0 595.25)" font-size="11" font-family="Times New Roman"><tspan y="-487.2" x="287.92 292.914 295.91703 301.41703 305.696 308.66603 312.67 315.42 320.92 326.42 329.17 332.17304 337.67304 342.66703">alysis on the </tspan></text>
</g>
<g clip-path="url(#clip_11)">
<text xml:space="preserve" transform="matrix(1 0 -0 1 0 595.25)" font-size="11" font-family="Times New Roman"><tspan y="-472.7" x="57.525 62.519 68.019 76.521999 82.021999 87.521999 90.524997 95.519 99.259 110.259 115.759 118.509 123.503009 129.003 134.503 137.253 142.753 145.503 151.498 156.492 159.242 164.23601 167.976 170.726 175.478 179.21799 184.21199 186.96199 189.965 195.465 200.965 203.968 208.24701 211.21701 214.22002 219.72002 225.22002 230.72002 233.72303 238.00203 243.50203 248.46303 253.96303 256.96604 261.96003 264.71003 267.71305 270.71607 276.21607 281.71607 287.21607 290.2191 294.49809 297.46809 300.4711 305.4651 310.45909 313.4621 316.46513 321.96513 325.7051 330.6991 333.4491 337.1891 345.17509 348.67308 353.66706 358.66105 364.16105 366.91105">computer&#x2026;1 and 2 Peter are indistinguishable linguistically&#x2019;&#x201d; (Green, </tspan></text>
</g>
<g clip-path="url(#clip_12)">
<text xml:space="preserve" transform="matrix(1 0 -0 1 0 595.25)" font-size="11" font-family="Times New Roman"><tspan y="-458.2" x="57.525 63.025 68.525 74.025 79.525 82.275 85.025 90.525 96.025 98.775 101.525 107.025">1987, pp. 24</tspan></text>
</g>
<g clip-path="url(#clip_13)">
<text xml:space="preserve" transform="matrix(1 0 -0 1 0 595.25)" font-size="11" font-family="Times New Roman"><tspan y="-458.2" x="112.57">-</tspan></text>
</g>
<g clip-path="url(#clip_14)">
<text xml:space="preserve" transform="matrix(1 0 -0 1 0 595.25)" font-size="11" font-family="Times New Roman"><tspan y="-458.2" x="116.33 121.83 125.57001">5).</tspan></text>
</g>
<g clip-path="url(#clip_15)">
<text xml:space="preserve" transform="matrix(1 0 -0 1 0 595.25)" font-size="11" font-family="Times New Roman"><tspan y="-458.2" x="128.08"> </tspan></text>
</g>
<g clip-path="url(#clip_16)">
<text xml:space="preserve" transform="matrix(1 0 -0 1 0 595.25)" font-size="11" font-family="Times New Roman"><tspan y="-443.67" x="93.55 97.829 103.329 107.553 112.547008 118.047008 123.547008 126.297008 136.076 141.037 146.537 152.037 155.777 158.527 161.53 164.533 168.81201 171.78202 176.06102 178.81102 184.31102 187.06102 192.02202 197.52202 206.02503 211.52503 215.26502 220.25902 225.50601 230.50002 236.00002 240.27902 243.24903 248.74903 253.74303 256.49305 261.48704 266.73405 271.72804 275.46803 278.47105 282.75004 285.50004 291.00004 294.70704 297.45704 300.46006 305.96006 310.95405 313.70405 321.459 325.199 329.95103 334.945 340.445 342.94203 350.928 356.428 360.168 365.668 369.947">Joseph Mayor lists 3 comprehensive charts of the Greek words </tspan></text>
</g>
<g clip-path="url(#clip_17)">
<text xml:space="preserve" transform="matrix(1 0 -0 1 0 595.25)" font-size="11" font-family="Times New Roman"><tspan y="-429.17" x="57.525 60.528 66.028 71.022 74.025 76.775 81.769008 85.50901 90.50301 93.25301 98.75301 102.75701 107.751018 113.251018 116.001018 119.00401 124.50401 127.25401 132.75402 138.25402 141.25702 146.75702 149.50702 155.00702 157.75702 162.75102 168.25102 173.75102 176.50102 182.00102 184.75102 190.74602 195.74002 198.74303 203.73703 207.47702 210.22702 212.97702 218.47702 223.97702 226.98003 232.48003 235.23003 238.23303 243.73303 246.48303 251.98303 254.73303 260.72804 265.72203 268.72505 273.71903 277.459 280.209 282.70603 287.7 293.2 298.7 301.45 306.95 312.19703 315.20005 320.70005 323.45005 326.45307 331.95307 334.70307 340.20307 342.95307 348.94807 353.94206 356.94508 361.93907 365.67906 368.42906">that are used in both 1 and 2 Peter, only in 1 Peter, and only in 2 Peter. </tspan></text>
</g>
<g clip-path="url(#clip_18)">
<text xml:space="preserve" transform="matrix(1 0 -0 1 0 595.25)" font-size="11" font-family="Times New Roman"><tspan y="-414.67" x="57.525 63.520006 69.020008 72.76001 75.51001 83.49601 88.99601 92.736019 98.236019 102.515018 105.265018 110.765018 114.98901 119.98302 125.48302 128.23302 131.23603 136.73603 139.48603 144.98603 150.48603 153.48903 158.98903 161.73903 164.74204 169.73604 172.73905 175.74205 180.73606 184.47605 188.75505 191.50505 194.25505 199.75505 204.71605 207.46605 210.46906 215.96906 218.97206 223.96607 226.96907 231.24808 233.99808 239.49808 244.99808 250.49808 253.24808 255.99808 261.97108 267.47108 271.21107 273.96107 281.94706 287.44706 291.18705 296.68705 300.96604 303.71604 309.21604 313.187 318.181 323.681 326.431 331.931 337.431 340.43403 345.93403 348.68403 351.68705 357.18705 359.93705 365.43705">For words used in both letters, he totals 100. For words used only in 1 </tspan></text>
</g>
<g clip-path="url(#clip_19)">
<text xml:space="preserve" transform="matrix(1 0 -0 1 0 595.25)" font-size="11" font-family="Times New Roman"><tspan y="-399.92" x="57.525 63.520006 68.51401 71.517009 76.51101 80.251018 83.001018 85.751018 91.251018 96.24502 98.99502 104.49502 109.99502 112.99802 117.99202 122.27102 124.74602 129.74002 132.49002 135.49303 140.99303 143.99604 148.99004 151.99304 154.74304 160.24304 163.98303 166.73303 172.23303 177.73303 183.23303 185.98303 189.72303 195.22303 200.72303 203.22002 208.21402 211.95401 216.94802">Peter, he notes a total of 369 (59 are </tspan></text>
</g>
<g clip-path="url(#clip_20)">
<text xml:space="preserve" transform="matrix(1 0 -0 1 0 595.25)" font-size="11" font-family="Times New Roman" font-style="italic"><tspan y="-399.92" x="219.88 225.38 230.88 236.38 241.627 246.621 249.371 252.37401 257.36799 262.86799 268.36799 276.12297 281.11695 286.61695">hapax legomena</tspan></text>
</g>
<g clip-path="url(#clip_21)">
<text xml:space="preserve" transform="matrix(1 0 -0 1 0 595.25)" font-size="11" font-family="Times New Roman"><tspan y="-399.92" x="292.18"> </tspan></text>
</g>
<g clip-path="url(#clip_22)">
<text xml:space="preserve" transform="matrix(1 0 -0 1 0 595.25)" font-size="11" font-family="Times New Roman"><tspan y="-399.92" x="294.92 298.66 306.41499 309.91297 314.90696 319.90095 325.40095 328.15095 336.13694 341.38395 345.12394 350.62394 354.90293">(Greek words </tspan></text>
</g>
<g clip-path="url(#clip_23)">
<text xml:space="preserve" transform="matrix(1 0 -0 1 0 595.25)" font-size="11" font-family="Times New Roman"><tspan y="-385.4" x="57.525 63.025 68.525 71.528 77.028 79.778 83.518009 89.018009 94.518009 100.018009 105.518009 108.268009 113.768009 118.76201 122.502017 127.49602 130.24602 133.24903 138.74903 141.49903 144.50203 150.00203 154.99604 157.49303 165.47904 172.20003 175.97303 179.71302 182.46302 185.21302 191.20801 196.70801 200.448 202.94499 210.931 216.431 220.17099 225.67099 229.95 232.7 238.2 242.42401 247.41802 252.91802 255.66802 261.16804 266.66804 269.67106 275.17106 277.92106 280.92408 286.42408 289.17408 294.67408 297.42408 303.41908 308.41307 311.41609 316.41007 320.15007 322.90007 325.65007 331.15007 336.14405 338.89405 344.39405 349.89405 352.64405 357.63804 361.91703">only found here in the NT)). For words used only in 2 Peter, he notes </tspan></text>
</g>
<g clip-path="url(#clip_24)">
<text xml:space="preserve" transform="matrix(1 0 -0 1 0 595.25)" font-size="11" font-family="Times New Roman"><tspan y="-370.9" x="57.525 63.025 68.525 74.025 76.775 80.51501 86.01501 91.51501 94.26501 99.25901 102.75701 107.751018">230 (56 are </tspan></text>
</g>
<g clip-path="url(#clip_25)">
<text xml:space="preserve" transform="matrix(1 0 -0 1 0 595.25)" font-size="11" font-family="Times New Roman" font-style="italic"><tspan y="-370.9" x="110.57 116.07 121.57 127.07 132.57 137.56401 140.31401 143.31702 148.31102 153.81102 159.05802 167.04402 172.03803 177.53803">hapax legomena</tspan></text>
</g>
<g clip-path="url(#clip_26)">
<text xml:space="preserve" transform="matrix(1 0 -0 1 0 595.25)" font-size="11" font-family="Times New Roman"><tspan y="-370.9" x="183.1 186.84 189.59 192.08699 198.80799 204.30799 209.32399 212.07399 215.81398 218.81699 224.06398 229.05799 232.06099 234.81099 239.805 245.305 250.805 256.305 259.308 262.058 265.06105 269.34004 272.09004 277.59004 283.09004 288.59004 291.34004 299.282 304.782 308.31303 313.81303 318.092 320.842 326.342 330.566 335.56 341.06 343.81 346.81303 352.31303 355.06303 360.56303 366.06303 369.06605 374.56605">). The final count is 100 words used in both </tspan></text>
</g>
<g clip-path="url(#clip_27)">
<text xml:space="preserve" transform="matrix(1 0 -0 1 0 595.25)" font-size="11" font-family="Times New Roman"><tspan y="-356.4" x="57.525 62.519 68.019 73.519 76.269 81.769 87.269 92.769 95.519 98.521999 104.021999 109.016 112.019 114.769 119.763 123.261 128.255 131.005 136.505 142.005 145.00801 147.75801 151.498 161.27701 166.238 171.738 176.985 180.72499 183.47499 186.22499 191.72499 197.22499 202.72499 208.22499 210.97499 213.72499 219.22499 224.72499 227.47499 230.22499 233.228 238.728 241.731">and 599 that are not (Mayor, 1907, pp. lxix</tspan></text>
</g>
<g clip-path="url(#clip_28)">
<text xml:space="preserve" transform="matrix(1 0 -0 1 0 595.25)" font-size="11" font-family="Times New Roman"><tspan y="-356.4" x="247.4">-</tspan></text>
</g>
<g clip-path="url(#clip_29)">
<text xml:space="preserve" transform="matrix(1 0 -0 1 0 595.25)" font-size="11" font-family="Times New Roman"><tspan y="-356.4" x="251.15 254.153 259.653 265.153 268.15605 273.65605 277.39604 280.14604 282.89604 292.67503 297.63603 303.13603 308.63603 312.134 314.884 319.878 325.378 330.878 335.87199 338.875 344.375 349.875 354.869 359.14799">lxxiv). Mayor concludes </tspan></text>
</g>
<g clip-path="url(#clip_30)">
<text xml:space="preserve" transform="matrix(1 0 -0 1 0 595.25)" font-size="11" font-family="Times New Roman"><tspan y="-341.9" x="57.525 60.528 66.028 71.022 74.025 76.775 81.769008 88.490009 93.990009 99.00601 101.75601 109.51102 113.25102 118.00302 122.997028 128.49703 131.24703 136.74703 140.48702 143.23702 146.24002 151.74002 156.73403 159.48403 164.98403 170.23102 175.22502 177.97502 180.97803 185.25704 188.00704 193.50704 199.00704 201.97704 204.72704 210.22704 215.72704 218.47704 221.48004 226.98004 231.97405 234.72405 239.00305 243.96405 252.46706 257.46104 260.21104 265.71104 270.70503 276.20503 281.70503 284.20204 289.196 293.475 296.225 299.195 304.695 309.689 312.186 320.172 323.912 328.664 333.658 339.158 341.908 347.408 351.14799 353.89799 356.901 362.401 367.395">that &#x201c;The Greek of the one is not by the same hand as the Greek of the </tspan></text>
</g>
<g clip-path="url(#clip_31)">
<text xml:space="preserve" transform="matrix(1 0 -0 1 0 595.25)" font-size="11" font-family="Times New Roman"><tspan y="-327.13" x="57.525 63.025 66.028 71.528 76.522 80.26201 85.25601 88.00601 91.74602 101.250019 106.24402 111.74402 117.24402 120.984027 123.734027 126.484027 131.98403 137.48403 142.98403 148.48403 151.23403 153.98403 156.98703 162.48703 167.98703 170.99004 176.49004 180.23003 182.98003 185.73003 193.71604 199.21604 206.97104 211.96504 217.46504 222.21704 225.95703 228.70703 231.45703 236.45104 240.73004 243.48004 248.98004 254.48004 257.45005 262.44404 267.94404 270.69404 275.94105 280.93504 284.67503 289.92204 293.66203 298.656 301.406 304.156 308.90803 312.406 315.40904 320.403 324.143 326.893 331.887 334.384 339.378 344.878 353.381 358.881 361.88404 366.87803 369.88105 374.87504">other&#x201d; (Mayor, 1907, lxxiv). However, as noted before, after a complete </tspan></text>
</g>
<g clip-path="url(#clip_32)">
<text xml:space="preserve" transform="matrix(1 0 -0 1 0 595.25)" font-size="11" font-family="Times New Roman"><tspan y="-312.63" x="57.525 62.519 68.019 73.013 76.016 81.516 85.795 88.765 93.044 95.794 101.294 105.001 107.751 110.754 116.254 121.248 123.998 131.98401 135.48201 140.47602 145.47002 150.97002 153.72002 158.96701 162.707 165.457 170.957 176.457 179.46 184.96 187.71 190.71302 195.70702 198.71002 201.71303 206.70703 210.44702 214.72603 217.47603 220.22603 229.95005 234.94405 240.44405 245.69104 249.43103 252.18103 257.68104 263.18104 266.18406 271.17805 275.45704 278.20704 281.17704 286.67704 291.67103 294.67405 297.42405 300.42707 305.92707 310.67909 316.17909 318.92909 323.92308 327.66307 332.65705 335.40705 343.91007 349.41007 352.90806 357.90205">analysis of the Greek of both letters, Mayor notes that they are more </tspan></text>
</g>
<g clip-path="url(#clip_33)">
<text xml:space="preserve" transform="matrix(1 0 -0 1 0 595.25)" font-size="11" font-family="Times New Roman"><tspan y="-298.13" x="57.525 61.804 64.774 73.277 76.28 79.283 84.277 88.017009 90.767009 93.770008 99.270008 104.26401 109.76401 112.51401 116.79301 122.29301 130.76302 135.75702 138.76003 141.76303 150.26604 155.26004 159.53905 162.28905 166.51306 169.51607 174.51007 177.51308 182.50708 188.00708 190.75708 194.49707 198.77608 203.73708 208.73108 211.48108 216.98108 222.48108 227.98108 230.73108 235.72509 238.47509 243.97509 249.47509 252.22509 257.7251 261.4651 266.45909 271.95909 274.9621 280.4621 285.9621 290.2411 292.9911 298.2161 303.21009 306.95008 311.7021 317.2021 320.94209 325.93608 331.43608 336.93608 340.67607">similar than sometimes stated (see quote on previous paragraph).</tspan></text>
</g>
<g clip-path="url(#clip_34)">
<text xml:space="preserve" transform="matrix(1 0 -0 1 0 595.25)" font-size="11" font-family="Times New Roman"><tspan y="-298.13" x="343.45"> </tspan></text>
</g>
<g clip-path="url(#clip_35)">
<text xml:space="preserve" transform="matrix(1 0 -0 1 0 595.25)" font-size="11" font-family="Times New Roman" font-weight="bold" font-style="italic"><tspan y="-271.63" x="75.55 79.8 84.05">II.</tspan></text>
</g>
<g clip-path="url(#clip_36)">
<text xml:space="preserve" transform="matrix(1 0 -0 1 0 595.25)" font-size="11" font-family="Arial" font-weight="bold" font-style="italic"><tspan y="-271.63" x="86.8"> </tspan></text>
</g>
<g clip-path="url(#clip_37)">
<text xml:space="preserve" transform="matrix(1 0 -0 1 0 595.25)" font-size="11" font-family="Times New Roman" font-weight="bold" font-style="italic"><tspan y="-271.63" x="111.58 117.575 122.569 127.563 133.063 139.058 144.558 147.308 154.02899 159.045 162.048 167.042">Second Peter</tspan></text>
</g>
<g clip-path="url(#clip_38)">
<text xml:space="preserve" transform="matrix(1 0 -0 1 0 595.25)" font-size="11" font-family="Times New Roman" font-weight="bold" font-style="italic"><tspan y="-271.63" x="171.1"> </tspan></text>
</g>
<g clip-path="url(#clip_39)">
<text xml:space="preserve" transform="matrix(1 0 -0 1 0 595.25)" font-size="11" font-family="Times New Roman"><tspan y="-249.1" x="57.525 64.774 67.777 72.771 78.271 83.26501 87.00501 92.50501 95.25501 102.50401 107.49802 112.99802 117.99202 123.49202 128.73902 133.73302 142.23603 144.98603 149.26503 152.23503 157.22904 160.23204 165.22605 169.50505 172.25505 175.22505 180.72505 185.71906 188.72206 191.47206 196.97206 199.72206 205.71706 210.71106 213.71407 218.70807 222.44806 224.94506 229.93906 238.44207 243.94207 248.22107 251.19107 253.94107 259.44108 264.43507 267.18507 270.68305 275.67704 278.68006 283.67405 286.67707 291.67106 297.17106 299.92106 302.92408 308.42408 310.92109 313.9241 319.4241 324.4181 327.1681 330.90809 338.89408 343.17308 346.14308 351.13706 354.14009 357.1431 362.1371 365.87709">Richard Bauckham states that 2 Peter &#x201c;must be related to the &#x2018;Asiatic&#x2019; </tspan></text>
</g>
<g clip-path="url(#clip_40)">
<text xml:space="preserve" transform="matrix(1 0 -0 1 0 595.25)" font-size="11" font-family="Times New Roman"><tspan y="-234.35" x="57.525 61.804 64.774 70.274 73.277 78.271 81.021 86.521 90.26101 93.01101 100.99701 104.737018 109.48901 114.48302 119.98302 122.73302 126.47302 131.72002 136.71402 139.71703 145.21703 148.95702 151.96002 156.95403 159.70403 167.69004 173.19004 176.19304 181.18704 186.68704 189.18404 197.17005 202.16405 206.44306 209.19306 214.15406 219.65406 228.15706 231.16007 236.66007 242.16007 244.91007 247.91307 253.41307 256.41609 261.91609 264.66609 268.40608 273.40007 277.67906 283.17906 286.14906 291.64906 297.14906 299.89906 302.90208 308.40208 310.89909 316.39909 319.14909 325.14408 330.13807 333.14109 338.13508 341.87507 345.61506 349.89405">style of Greek rhetoric which was coming into fashion in 2 Peter&#x2019;s </tspan></text>
</g>
<g clip-path="url(#clip_41)">
<text xml:space="preserve" transform="matrix(1 0 -0 1 0 595.25)" font-size="11" font-family="Times New Roman"><tspan y="-219.85" x="57.525 60.528 63.531 72.034 77.028 88.028 96.014 99.017 102.02 107.52 110.27 113.272998 116.27599 120.55499 123.30499 126.274997 131.775 137.275 142.269 145.019 150.519 154.25899 157.00899 162.50899 165.512 171.012">time&#x2026;with its love of high</tspan></text>
</g>
<g clip-path="url(#clip_42)">
<text xml:space="preserve" transform="matrix(1 0 -0 1 0 595.25)" font-size="11" font-family="Times New Roman"><tspan y="-219.85" x="176.6">-</tspan></text>
</g>
<g clip-path="url(#clip_43)">
<text xml:space="preserve" transform="matrix(1 0 -0 1 0 595.25)" font-size="11" font-family="Times New Roman"><tspan y="-219.85" x="180.35 184.62902 190.12902 195.62902 201.12902 206.62902 209.59902 215.09902 220.59902 223.34902 228.34302 233.84302 239.34302 243.08301 248.07701 252.35602 256.58003 259.58305 265.08305 270.58305 274.86204 277.61204 280.36204 284.06904 287.07206 292.57206 296.31205 299.31507 304.81507 307.56507 312.31709 317.81709 323.31709 326.06709 331.56709 336.56108 340.30107 345.80107 351.30107 355.58006 360.54106">sounding expressions, florid and verbose </tspan></text>
</g>
<g clip-path="url(#clip_44)">
<text xml:space="preserve" transform="matrix(1 0 -0 1 0 595.25)" font-size="11" font-family="Times New Roman"><tspan y="-205.32" x="57.525 60.528 65.522 71.022 76.522 82.022 87.01601 92.51601 97.51001 100.26001 102.75701 107.751018 113.251018 118.751018 121.501018 126.49502 129.49803 134.49204 139.99204 145.23903 148.97902 153.97303 156.97603 161.97003 164.72003 167.72304 170.72605 173.72905 178.48105 182.22104 187.21504 190.95503 196.45503 198.95203 203.94603 207.44403 211.18402 215.93602 220.93003 223.93303 228.21204 233.17304 235.92304 239.66303 246.91204 251.90604 257.15306 262.14704 267.64704 273.14704">language, and elaborate literary effects&#x201d; (Bauckha</tspan></text>
</g>
<g clip-path="url(#clip_45)">
<text xml:space="preserve" transform="matrix(1 0 -0 1 0 595.25)" font-size="11" font-family="Times New Roman"><tspan y="-205.32" x="278.42 286.92304 289.67304 292.42304 297.92304 303.42304 308.67005 314.17005 316.92005 319.67005 325.17005 327.92005 330.67005 336.17005 341.67005 347.17005 350.91004 353.66004">m, 1983, p. 137). </tspan></text>
</g>
<g clip-path="url(#clip_46)">
<text xml:space="preserve" transform="matrix(1 0 -0 1 0 595.25)" font-size="11" font-family="Times New Roman"><tspan y="-190.83" x="57.525 64.774 69.768009 75.268009 80.26201 85.76201 91.26201 96.25601 104.75901 107.50901 113.00901 118.50901 123.50301 127.78201 130.75202 133.75502 139.25502 144.75502 149.03403 151.78403 154.75403 158.49402 161.24402 164.24703 169.74703 174.74103 178.23903 183.23303 185.98303 190.73503 194.47502 199.46903 201.96602 206.96002 212.46002 217.96002 220.71002 225.70403 230.95102 235.94503 241.44503 246.94503 249.94803 255.44803 260.44203">Bauckham questions if there are any &#x201c;genuine </tspan></text>
</g>
<g clip-path="url(#clip_47)">
<text xml:space="preserve" transform="matrix(1 0 -0 1 0 595.25)" font-size="11" font-family="Times New Roman"><tspan y="-190.83" x="263.4">m</tspan></text>
</g>
<g clip-path="url(#clip_48)">
<text xml:space="preserve" transform="matrix(1 0 -0 1 0 595.25)" font-size="11" font-family="Times New Roman"><tspan y="-190.83" x="271.9 280.403 284.682 289.643 292.393 296.133 303.382 308.134 313.634 318.628 324.128 329.628 334.62199 343.125 345.875 348.625 354.125 359.625 365.125 370.625 373.375">ms&#x201d; (Bauckham, 1983, </tspan></text>
</g>
<g clip-path="url(#clip_49)">
<text xml:space="preserve" transform="matrix(1 0 -0 1 0 595.25)" font-size="11" font-family="Times New Roman"><tspan y="-176.33" x="57.525 63.025 65.775 68.525 74.025 79.525 85.025 88.76501 91.51501 94.26501 102.25101 107.75101 115.73701 120.73101 125.97801 130.97202 134.712 137.462 142.709 147.703 150.453 155.447 160.947 166.447 171.44101 174.44402 179.94402 185.19101 190.18502 194.46402 197.21402 200.18402 205.68402 210.67803 213.68103 216.43103 221.18303 226.17704 228.92704 234.42704 239.42104 242.42404 245.42705 250.92705 255.92105 258.67106 264.66606 269.66004 278.16307 281.16609 284.1691 287.17213 292.1661 294.9161 299.1951 304.6951 309.4141 314.40809 319.90809 324.90208 328.64207 331.13908 336.13307 341.12705 346.62705 352.12705 357.62705 360.63008 363.38008 368.88008 373.87406">p. 138). However he concludes that &#x201c;a native Semitic speaker cannot be </tspan></text>
</g>
<g clip-path="url(#clip_50)">
<text xml:space="preserve" transform="matrix(1 0 -0 1 0 595.25)" font-size="11" font-family="Times New Roman"><tspan y="-161.83" x="57.525 61.265005 66.765 69.768 74.762 80.262 83.012 88.512 94.012 97.015 102.009 104.759 110.259 115.759 118.762 121.512 125.791 131.291 136.791 142.291 147.252 151.531 154.501 158.78002 161.53002 166.49102 171.99102 177.49102 180.49402 185.99402 190.74602 194.48601 197.23601 202.73601 208.23601 212.51502 216.73903 219.74204 225.24204 228.24504 231.24805 234.25106 237.25406 242.75406 245.50406 248.50707 252.78607 255.53607 260.49708 265.49107 268.24107 273.74107 278.73506 281.73808 284.7411 290.2411 295.23509 297.98509 304.7061 309.72209 312.47209 315.4751 320.9751 323.7251 328.0041 333.5041 338.4651 343.45909 348.95909 353.95307 357.45106 362.44505">ruled out&#x201d; but suggests another possibility is &#x201c;a native Latin speaker&#x201d; </tspan></text>
</g>
<g clip-path="url(#clip_51)">
<text xml:space="preserve" transform="matrix(1 0 -0 1 0 595.25)" font-size="11" font-family="Times New Roman"><tspan y="-147.05" x="57.525 61.265005 68.51401 73.50801 79.00801 84.002017 89.502017 95.002017 99.99602 108.499019 111.249019 113.999019 119.499019 124.999019 130.49903 135.99903 138.74903 141.49903 146.99903 149.74903 152.49903 157.99903 163.49903 168.74602 172.48601">(Bauckham, 1983, p. 138).</tspan></text>
</g>
<g clip-path="url(#clip_52)">
<text xml:space="preserve" transform="matrix(1 0 -0 1 0 595.25)" font-size="11" font-family="Times New Roman"><tspan y="-147.05" x="175.1"> </tspan></text>
</g>
<g clip-path="url(#clip_53)">
<text xml:space="preserve" transform="matrix(1 0 -0 1 0 595.25)" font-size="11" font-family="Times New Roman"><tspan y="-132.55" x="93.55 100.799 105.79301 111.29301 116.28701 121.78701 127.28701 132.281 140.78401 143.53401 148.52802 151.53102 155.81003 161.31003 164.06003 169.02103 174.52103 183.02404 188.27103 193.26503 197.00502 201.99903 206.27803 209.02803 214.52803 217.27803 223.25102 228.24503 230.99503 235.98903 239.72902 243.46901 247.74802 250.49802 258.22 261.96 266.712 271.706 277.206 279.956 287.942 290.945 293.94804 299.44804 302.19804 307.69804 310.44804 316.44303 321.437 324.44004 329.43403 333.174 336.914 341.193 343.943 346.418 354.92103 360.42103 365.415 370.915">Bauckham also compares 2 Peter&#x2019;s Greek with 1 Peter&#x2019;s, much </tspan></text>
</g>
<g clip-path="url(#clip_54)">
<text xml:space="preserve" transform="matrix(1 0 -0 1 0 595.25)" font-size="11" font-family="Times New Roman"><tspan y="-118.05" x="57.525 60.528 63.531 69.031 74.025 76.775 86.554 91.51501 97.01501 102.51501 106.25501 109.00501 111.75501 119.74101 124.735019 127.485019 131.76403 134.48102 139.47502 142.47803 147.47203 151.75104 154.50104 162.44304 167.94304 171.00104 175.96204 184.46504 189.45905 192.46205 196.74106 199.71106 204.46306 208.20305 211.94304 216.22205 218.97205 224.47205 229.19106 232.93105 237.68305 242.67705 248.17705 251.18006 256.17405 261.67405 266.66804 270.94703 273.91703 276.66703 281.661 287.161 292.661 295.411 300.911 303.661 308.90803 313.902 317.642 322.394 327.388 332.888 335.89103 338.64103 342.381 347.881 351.621">like Mayor. He states Holzmeister&#x2019;s percentages: &#x201c;38.6 percent [of </tspan></text>
</g>
<g clip-path="url(#clip_55)">
<text xml:space="preserve" transform="matrix(1 0 -0 1 0 595.25)" font-size="11" font-family="Times New Roman"><tspan y="-103.55" x="57.525 65.511 71.011 74.75101 80.25101 84.53001 87.28001 92.78001 97.004009 101.99801 107.49801 110.24801 113.25101 118.75101 121.50101 127.00101 129.751 135.746 140.74 143.74301 148.73702 152.23502 155.975 158.725 163.71901 167.21701 172.21102 174.96102 179.95502 185.45502 193.95803 202.46103 207.96103 213.46103 216.21103 219.21404 224.71404 227.46404 232.96404 235.71404 240.70804 246.20804 251.70804 254.45804 259.95805 262.70805 268.70304 273.69703 276.70005 281.45207 285.19206 287.94206 290.69206 296.19206 301.69206 304.44206 309.94206 312.43907 317.93907 322.93305 326.67304 331.42506 336.41905 341.91905 344.92207">words used in 2 Peter] are common to 1 and 2 Peter, 61.4 percent </tspan></text>
</g>
<g clip-path="url(#clip_56)">
<text xml:space="preserve" transform="matrix(1 0 -0 1 0 595.25)" font-size="11" font-family="Times New Roman"><tspan y="-89.05" x="57.525 63.025 68.019008 73.01301 78.51301 81.51601 84.519008 89.51301 93.25301 96.00301 99.00601 104.50601 107.25601 112.75601 115.50601 121.50101 126.49501 129.49802 134.25002 137.99 140.74 143.49 151.47602 156.97602 159.97902 162.98203 167.97603 178.97603 181.97904 187.47904 192.47304 195.22304 203.20905 208.45604 212.19603 217.69603 221.97504 224.72504 230.22504 234.44905 239.44306 244.94306 247.69306 250.69606 256.19606 258.94606 264.44606 267.19606 273.19105 278.18504 281.18806 286.18205 289.92204 300.92204 306.42204 311.66905 314.41905 319.91905 322.66905 328.16905 333.16304 336.903 341.65504 346.64903">peculiar to 2 Peter, while&#x2026;the words used in 1 Peter&#x2026;28.4 percen</tspan></text>
</g>
<g clip-path="url(#clip_57)">
<text xml:space="preserve" transform="matrix(1 0 -0 1 0 595.25)" font-size="11" font-family="Times New Roman"><tspan y="-89.05" x="352.45 355.45304 358.20304 363.19703 366.695 371.689">t are </tspan></text>
</g>
<g clip-path="url(#clip_58)">
<text xml:space="preserve" transform="matrix(1 0 -0 1 0 595.25)" font-size="11" font-family="Times New Roman"><tspan y="-74.275" x="57.525 62.519 68.019 76.521999 85.024997 90.524997 96.024997 98.774997 101.77799 107.27799 110.02799 115.52799 118.27799 123.271999 128.772 134.272 137.022 142.522 145.272 151.267 156.261 159.264 164.25801 167.998 170.748 173.498 176.996 181.99 187.49 192.99 196.73 199.48 204.98 210.48 213.23 218.73 221.48 226.98 231.732 235.47199 240.22399 245.21799 250.71799 253.721 256.471 261.971 266.72303 271.717 277.217 280.22004 283.22306 288.21705 291.95704 294.70704 297.71006 303.21006 305.96006 311.20707 313.95707 319.95207 324.94606 327.94908 332.94306 336.68305 341.67704">common to 1 and 2 Peter, [and] 71.6 percent peculiar to 1 Peter&#x201d; </tspan></text>
</g>
<g clip-path="url(#clip_59)">
<text xml:space="preserve" transform="matrix(1 0 -0 1 0 595.25)" font-size="11" font-family="Times New Roman"><tspan y="-59.775" x="57.525 61.265005 68.51401 73.50801 79.00801 84.002017 89.502017 95.002017 99.99602 108.499019 111.249019 113.999019 119.499019 124.999019 130.49903 135.99903 138.74903 141.49903 146.99903 149.74903 152.49903 157.99903 163.49903 168.74602 172.48601 175.23601 177.98601 183.48601 186.23601 191.23001 196.73001 202.23001 204.98001 210.48001 213.23001 219.225 224.21901 227.22202 231.97402 235.714 238.464 243.964 249.464 252.46701 257.967 260.717 266.217 271.211 276.711 281.705 284.202 289.19599 291.94599 294.949 299.943 303.68299 308.93 313.92399 316.67399 322.17399 327.67399 336.177 341.677 346.671 350.41099 353.16099 358.66099 362.40098">(Bauckham, 1983, p. 144). 1 and 2 Peter both have a large number of </tspan></text>
</g>
</g>
</svg>
