<svg class="pg-svg" xmlns="http://www.w3.org/2000/svg" xmlns:xlink="http://www.w3.org/1999/xlink" xmlns:inkscape="http://www.inkscape.org/namespaces/inkscape" version="1.1" width="419.5" height="595.25" viewBox="0 0 419.5 595.25">
<defs>
<clipPath id="clip_1">
<path transform="matrix(1,0,0,-1,0,595.25)" d="M.000006251 0H419.5V595.25H.000006251Z" clip-rule="evenodd"/>
</clipPath>
<clipPath id="clip_2">
<path transform="matrix(1,0,0,-1,0,595.25)" d="M.000006251 0H419.5V595.25H.000006251Z" clip-rule="evenodd"/>
</clipPath>
<clipPath id="clip_3">
<path transform="matrix(1,0,0,-1,0,595.25)" d="M365.48 546.47H376.48V559.22H365.48Z" clip-rule="evenodd"/>
</clipPath>
<clipPath id="clip_4">
<path transform="matrix(1,0,0,-1,0,595.25)" d="M365.48 546.47H376.48V559.22H365.48Z" clip-rule="evenodd"/>
</clipPath>
<clipPath id="clip_5">
<path transform="matrix(1,0,0,-1,0,595.25)" d="M365.48 546.47H376.48V559.22H365.48Z" clip-rule="evenodd"/>
</clipPath>
<clipPath id="clip_6">
<path transform="matrix(1,0,0,-1,0,595.25)" d="M.000006251 0H419.5V595.25H.000006251Z" clip-rule="evenodd"/>
</clipPath>
<clipPath id="clip_7">
<path transform="matrix(1,0,0,-1,0,595.25)" d="M.000006251 0H419.5V595.25H.000006251Z" clip-rule="evenodd"/>
</clipPath>
<clipPath id="clip_8">
<path transform="matrix(1,0,0,-1,0,595.25)" d="M.000006251 0H419.5V595.25H.000006251Z" clip-rule="evenodd"/>
</clipPath>
<clipPath id="clip_9">
<path transform="matrix(1,0,0,-1,0,595.25)" d="M.000006251 0H419.5V595.25H.000006251Z" clip-rule="evenodd"/>
</clipPath>
<clipPath id="clip_10">
<path transform="matrix(1,0,0,-1,0,595.25)" d="M.000006251 0H419.5V595.25H.000006251Z" clip-rule="evenodd"/>
</clipPath>
<clipPath id="clip_11">
<path transform="matrix(1,0,0,-1,0,595.25)" d="M.000006251 0H419.5V595.25H.000006251Z" clip-rule="evenodd"/>
</clipPath>
<clipPath id="clip_12">
<path transform="matrix(1,0,0,-1,0,595.25)" d="M.000006251 0H419.5V595.25H.000006251Z" clip-rule="evenodd"/>
</clipPath>
<clipPath id="clip_13">
<path transform="matrix(1,0,0,-1,0,595.25)" d="M.000006251 0H419.5V595.25H.000006251Z" clip-rule="evenodd"/>
</clipPath>
<clipPath id="clip_14">
<path transform="matrix(1,0,0,-1,0,595.25)" d="M.000006251 0H419.5V595.25H.000006251Z" clip-rule="evenodd"/>
</clipPath>
<clipPath id="clip_15">
<path transform="matrix(1,0,0,-1,0,595.25)" d="M.000006251 0H419.5V595.25H.000006251Z" clip-rule="evenodd"/>
</clipPath>
<clipPath id="clip_16">
<path transform="matrix(1,0,0,-1,0,595.25)" d="M.000006251 0H419.5V595.25H.000006251Z" clip-rule="evenodd"/>
</clipPath>
<clipPath id="clip_17">
<path transform="matrix(1,0,0,-1,0,595.25)" d="M.000006251 0H419.5V595.25H.000006251Z" clip-rule="evenodd"/>
</clipPath>
<clipPath id="clip_18">
<path transform="matrix(1,0,0,-1,0,595.25)" d="M.000006251 0H419.5V595.25H.000006251Z" clip-rule="evenodd"/>
</clipPath>
<clipPath id="clip_19">
<path transform="matrix(1,0,0,-1,0,595.25)" d="M.000006251 0H419.5V595.25H.000006251Z" clip-rule="evenodd"/>
</clipPath>
<clipPath id="clip_20">
<path transform="matrix(1,0,0,-1,0,595.25)" d="M.000006251 0H419.5V595.25H.000006251Z" clip-rule="evenodd"/>
</clipPath>
<clipPath id="clip_21">
<path transform="matrix(1,0,0,-1,0,595.25)" d="M.000006251 0H419.5V595.25H.000006251Z" clip-rule="evenodd"/>
</clipPath>
<clipPath id="clip_22">
<path transform="matrix(1,0,0,-1,0,595.25)" d="M.000006251 0H419.5V595.25H.000006251Z" clip-rule="evenodd"/>
</clipPath>
<clipPath id="clip_23">
<path transform="matrix(1,0,0,-1,0,595.25)" d="M.000006251 0H419.5V595.25H.000006251Z" clip-rule="evenodd"/>
</clipPath>
<clipPath id="clip_24">
<path transform="matrix(1,0,0,-1,0,595.25)" d="M.000006251 0H419.5V595.25H.000006251Z" clip-rule="evenodd"/>
</clipPath>
<clipPath id="clip_25">
<path transform="matrix(1,0,0,-1,0,595.25)" d="M.000006251 0H419.5V595.25H.000006251Z" clip-rule="evenodd"/>
</clipPath>
<clipPath id="clip_26">
<path transform="matrix(1,0,0,-1,0,595.25)" d="M.000006251 0H419.5V595.25H.000006251Z" clip-rule="evenodd"/>
</clipPath>
<clipPath id="clip_27">
<path transform="matrix(1,0,0,-1,0,595.25)" d="M.000006251 0H419.5V595.25H.000006251Z" clip-rule="evenodd"/>
</clipPath>
<clipPath id="clip_28">
<path transform="matrix(1,0,0,-1,0,595.25)" d="M.000006251 0H419.5V595.25H.000006251Z" clip-rule="evenodd"/>
</clipPath>
<clipPath id="clip_29">
<path transform="matrix(1,0,0,-1,0,595.25)" d="M.000006251 0H419.5V595.25H.000006251Z" clip-rule="evenodd"/>
</clipPath>
<clipPath id="clip_30">
<path transform="matrix(1,0,0,-1,0,595.25)" d="M.000006251 0H419.5V595.25H.000006251Z" clip-rule="evenodd"/>
</clipPath>
<clipPath id="clip_31">
<path transform="matrix(1,0,0,-1,0,595.25)" d="M.000006251 0H419.5V595.25H.000006251Z" clip-rule="evenodd"/>
</clipPath>
<clipPath id="clip_32">
<path transform="matrix(1,0,0,-1,0,595.25)" d="M.000006251 0H419.5V595.25H.000006251Z" clip-rule="evenodd"/>
</clipPath>
<clipPath id="clip_33">
<path transform="matrix(1,0,0,-1,0,595.25)" d="M.000006251 0H419.5V595.25H.000006251Z" clip-rule="evenodd"/>
</clipPath>
<clipPath id="clip_34">
<path transform="matrix(1,0,0,-1,0,595.25)" d="M.000006251 0H419.5V595.25H.000006251Z" clip-rule="evenodd"/>
</clipPath>
<clipPath id="clip_35">
<path transform="matrix(1,0,0,-1,0,595.25)" d="M.000006251 0H419.5V595.25H.000006251Z" clip-rule="evenodd"/>
</clipPath>
<clipPath id="clip_36">
<path transform="matrix(1,0,0,-1,0,595.25)" d="M.000006251 0H419.5V595.25H.000006251Z" clip-rule="evenodd"/>
</clipPath>
<clipPath id="clip_37">
<path transform="matrix(1,0,0,-1,0,595.25)" d="M.000006251 0H419.5V595.25H.000006251Z" clip-rule="evenodd"/>
</clipPath>
<clipPath id="clip_38">
<path transform="matrix(1,0,0,-1,0,595.25)" d="M.000006251 0H419.5V595.25H.000006251Z" clip-rule="evenodd"/>
</clipPath>
<clipPath id="clip_39">
<path transform="matrix(1,0,0,-1,0,595.25)" d="M.000006251 0H419.5V595.25H.000006251Z" clip-rule="evenodd"/>
</clipPath>
<clipPath id="clip_40">
<path transform="matrix(1,0,0,-1,0,595.25)" d="M.000006251 0H419.5V595.25H.000006251Z" clip-rule="evenodd"/>
</clipPath>
<clipPath id="clip_41">
<path transform="matrix(1,0,0,-1,0,595.25)" d="M.000006251 0H419.5V595.25H.000006251Z" clip-rule="evenodd"/>
</clipPath>
<clipPath id="clip_42">
<path transform="matrix(1,0,0,-1,0,595.25)" d="M.000006251 0H419.5V595.25H.000006251Z" clip-rule="evenodd"/>
</clipPath>
<clipPath id="clip_43">
<path transform="matrix(1,0,0,-1,0,595.25)" d="M.000006251 0H419.5V595.25H.000006251Z" clip-rule="evenodd"/>
</clipPath>
<clipPath id="clip_44">
<path transform="matrix(1,0,0,-1,0,595.25)" d="M.000006251 0H419.5V595.25H.000006251Z" clip-rule="evenodd"/>
</clipPath>
<clipPath id="clip_45">
<path transform="matrix(1,0,0,-1,0,595.25)" d="M.000006251 0H419.5V595.25H.000006251Z" clip-rule="evenodd"/>
</clipPath>
<clipPath id="clip_46">
<path transform="matrix(1,0,0,-1,0,595.25)" d="M.000006251 0H419.5V595.25H.000006251Z" clip-rule="evenodd"/>
</clipPath>
<clipPath id="clip_47">
<path transform="matrix(1,0,0,-1,0,595.25)" d="M.000006251 0H419.5V595.25H.000006251Z" clip-rule="evenodd"/>
</clipPath>
<clipPath id="clip_48">
<path transform="matrix(1,0,0,-1,0,595.25)" d="M.000006251 0H419.5V595.25H.000006251Z" clip-rule="evenodd"/>
</clipPath>
<clipPath id="clip_49">
<path transform="matrix(1,0,0,-1,0,595.25)" d="M.000006251 0H419.5V595.25H.000006251Z" clip-rule="evenodd"/>
</clipPath>
<clipPath id="clip_50">
<path transform="matrix(1,0,0,-1,0,595.25)" d="M.000006251 0H419.5V595.25H.000006251Z" clip-rule="evenodd"/>
</clipPath>
<clipPath id="clip_51">
<path transform="matrix(1,0,0,-1,0,595.25)" d="M.000006251 0H419.5V595.25H.000006251Z" clip-rule="evenodd"/>
</clipPath>
</defs>
<g>
<g clip-path="url(#clip_1)">
<text xml:space="preserve" transform="matrix(1 0 -0 1 0 595.25)" font-size="11" font-family="Times New Roman"><tspan y="-548.97" x="358.45"> </tspan></text>
</g>
<g clip-path="url(#clip_2)">
</g>
<g clip-path="url(#clip_3)">
<g clip-path="url(#clip_4)">

</g>
<g clip-path="url(#clip_5)">
<text xml:space="preserve" transform="matrix(1 0 -0 1 0 595.25)" font-size="11" font-family="Times New Roman"><tspan y="-548.97" x="376.48"> </tspan></text>
</g>
</g>
<g clip-path="url(#clip_6)">
<text xml:space="preserve" transform="matrix(1 0 -0 1 0 595.25)" font-size="11" font-family="Times New Roman"><tspan y="-530.97" x="57.525 64.246 69.746 74.76201 77.51201 85.49801 88.99601 93.99001 98.98402 104.48402 107.23402 112.73402 116.47402 119.22402 124.72402 130.22403 133.22704 138.72704 141.47704 144.48004 149.47405 152.47705 155.48006 160.23206 163.97205 168.25106 171.00106 173.97106 178.25006 181.00006 185.96106 188.71106 193.70507 199.20507 207.70807 213.20807 216.21108 219.21408 223.96608 228.96009 231.96309 236.95709 242.45709 245.20709 248.2101 252.4891 256.7131 262.2131 267.2071 269.9571 272.7071 280.69309 286.19309 293.94807 298.94206 304.44206 309.19407 312.69206 315.44206 318.19206 323.18605 326.18907 328.93907 331.94209 334.9451 343.44813 348.4421 352.7211">The Greek of both letters is a complicated issue. However, at times </tspan></text>
</g>
<g clip-path="url(#clip_7)">
<text xml:space="preserve" transform="matrix(1 0 -0 1 0 595.25)" font-size="11" font-family="Times New Roman"><tspan y="-516.47" x="57.525 60.528 66.028 71.022 74.76201 79.75601 82.25301 87.24702 92.24102 97.74102 100.49102 105.99102 110.98502 113.482028 118.47603 121.22603 124.22903 129.22303 137.72603 143.22603 146.22904 151.22304 154.22605 157.22905 162.72905 168.22905 170.97905 173.98206 179.48206 182.23206 187.73206 193.23206 198.22606 201.96605 206.24506 209.21506 214.20906 216.95906 221.95307 224.70307 230.20307 235.70307 243.68907 246.43907 251.93907 254.94208 258.68208 262.18006 267.17405 270.67204 275.66603 281.16603 284.16905 286.91905 289.92207 295.42207 300.41606 303.16606 310.92103 314.661 319.655 324.649 330.149 332.899 338.146 341.886 344.636 347.639 353.139 358.133 362.412 367.373">there can be a temptation to overstate how different the Greek of these </tspan></text>
</g>
<g clip-path="url(#clip_8)">
<text xml:space="preserve" transform="matrix(1 0 -0 1 0 595.25)" font-size="11" font-family="Times New Roman"><tspan y="-501.95" x="57.525 60.528 68.514 74.014 76.764 79.767 84.761 87.764 90.767 95.761 99.50101 103.78001 106.53001 111.49101 114.98901 119.98302 122.73302 125.48302 132.20401 137.70401 142.72002 145.21701 153.20302 156.94301 161.695 166.68901 172.18901 174.93901 180.43901 184.179 186.929 192.429 197.929 200.932 206.432 209.182 212.18502 216.46402 219.21402 224.17502 227.17803 231.93003 236.92403 240.66402 243.66703 249.16703 251.91703 257.41703 260.42005 264.16004 267.65803 272.652 276.15 281.14399 286.64399 289.647 292.397 295.147 300.647 305.894 313.88 318.874 324.374 329.126 332.866">two letters are. The Greek of both is clearly different, however </tspan></text>
</g>
<g clip-path="url(#clip_9)">
<text xml:space="preserve" transform="matrix(1 0 -0 1 0 595.25)" font-size="11" font-family="Times New Roman"><tspan y="-487.2" x="57.525 64.774 69.768009 75.268009 80.26201 85.76201 91.26201 96.25601 104.75901 108.499019 112.778018 115.528018 121.028018 126.528018 129.49802 134.49202 137.24202 140.24503 145.49202 150.48603 153.48903 156.23903 159.24204 164.74204 169.73604 175.23604 177.98604 182.98004 186.47805 191.47205 194.22205 198.50106 204.00106 209.50106 213.20806 216.21106 218.96106 221.96407 226.95807 229.96108 232.96408 237.95809 241.69808 245.97708 248.72708 251.69709 257.19709 259.94709 265.44709 268.4501 271.9481">Bauckham&#x2019;s note that they are short letters to diff</tspan></text>
</g>
<g clip-path="url(#clip_10)">
<text xml:space="preserve" transform="matrix(1 0 -0 1 0 595.25)" font-size="11" font-family="Times New Roman"><tspan y="-487.2" x="275.9 280.89399 284.39198 289.38597 294.88597 297.88899 300.63899 306.13899 309.63697 315.13697 320.63697 326.13697 330.41596 333.16596 336.13597 341.63597">erent groups in </tspan></text>
</g>
<g clip-path="url(#clip_11)">
<text xml:space="preserve" transform="matrix(1 0 -0 1 0 595.25)" font-size="11" font-family="Times New Roman"><tspan y="-472.7" x="57.525 63.025 66.028 69.768009 73.50801 78.502017 82.000019 86.99402 92.49402 95.49702 98.24702 102.52602 105.49602 108.499019 113.999019 118.99302 121.99602 124.999019 130.49903 135.99903 140.27803 143.02803 145.99803 150.27704 153.02704 155.99704 164.50005 170.00005 175.50005 179.24004 182.24304 187.23705 192.73705 195.74005 198.49005 201.24005 204.98004 210.48004 213.23004 218.73004 224.23004 227.23305 232.73305 235.48305 238.48606 243.48006 246.48307 249.48607 254.48007 258.22007 262.49906 265.24906 267.99906 270.96907 276.46907 281.46305 285.20304 290.19703 292.94703 297.226 301.945 306.69703 315.20005 319.47904 322.22904 325.19905 330.69905 333.44905 338.94905 343.94303 346.69303 350.97203 353.94203 359.44203 364.94203 369.221">different situations is important. In both letters, there seems to be signs </tspan></text>
</g>
<g clip-path="url(#clip_12)">
<text xml:space="preserve" transform="matrix(1 0 -0 1 0 595.25)" font-size="11" font-family="Times New Roman"><tspan y="-458.2" x="57.525 63.025 66.76501 69.51501 74.50901 77.25901 82.75901 88.25901 92.53801 96.76201 99.76501 105.26501 108.268009 113.26201 116.01201 122.007 127.00101 135.50402 138.50702 141.51003 144.51303 149.50704 152.25704 156.53604 162.03604 166.99704 171.99105 177.49105 182.24304 185.98303 188.73303 194.23303 197.97303 200.47002 205.46402 208.46703 211.21703 214.22003 219.21404 224.20804 228.48705 231.45705 234.20705 237.21006 242.71006 246.45005 249.45305 254.95305 259.94703 265.19404 270.18803 275.182 277.67903 282.673 288.173 293.673 296.423 301.417 306.917 309.414 314.914 320.414 325.408 329.14799 332.151 337.145 342.645 345.395 350.895 354.63499">of a possible Semitic speaker or at least influence and an overlap of </tspan></text>
</g>
<g clip-path="url(#clip_13)">
<text xml:space="preserve" transform="matrix(1 0 -0 1 0 595.25)" font-size="11" font-family="Times New Roman"><tspan y="-443.67" x="57.525 61.804 67.304 75.774 80.768009 83.518009 91.504009 95.24401 99.99601 104.99001 110.49001 113.24001 121.22601 126.72601 130.466 135.966 140.24501 142.99501 145.47002 155.96402 161.46402 164.46703 167.47003 172.46404 175.21404 178.21704 181.22005 183.97005 186.97306 191.25206 194.00206 199.50206 205.00206 209.96306 212.96607 217.96007 222.95407 226.69406 229.44406 232.44707 236.18706 238.93706 244.43706 249.93706 252.94007 258.44007 261.19007 264.19309 269.18708 272.1901 275.1931 279.94514 283.68513 287.9641 290.7141 295.6751 301.1751 309.4251 314.4191 317.1691 320.9091 324.64909 330.14909 338.6521 341.4021 346.3961">some Greek words. While it is unclear if both letters come from a </tspan></text>
</g>
<g clip-path="url(#clip_14)">
<text xml:space="preserve" transform="matrix(1 0 -0 1 0 595.25)" font-size="11" font-family="Times New Roman"><tspan y="-429.17" x="57.525 62.519 68.019 76.521999 85.024997 90.524997 96.024997 98.774997 103.05399 108.55399 114.05399 117.760997 122.755 127.749 130.499 133.249 136.252 141.752 146.746 149.496 154.996 157.746 161.486 165.22599 169.97798 173.71797 178.71198 184.21198">common source, the different</tspan></text>
</g>
<g clip-path="url(#clip_15)">
<text xml:space="preserve" transform="matrix(1 0 -0 1 0 595.25)" font-size="11" font-family="Times New Roman"><tspan y="-429.17" x="187.35"> </tspan></text>
</g>
<g clip-path="url(#clip_16)">
<text xml:space="preserve" transform="matrix(1 0 -0 1 0 595.25)" font-size="11" font-family="Times New Roman"><tspan y="-429.17" x="190.1 194.37902 197.34902 202.84902 205.85202 210.84603 213.59603 218.59003 224.09003 229.59003 232.08702 240.07303 245.57303 249.31302 254.81302 257.56303 262.557 268.057 273.557 276.307 281.301 286.29499 289.04499 294.54499 299.792 304.78599 309.06498 311.81498 317.31498 322.81498 325.78498 328.53498 334.03498 339.53498 342.538 350.524 355.51799 358.521 364.021 369.521">style and word choice does not outweigh </tspan></text>
</g>
<g clip-path="url(#clip_17)">
<text xml:space="preserve" transform="matrix(1 0 -0 1 0 595.25)" font-size="11" font-family="Times New Roman"><tspan y="-414.67" x="57.525 60.528 66.028 71.022 73.772 79.272 84.772 89.051 93.275 96.278 101.778 104.781 107.784 110.786998 113.78999 119.28999 122.03999 125.04299 130.543 135.537 138.54001 141.29001 144.29302 149.79302 154.78702 157.53702 162.53102 168.03102 171.03403 176.53403 182.03403 185.77402 188.52402 194.02402 197.764 200.514 203.51702 209.01702 214.01102 216.76102 219.76403 224.75803 227.76103 230.76404 235.75804 239.49803 243.77704 246.52704 250.75106 253.75406 262.25709 267.75709 270.7601 276.2601 279.0101 287.51313 292.5071 298.0071 303.0011 305.7511 310.5031 316.0031 321.5031 324.50614 329.50013 334.4941 338.7731 341.5231 347.0231 351.9841 356.2631 361.2241 366.7241">the possibility that the author of the letters simply made choices based </tspan></text>
</g>
<g clip-path="url(#clip_18)">
<text xml:space="preserve" transform="matrix(1 0 -0 1 0 595.25)" font-size="11" font-family="Times New Roman"><tspan y="-399.92" x="57.525 63.025 68.525 71.275 74.278 79.778 84.772 87.522 93.022 98.01601 103.01001 108.51001 111.26001 116.50701 120.24702 122.99702 128.49701 131.50002 135.77902 138.52902 143.49002 148.99002 154.49002 157.49303 162.48703 167.98703 172.73903 177.73303 182.01204 184.76204 187.51204 190.98804 195.98204 200.26105 205.76105 208.73105 211.73406 214.73706 220.23706 225.73706 228.48706 231.49007 236.99007 239.74007 244.73407 250.23407 258.7371 264.2371 267.2401 272.2341 275.23713 280.2311 283.23414 288.73414 291.48414 296.98414 299.98716 303.72715 307.46714 312.21916 315.95915 320.95314 326.45314 329.45616 332.20616 335.20918 340.20317 343.20619 346.2092 351.2032 354.94319 359.22218 361.97218">on the need of his audiences, resulting in completely different letters. </tspan></text>
</g>
<g clip-path="url(#clip_19)">
<text xml:space="preserve" transform="matrix(1 0 -0 1 0 595.25)" font-size="11" font-family="Times New Roman"><tspan y="-385.4" x="57.525 68.019008 73.519008 76.522 79.525 84.519008 87.269008 90.272 95.772 98.775 103.054 105.804 109.511 114.505008 118.784008 124.284008 127.254009 130.25702 133.00702 137.28603 142.24703 147.24103 155.74404 160.02304 162.77304 166.48004 171.23204 174.97203 177.72203 181.46202 185.20201 190.70201 199.20502 201.95502 205.95903 210.95304 213.95604 216.95905 221.23805 224.94506 230.44506 233.44806 238.94806 244.44806 247.19806 252.69806 258.19807 260.94807 263.95109 266.9541 271.2331 273.9831 279.4831 287.42509 292.92509 295.67509 298.42509 301.4831 304.4531 307.4451 315.94813 320.9421 326.4421 329.1921 334.6921 339.6861 342.4361 345.43913 350.93913">While this result seems far from satisfying on its own, it may be the</tspan></text>
</g>
<g clip-path="url(#clip_20)">
<text xml:space="preserve" transform="matrix(1 0 -0 1 0 595.25)" font-size="11" font-family="Times New Roman"><tspan y="-385.4" x="356.2"> </tspan></text>
</g>
<g clip-path="url(#clip_21)">
<text xml:space="preserve" transform="matrix(1 0 -0 1 0 595.25)" font-size="11" font-family="Times New Roman"><tspan y="-370.9" x="57.525 62.519 67.513 71.792 76.753009 79.503009 82.506008 86.24601 88.99601 94.49601 97.49901 102.74601 107.74001 111.48002 114.23002 119.22402 124.72402 127.72702 132.97402 137.96802 143.46802 148.22002 153.21402 155.96402 163.95003 169.45003 173.19002 178.69002 182.96903 185.71903 188.68903 194.18903 196.93903 201.21804 206.71804 212.21804 220.16004 222.91004 227.92604 230.42304 235.41704 240.91704 249.42005 257.92308 263.42308 268.92308 271.67308 276.66706 282.16706 285.17008 290.67008 296.17008 299.91007">case if other evidence works to show a common author.</tspan></text>
</g>
<g clip-path="url(#clip_22)">
<text xml:space="preserve" transform="matrix(1 0 -0 1 0 595.25)" font-size="11" font-family="Times New Roman" font-style="italic"><tspan y="-370.9" x="302.67"> </tspan></text>
</g>
<g clip-path="url(#clip_23)">
<text xml:space="preserve" transform="matrix(1 0 -0 1 0 595.25)" font-size="11" font-family="Times New Roman" font-weight="bold"><tspan y="-344.4" x="173.85 181.09902 187.09401 192.08802 194.83802 202.82402 207.10303 212.06403 214.81403 220.31403 224.05402 226.80402 230.544 236.539 241.533 244.283 252.78601">The Use of the OT</tspan></text>
</g>
<g clip-path="url(#clip_24)">
<text xml:space="preserve" transform="matrix(1 0 -0 1 0 595.25)" font-size="11" font-family="Times New Roman" font-weight="bold"><tspan y="-344.4" x="260.15"> </tspan></text>
</g>
<g clip-path="url(#clip_25)">
<text xml:space="preserve" transform="matrix(1 0 -0 1 0 595.25)" font-size="11" font-family="Times New Roman" font-weight="bold" font-style="italic"><tspan y="-317.88" x="75.55 79.8">I.</tspan></text>
</g>
<g clip-path="url(#clip_26)">
<text xml:space="preserve" transform="matrix(1 0 -0 1 0 595.25)" font-size="11" font-family="Arial" font-weight="bold" font-style="italic"><tspan y="-317.88" x="82.55"> </tspan></text>
</g>
<g clip-path="url(#clip_27)">
<text xml:space="preserve" transform="matrix(1 0 -0 1 0 595.25)" font-size="11" font-family="Times New Roman" font-weight="bold" font-style="italic"><tspan y="-317.88" x="111.58 118.829 121.832 126.111 130.335 133.33802 136.08802 142.809 147.82501 150.82802 155.82202">First Peter</tspan></text>
</g>
<g clip-path="url(#clip_28)">
<text xml:space="preserve" transform="matrix(1 0 -0 1 0 595.25)" font-size="11" font-family="Times New Roman" font-weight="bold" font-style="italic"><tspan y="-317.88" x="160.1"> </tspan></text>
</g>
<g clip-path="url(#clip_29)">
<text xml:space="preserve" transform="matrix(1 0 -0 1 0 595.25)" font-size="11" font-family="Times New Roman"><tspan y="-295.13" x="57.525 65.511 70.505008 74.003009 78.99701 84.49701 87.24701 91.52601 97.02601 102.52601 107.487018 111.766017 114.516017 122.458019 126.23102 131.73102 134.48102 139.47502 142.22502 145.22803 150.72803 155.72203 158.47203 163.46604 168.96604 171.96904 175.70903 181.20903 183.95903 189.45903 194.95903 197.45603 202.45003 207.95003 210.70003 216.69503 221.68903 224.69203 229.68604 233.18404 238.17804 240.92804 243.93105 249.43105 252.18105 260.16706 262.91706 265.66706 273.65306 276.40306 279.15306 286.40205 291.15406 294.89405 299.17304 304.67304 309.89805 313.63804 317.91703">Karen Jobes wrote the entry on &#x201c;1 Peter&#x201d; in D. A. Carson&#x2019;s </tspan></text>
</g>
<g clip-path="url(#clip_30)">
<text xml:space="preserve" transform="matrix(1 0 -0 1 0 595.25)" font-size="11" font-family="Times New Roman" font-style="italic"><tspan y="-295.13" x="320.95 328.936 331.93904 336.933 339.93605 342.93907 348.43907 353.93907 359.43907 363.71806 368.67906">Dictionary </tspan></text>
</g>
<g clip-path="url(#clip_31)">
<text xml:space="preserve" transform="matrix(1 0 -0 1 0 595.25)" font-size="11" font-family="Times New Roman" font-style="italic"><tspan y="-280.63" x="57.525 63.025 66.028 68.778 71.781 77.281 82.275 85.025 92.274 97.268009 104.517009 107.267009 113.262 118.256008 122.535 125.505008 131.005 138.99102 143.98502 149.48502 152.48802 155.23802 163.22403 167.50304 172.46404 175.21404 180.71404 183.71704 186.46704 189.47005 194.97005 199.96405 202.71405 210.70006 213.70307 219.20307 221.95307 227.94806 232.94207 237.22107 240.19107 245.69107 253.67708 258.67106 264.17106">of the New Testament Use of the Old Testament</tspan></text>
</g>
<g clip-path="url(#clip_32)">
<text xml:space="preserve" transform="matrix(1 0 -0 1 0 595.25)" font-size="11" font-family="Times New Roman"><tspan y="-280.63" x="267.4"> </tspan></text>
</g>
<g clip-path="url(#clip_33)">
<text xml:space="preserve" transform="matrix(1 0 -0 1 0 595.25)" font-size="11" font-family="Times New Roman"><tspan y="-280.63" x="270.15 273.88999 279.38999 284.88999 290.38999 295.88999 299.62998 302.37998 305.12998 307.62699 311.12498 316.62498 319.37498 322.378 325.381 328.131 330.881 335.16 340.66 345.621 348.371 353.871 359.371 362.37403 367.368 371.647">(2023).  In it, she notes </tspan></text>
</g>
<g clip-path="url(#clip_34)">
<text xml:space="preserve" transform="matrix(1 0 -0 1 0 595.25)" font-size="11" font-family="Times New Roman"><tspan y="-266.1" x="57.525 60.528 66.028 71.022 74.025 76.775 82.275 85.025 91.02 96.014 99.017 104.011 107.75101 110.50101 116.00101 119.74101 122.74401 131.24703 136.24103 139.98102 142.98403 145.98703 151.48703 154.23703 159.73703 165.23703 170.73703 173.74004 178.73404 183.01305 185.76305 189.23905 192.97904 198.47904 206.98204 209.73204 212.73505 218.23505 223.22905 225.97905 231.97405 236.96805 242.46805 245.47106 250.97106 255.96506 261.46507 264.46809 269.96809 272.9711 275.7211 279.4611 284.45509 290.9561 298.94209 306.92808 311.68009 314.43009 319.93009 324.20909 329.17008 334.67008 337.42008 341.16007 346.66007 350.40007 353.15007 356.15309 361.65309 366.64707">that 1 Peter primarily quotes from the Septuagint (&#x201c;LXX&#x201d; used for the </tspan></text>
</g>
<g clip-path="url(#clip_35)">
<text xml:space="preserve" transform="matrix(1 0 -0 1 0 595.25)" font-size="11" font-family="Times New Roman"><tspan y="-251.6" x="57.525 61.265005 64.268009 68.00801 72.28701 75.25701 78.00701 81.74702 84.750019 90.250019 95.24402 97.99402 103.49402 108.99402 114.49402 119.99402 124.27302 127.02302 129.77301 134.73401 142.72002 145.72303 151.22303 153.97303 161.72803 165.46802 170.22002 175.21402 180.71402 185.70803 188.45803 191.46103 195.74004 198.49004 203.99004 208.21405 213.20806 218.70806 221.45806 225.19805 230.44504 234.18503 236.93503 239.93804 245.43804 250.43204 253.18204 256.68003 261.674 265.953 268.923 271.673 277.173 280.913 283.663 286.66603 292.16603 297.16 299.91 307.66499 314.386 318.15898 320.90898 323.65898 327.93797 333.43797 338.93797 343.89897 348.17796 350.92796 356.42796 361.92796 364.89796 369.89195 374.17094">first five books. &#x201c;Old Greek&#x201d; is used for the rest of the OT). Jobes notes </tspan></text>
</g>
<g clip-path="url(#clip_36)">
<text xml:space="preserve" transform="matrix(1 0 -0 1 0 595.25)" font-size="11" font-family="Times New Roman"><tspan y="-237.1" x="57.525 60.528 68.514 74.014 76.764 82.264 86.004009 89.007 97.51 102.504009 106.24401 111.74401 114.49401 119.99401 125.49401 129.23401 134.73401 140.23401 144.51302 149.47402 153.75302 156.22803 159.96802 165.46802 169.20801 171.95801 177.45801 180.20801 186.203 191.197 194.20001 198.95201 202.692 206.43199 210.711 213.461 218.961 223.18502 228.17902 230.92902 236.42902 240.169 242.666 250.65201 257.37303 260.43104 263.18104 268.14204 271.14506 276.64506 279.39506 284.38905 289.88905 295.38905 298.13905 303.13304 306.13606 311.63606 314.38606 317.38908 322.88908 327.88307 330.88609 333.63609 337.91508 342.87608 347.15507 352.65507 356.87907">two primary purposes for 1 Peter&#x2019;s use of OT: &#x201c;to explain that Jesus </tspan></text>
</g>
<g clip-path="url(#clip_37)">
<text xml:space="preserve" transform="matrix(1 0 -0 1 0 595.25)" font-size="11" font-family="Times New Roman"><tspan y="-222.35" x="57.525 65.511 70.505008 74.784008 77.534008 80.504009 86.004009 90.99801 93.74801 103.52701 108.488018 112.76701 116.99101 119.99401 124.988018">was the Messiah</tspan></text>
</g>
<g clip-path="url(#clip_38)">
<text xml:space="preserve" transform="matrix(1 0 -0 1 0 595.25)" font-size="11" font-family="Times New Roman"><tspan y="-222.35" x="130.58 133.33 136.08 144.06601 149.56601 155.06601 157.81601 160.56601 163.56902 166.57202 169.32202 177.07703 182.07103 186.35004 189.10004 194.60004 198.30704 203.30104 208.80104 211.55104 216.54505 219.54805 224.54206 230.04206 232.79206 235.54206 243.52806 249.02806 254.52806 257.53108 263.03108 265.78108 270.06007 275.56007 279.26707 282.76506 287.75904 291.49903 293.99604 298.99003 304.49003 309.99003 312.48704 317.98704 320.99006 325.98405 328.73405 332.47404 337.97404 341.71403 347.21403 352.71403 358.21403 363.208 366.21104 369.21406 374.20805">, who, it was predicted, would suffer and die (prophetic </tspan></text>
</g>
<g clip-path="url(#clip_39)">
<text xml:space="preserve" transform="matrix(1 0 -0 1 0 595.25)" font-size="11" font-family="Times New Roman"><tspan y="-207.83" x="57.525 60.528 66.028 69.031 74.025 77.76501 83.26501 87.00501 91.999019 95.002017 99.99602 102.999019 106.002017 111.502017 117.002017 120.500019 125.49402 128.24402 133.23802 138.73802 144.23802 146.73502 151.72902 154.73203 160.23203 162.98203 167.97603 173.47603 178.97603 181.97904 186.97304 189.97605 195.47605 198.22605 203.72605 209.22605 217.21205 219.96205 227.21106 232.71106 236.45105 239.45406 243.73307 246.70307 249.70607 254.70008 260.20008 262.95008 268.45008 273.44407 276.44709 279.4501 284.4441 289.6911 294.6851 298.42509 302.70408 305.17909 309.9311 313.67109 318.66508 321.41508 324.4181 329.9181 332.6681 335.6711 338.67414 344.17414 349.16813 351.91813 357.41813 362.91813 365.92115">interpretation)&#x201d; and &#x201c;to explain how Christian believers are to live out </tspan></text>
</g>
<g clip-path="url(#clip_40)">
<text xml:space="preserve" transform="matrix(1 0 -0 1 0 595.25)" font-size="11" font-family="Times New Roman"><tspan y="-193.33" x="57.525 60.528 66.028 71.022 74.025 77.76501 80.51501 86.01501 91.00901 98.99501 101.74501 104.74801 107.75101 113.25101 118.24501 120.99501 123.99801 129.49802 132.24802 139.49703 144.99703 148.73702 151.74002 156.01903 158.98903 163.98303 166.73303 170.47303 174.75203 180.25203 185.75203 190.71303 194.99204 197.74204 200.49204 205.99204 211.49204 216.99204 222.49204 225.24204 227.99204 233.49204 236.24204 238.99204 244.49204 249.99204 255.21704 258.95704 261.70704 264.45704 268.73603 274.23603 279.73603 284.69703 288.976 291.726 297.226 302.726 305.696 310.44804 314.72703 317.47703 320.44703 325.94703 330.941 333.94404 336.69404 339.69706 345.19706 350.19105 353.93104 358.92503 361.67503 366.42704 370.16703 375.161">their new live in Christ&#x201d; (Jobes, 2023, p. 594). Jobes notes that there are </tspan></text>
</g>
<g clip-path="url(#clip_41)">
<text xml:space="preserve" transform="matrix(1 0 -0 1 0 595.25)" font-size="11" font-family="Times New Roman"><tspan y="-178.83" x="57.525 60.528 68.514 74.014 76.764 84.75 91.471 94.221 98.5 103.494 108.48801 111.491008 114.494 119.994 125.494 129.77301 132.52301 135.49301 140.99301 145.98702 148.99002 151.74002 156.73403 160.23203 165.22603 167.97603 173.47603 177.21602 182.71602 191.21903 194.22203 199.72203 204.71604 210.21604 213.21904 215.96904 218.97205 224.47205 227.22205 232.72205 235.47205 241.46704 246.46105 249.46405 254.45806 258.19807 261.20109 263.95109 269.94609 274.22508">two OT sections that are prominent in 1 Peter: Psa</tspan></text>
</g>
<g clip-path="url(#clip_42)">
<text xml:space="preserve" transform="matrix(1 0 -0 1 0 595.25)" font-size="11" font-family="Times New Roman"><tspan y="-178.83" x="279.42 282.42304 290.92607 293.67607 299.17607 304.67607 307.42607 310.92405 318.91004 326.89604 330.63603 333.38603 338.38 343.88 349.38">lm 34 (OG) and </tspan></text>
</g>
<g clip-path="url(#clip_43)">
<text xml:space="preserve" transform="matrix(1 0 -0 1 0 595.25)" font-size="11" font-family="Times New Roman"><tspan y="-164.33" x="57.525 61.265005 65.54401 70.50501 73.50801 78.502017 84.002017 86.752017 89.502017 94.49602 97.499019 102.999019 108.499019 113.999019 116.749019 124.735019 127.738018 130.74103 136.24103 138.99103 147.49404 152.48804 157.98804 163.48804 166.23804 171.73804 174.74105 180.24105 184.99304 188.73303 191.48303 196.47704 201.97704 207.47704 212.72403 217.71804 222.71204 225.71504 228.71805 234.21805 239.71805 243.99706 246.74706 249.49706 255.47005 260.46403 265.458 268.208 274.709 279.703 285.203 288.20603 293.2 295.95 301.45">Isaiah, along with many other connections. See Table 1.</tspan></text>
</g>
<g clip-path="url(#clip_44)">
<text xml:space="preserve" transform="matrix(1 0 -0 1 0 595.25)" font-size="11" font-family="Times New Roman"><tspan y="-164.33" x="304.17"> </tspan></text>
</g>
<g clip-path="url(#clip_45)">
<text xml:space="preserve" transform="matrix(1 0 -0 1 0 595.25)" font-size="11" font-family="Times New Roman"><tspan y="-149.83" x="57.525"> </tspan></text>
</g>
<g clip-path="url(#clip_46)">
<text xml:space="preserve" transform="matrix(1 0 -0 1 0 595.25)" font-size="11" font-family="Times New Roman"><tspan y="-135.05" x="57.525"> </tspan></text>
</g>
<g clip-path="url(#clip_47)">
<text xml:space="preserve" transform="matrix(1 0 -0 1 0 595.25)" font-size="11" font-family="Times New Roman"><tspan y="-120.55" x="57.525"> </tspan></text>
</g>
<g clip-path="url(#clip_48)">
<text xml:space="preserve" transform="matrix(1 0 -0 1 0 595.25)" font-size="11" font-family="Times New Roman"><tspan y="-106.05" x="57.525"> </tspan></text>
</g>
<g clip-path="url(#clip_49)">
<text xml:space="preserve" transform="matrix(1 0 -0 1 0 595.25)" font-size="11" font-family="Times New Roman"><tspan y="-91.55" x="57.525"> </tspan></text>
</g>
<g clip-path="url(#clip_50)">
<text xml:space="preserve" transform="matrix(1 0 -0 1 0 595.25)" font-size="11" font-family="Times New Roman"><tspan y="-77.025" x="57.525"> </tspan></text>
</g>
<g clip-path="url(#clip_51)">
<text xml:space="preserve" transform="matrix(1 0 -0 1 0 595.25)" font-size="11" font-family="Times New Roman"><tspan y="-62.275" x="57.525"> </tspan></text>
</g>
</g>
</svg>
