<svg class="pg-svg" xmlns="http://www.w3.org/2000/svg" xmlns:xlink="http://www.w3.org/1999/xlink" xmlns:inkscape="http://www.inkscape.org/namespaces/inkscape" version="1.1" width="419.5" height="595.25" viewBox="0 0 419.5 595.25">
<defs>
<clipPath id="clip_1">
<path transform="matrix(1,0,0,-1,0,595.25)" d="M.000006251 0H419.5V595.25H.000006251Z" clip-rule="evenodd"/>
</clipPath>
<clipPath id="clip_2">
<path transform="matrix(1,0,0,-1,0,595.25)" d="M.000006251 0H419.5V595.25H.000006251Z" clip-rule="evenodd"/>
</clipPath>
<clipPath id="clip_3">
<path transform="matrix(1,0,0,-1,0,595.25)" d="M365.48 546.47H376.48V559.22H365.48Z" clip-rule="evenodd"/>
</clipPath>
<clipPath id="clip_4">
<path transform="matrix(1,0,0,-1,0,595.25)" d="M365.48 546.47H376.48V559.22H365.48Z" clip-rule="evenodd"/>
</clipPath>
<clipPath id="clip_5">
<path transform="matrix(1,0,0,-1,0,595.25)" d="M365.48 546.47H376.48V559.22H365.48Z" clip-rule="evenodd"/>
</clipPath>
<clipPath id="clip_6">
<path transform="matrix(1,0,0,-1,0,595.25)" d="M.000006251 0H419.5V595.25H.000006251Z" clip-rule="evenodd"/>
</clipPath>
<clipPath id="clip_7">
<path transform="matrix(1,0,0,-1,0,595.25)" d="M.000006251 0H419.5V595.25H.000006251Z" clip-rule="evenodd"/>
</clipPath>
<clipPath id="clip_8">
<path transform="matrix(1,0,0,-1,0,595.25)" d="M.00001251 0H419.5V595.25H.00001251Z" clip-rule="evenodd"/>
</clipPath>
<clipPath id="clip_9">
<path transform="matrix(1,0,0,-1,0,595.25)" d="M.000006251 0H419.5V595.25H.000006251Z" clip-rule="evenodd"/>
</clipPath>
<clipPath id="clip_10">
<path transform="matrix(1,0,0,-1,0,595.25)" d="M.000006251 0H419.5V595.25H.000006251Z" clip-rule="evenodd"/>
</clipPath>
<clipPath id="clip_11">
<path transform="matrix(1,0,0,-1,0,595.25)" d="M.000006251 0H419.5V595.25H.000006251Z" clip-rule="evenodd"/>
</clipPath>
<clipPath id="clip_12">
<path transform="matrix(1,0,0,-1,0,595.25)" d="M.000006251 0H419.5V595.25H.000006251Z" clip-rule="evenodd"/>
</clipPath>
<clipPath id="clip_13">
<path transform="matrix(1,0,0,-1,0,595.25)" d="M.000006251 0H419.5V595.25H.000006251Z" clip-rule="evenodd"/>
</clipPath>
<clipPath id="clip_14">
<path transform="matrix(1,0,0,-1,0,595.25)" d="M.000006251 0H419.5V595.25H.000006251Z" clip-rule="evenodd"/>
</clipPath>
<clipPath id="clip_15">
<path transform="matrix(1,0,0,-1,0,595.25)" d="M.00001251 0H419.5V595.25H.00001251Z" clip-rule="evenodd"/>
</clipPath>
<clipPath id="clip_16">
<path transform="matrix(1,0,0,-1,0,595.25)" d="M.000006251 0H419.5V595.25H.000006251Z" clip-rule="evenodd"/>
</clipPath>
<clipPath id="clip_17">
<path transform="matrix(1,0,0,-1,0,595.25)" d="M.000006251 0H419.5V595.25H.000006251Z" clip-rule="evenodd"/>
</clipPath>
<clipPath id="clip_18">
<path transform="matrix(1,0,0,-1,0,595.25)" d="M.00001251 0H419.5V595.25H.00001251Z" clip-rule="evenodd"/>
</clipPath>
<clipPath id="clip_19">
<path transform="matrix(1,0,0,-1,0,595.25)" d="M.000006251 0H419.5V595.25H.000006251Z" clip-rule="evenodd"/>
</clipPath>
<clipPath id="clip_20">
<path transform="matrix(1,0,0,-1,0,595.25)" d="M.000006251 0H419.5V595.25H.000006251Z" clip-rule="evenodd"/>
</clipPath>
<clipPath id="clip_21">
<path transform="matrix(1,0,0,-1,0,595.25)" d="M.000006251 0H419.5V595.25H.000006251Z" clip-rule="evenodd"/>
</clipPath>
<clipPath id="clip_22">
<path transform="matrix(1,0,0,-1,0,595.25)" d="M.000006251 0H419.5V595.25H.000006251Z" clip-rule="evenodd"/>
</clipPath>
<clipPath id="clip_23">
<path transform="matrix(1,0,0,-1,0,595.25)" d="M.000006251 0H419.5V595.25H.000006251Z" clip-rule="evenodd"/>
</clipPath>
<clipPath id="clip_24">
<path transform="matrix(1,0,0,-1,0,595.25)" d="M.000006251 0H419.5V595.25H.000006251Z" clip-rule="evenodd"/>
</clipPath>
<clipPath id="clip_25">
<path transform="matrix(1,0,0,-1,0,595.25)" d="M.000006251 0H419.5V595.25H.000006251Z" clip-rule="evenodd"/>
</clipPath>
<clipPath id="clip_26">
<path transform="matrix(1,0,0,-1,0,595.25)" d="M.00001251 0H419.5V595.25H.00001251Z" clip-rule="evenodd"/>
</clipPath>
<clipPath id="clip_27">
<path transform="matrix(1,0,0,-1,0,595.25)" d="M.000006251 0H419.5V595.25H.000006251Z" clip-rule="evenodd"/>
</clipPath>
<clipPath id="clip_28">
<path transform="matrix(1,0,0,-1,0,595.25)" d="M.000006251 0H419.5V595.25H.000006251Z" clip-rule="evenodd"/>
</clipPath>
<clipPath id="clip_29">
<path transform="matrix(1,0,0,-1,0,595.25)" d="M.000006251 0H419.5V595.25H.000006251Z" clip-rule="evenodd"/>
</clipPath>
<clipPath id="clip_30">
<path transform="matrix(1,0,0,-1,0,595.25)" d="M.000006251 0H419.5V595.25H.000006251Z" clip-rule="evenodd"/>
</clipPath>
<clipPath id="clip_31">
<path transform="matrix(1,0,0,-1,0,595.25)" d="M.00001251 0H419.5V595.25H.00001251Z" clip-rule="evenodd"/>
</clipPath>
<clipPath id="clip_32">
<path transform="matrix(1,0,0,-1,0,595.25)" d="M.000006251 0H419.5V595.25H.000006251Z" clip-rule="evenodd"/>
</clipPath>
<clipPath id="clip_33">
<path transform="matrix(1,0,0,-1,0,595.25)" d="M.000006251 0H419.5V595.25H.000006251Z" clip-rule="evenodd"/>
</clipPath>
<clipPath id="clip_34">
<path transform="matrix(1,0,0,-1,0,595.25)" d="M.000006251 0H419.5V595.25H.000006251Z" clip-rule="evenodd"/>
</clipPath>
<clipPath id="clip_35">
<path transform="matrix(1,0,0,-1,0,595.25)" d="M.000006251 0H419.5V595.25H.000006251Z" clip-rule="evenodd"/>
</clipPath>
<clipPath id="clip_36">
<path transform="matrix(1,0,0,-1,0,595.25)" d="M.000006251 0H419.5V595.25H.000006251Z" clip-rule="evenodd"/>
</clipPath>
<clipPath id="clip_37">
<path transform="matrix(1,0,0,-1,0,595.25)" d="M.000006251 0H419.5V595.25H.000006251Z" clip-rule="evenodd"/>
</clipPath>
<clipPath id="clip_38">
<path transform="matrix(1,0,0,-1,0,595.25)" d="M.000006251 0H419.5V595.25H.000006251Z" clip-rule="evenodd"/>
</clipPath>
<clipPath id="clip_39">
<path transform="matrix(1,0,0,-1,0,595.25)" d="M.00001251 0H419.5V595.25H.00001251Z" clip-rule="evenodd"/>
</clipPath>
<clipPath id="clip_40">
<path transform="matrix(1,0,0,-1,0,595.25)" d="M.000006251 0H419.5V595.25H.000006251Z" clip-rule="evenodd"/>
</clipPath>
<clipPath id="clip_41">
<path transform="matrix(1,0,0,-1,0,595.25)" d="M.000006251 0H419.5V595.25H.000006251Z" clip-rule="evenodd"/>
</clipPath>
<clipPath id="clip_42">
<path transform="matrix(1,0,0,-1,0,595.25)" d="M.000006251 0H419.5V595.25H.000006251Z" clip-rule="evenodd"/>
</clipPath>
<clipPath id="clip_43">
<path transform="matrix(1,0,0,-1,0,595.25)" d="M.000006251 0H419.5V595.25H.000006251Z" clip-rule="evenodd"/>
</clipPath>
<clipPath id="clip_44">
<path transform="matrix(1,0,0,-1,0,595.25)" d="M.000006251 0H419.5V595.25H.000006251Z" clip-rule="evenodd"/>
</clipPath>
<clipPath id="clip_45">
<path transform="matrix(1,0,0,-1,0,595.25)" d="M.000006251 0H419.5V595.25H.000006251Z" clip-rule="evenodd"/>
</clipPath>
<clipPath id="clip_46">
<path transform="matrix(1,0,0,-1,0,595.25)" d="M.000006251 0H419.5V595.25H.000006251Z" clip-rule="evenodd"/>
</clipPath>
<clipPath id="clip_47">
<path transform="matrix(1,0,0,-1,0,595.25)" d="M.00001251 0H419.5V595.25H.00001251Z" clip-rule="evenodd"/>
</clipPath>
<clipPath id="clip_48">
<path transform="matrix(1,0,0,-1,0,595.25)" d="M.000006251 0H419.5V595.25H.000006251Z" clip-rule="evenodd"/>
</clipPath>
<clipPath id="clip_49">
<path transform="matrix(1,0,0,-1,0,595.25)" d="M.000006251 0H419.5V595.25H.000006251Z" clip-rule="evenodd"/>
</clipPath>
<clipPath id="clip_50">
<path transform="matrix(1,0,0,-1,0,595.25)" d="M.000006251 0H419.5V595.25H.000006251Z" clip-rule="evenodd"/>
</clipPath>
<clipPath id="clip_51">
<path transform="matrix(1,0,0,-1,0,595.25)" d="M.000006251 0H419.5V595.25H.000006251Z" clip-rule="evenodd"/>
</clipPath>
<clipPath id="clip_52">
<path transform="matrix(1,0,0,-1,0,595.25)" d="M.000006251 0H419.5V595.25H.000006251Z" clip-rule="evenodd"/>
</clipPath>
<clipPath id="clip_53">
<path transform="matrix(1,0,0,-1,0,595.25)" d="M.00001251 0H419.5V595.25H.00001251Z" clip-rule="evenodd"/>
</clipPath>
<clipPath id="clip_54">
<path transform="matrix(1,0,0,-1,0,595.25)" d="M.000006251 0H419.5V595.25H.000006251Z" clip-rule="evenodd"/>
</clipPath>
<clipPath id="clip_55">
<path transform="matrix(1,0,0,-1,0,595.25)" d="M.000006251 0H419.5V595.25H.000006251Z" clip-rule="evenodd"/>
</clipPath>
<clipPath id="clip_56">
<path transform="matrix(1,0,0,-1,0,595.25)" d="M.000006251 0H419.5V595.25H.000006251Z" clip-rule="evenodd"/>
</clipPath>
<clipPath id="clip_57">
<path transform="matrix(1,0,0,-1,0,595.25)" d="M.000006251 0H419.5V595.25H.000006251Z" clip-rule="evenodd"/>
</clipPath>
<clipPath id="clip_58">
<path transform="matrix(1,0,0,-1,0,595.25)" d="M.000006251 0H419.5V595.25H.000006251Z" clip-rule="evenodd"/>
</clipPath>
<clipPath id="clip_59">
<path transform="matrix(1,0,0,-1,0,595.25)" d="M.000006251 0H419.5V595.25H.000006251Z" clip-rule="evenodd"/>
</clipPath>
<clipPath id="clip_60">
<path transform="matrix(1,0,0,-1,0,595.25)" d="M.000006251 0H419.5V595.25H.000006251Z" clip-rule="evenodd"/>
</clipPath>
<clipPath id="clip_61">
<path transform="matrix(1,0,0,-1,0,595.25)" d="M.00001251 0H419.5V595.25H.00001251Z" clip-rule="evenodd"/>
</clipPath>
<clipPath id="clip_62">
<path transform="matrix(1,0,0,-1,0,595.25)" d="M.000006251 0H419.5V595.25H.000006251Z" clip-rule="evenodd"/>
</clipPath>
<clipPath id="clip_63">
<path transform="matrix(1,0,0,-1,0,595.25)" d="M.000006251 0H419.5V595.25H.000006251Z" clip-rule="evenodd"/>
</clipPath>
<clipPath id="clip_64">
<path transform="matrix(1,0,0,-1,0,595.25)" d="M.000006251 0H419.5V595.25H.000006251Z" clip-rule="evenodd"/>
</clipPath>
<clipPath id="clip_65">
<path transform="matrix(1,0,0,-1,0,595.25)" d="M.000006251 0H419.5V595.25H.000006251Z" clip-rule="evenodd"/>
</clipPath>
<clipPath id="clip_66">
<path transform="matrix(1,0,0,-1,0,595.25)" d="M.000006251 0H419.5V595.25H.000006251Z" clip-rule="evenodd"/>
</clipPath>
<clipPath id="clip_67">
<path transform="matrix(1,0,0,-1,0,595.25)" d="M.000006251 0H419.5V595.25H.000006251Z" clip-rule="evenodd"/>
</clipPath>
<clipPath id="clip_68">
<path transform="matrix(1,0,0,-1,0,595.25)" d="M.000006251 0H419.5V595.25H.000006251Z" clip-rule="evenodd"/>
</clipPath>
<clipPath id="clip_69">
<path transform="matrix(1,0,0,-1,0,595.25)" d="M.000006251 0H419.5V595.25H.000006251Z" clip-rule="evenodd"/>
</clipPath>
<clipPath id="clip_70">
<path transform="matrix(1,0,0,-1,0,595.25)" d="M.000006251 0H419.5V595.25H.000006251Z" clip-rule="evenodd"/>
</clipPath>
<clipPath id="clip_71">
<path transform="matrix(1,0,0,-1,0,595.25)" d="M.000006251 0H419.5V595.25H.000006251Z" clip-rule="evenodd"/>
</clipPath>
<clipPath id="clip_72">
<path transform="matrix(1,0,0,-1,0,595.25)" d="M.000006251 0H419.5V595.25H.000006251Z" clip-rule="evenodd"/>
</clipPath>
<clipPath id="clip_73">
<path transform="matrix(1,0,0,-1,0,595.25)" d="M.000006251 0H419.5V595.25H.000006251Z" clip-rule="evenodd"/>
</clipPath>
<clipPath id="clip_74">
<path transform="matrix(1,0,0,-1,0,595.25)" d="M.00001251 0H419.5V595.25H.00001251Z" clip-rule="evenodd"/>
</clipPath>
<clipPath id="clip_75">
<path transform="matrix(1,0,0,-1,0,595.25)" d="M.000006251 0H419.5V595.25H.000006251Z" clip-rule="evenodd"/>
</clipPath>
<clipPath id="clip_76">
<path transform="matrix(1,0,0,-1,0,595.25)" d="M.000006251 0H419.5V595.25H.000006251Z" clip-rule="evenodd"/>
</clipPath>
<clipPath id="clip_77">
<path transform="matrix(1,0,0,-1,0,595.25)" d="M.000006251 0H419.5V595.25H.000006251Z" clip-rule="evenodd"/>
</clipPath>
<clipPath id="clip_78">
<path transform="matrix(1,0,0,-1,0,595.25)" d="M.00001251 0H419.5V595.25H.00001251Z" clip-rule="evenodd"/>
</clipPath>
<clipPath id="clip_79">
<path transform="matrix(1,0,0,-1,0,595.25)" d="M.000006251 0H419.5V595.25H.000006251Z" clip-rule="evenodd"/>
</clipPath>
<clipPath id="clip_80">
<path transform="matrix(1,0,0,-1,0,595.25)" d="M.000006251 0H419.5V595.25H.000006251Z" clip-rule="evenodd"/>
</clipPath>
<clipPath id="clip_81">
<path transform="matrix(1,0,0,-1,0,595.25)" d="M.000006251 0H419.5V595.25H.000006251Z" clip-rule="evenodd"/>
</clipPath>
<clipPath id="clip_82">
<path transform="matrix(1,0,0,-1,0,595.25)" d="M.000006251 0H419.5V595.25H.000006251Z" clip-rule="evenodd"/>
</clipPath>
<clipPath id="clip_83">
<path transform="matrix(1,0,0,-1,0,595.25)" d="M.000006251 0H419.5V595.25H.000006251Z" clip-rule="evenodd"/>
</clipPath>
<clipPath id="clip_84">
<path transform="matrix(1,0,0,-1,0,595.25)" d="M.000006251 0H419.5V595.25H.000006251Z" clip-rule="evenodd"/>
</clipPath>
<clipPath id="clip_85">
<path transform="matrix(1,0,0,-1,0,595.25)" d="M.000006251 0H419.5V595.25H.000006251Z" clip-rule="evenodd"/>
</clipPath>
<clipPath id="clip_86">
<path transform="matrix(1,0,0,-1,0,595.25)" d="M.000006251 0H419.5V595.25H.000006251Z" clip-rule="evenodd"/>
</clipPath>
<clipPath id="clip_87">
<path transform="matrix(1,0,0,-1,0,595.25)" d="M.00001251 0H419.5V595.25H.00001251Z" clip-rule="evenodd"/>
</clipPath>
<clipPath id="clip_88">
<path transform="matrix(1,0,0,-1,0,595.25)" d="M.000006251 0H419.5V595.25H.000006251Z" clip-rule="evenodd"/>
</clipPath>
<clipPath id="clip_89">
<path transform="matrix(1,0,0,-1,0,595.25)" d="M.000006251 0H419.5V595.25H.000006251Z" clip-rule="evenodd"/>
</clipPath>
<clipPath id="clip_90">
<path transform="matrix(1,0,0,-1,0,595.25)" d="M.000006251 0H419.5V595.25H.000006251Z" clip-rule="evenodd"/>
</clipPath>
<clipPath id="clip_91">
<path transform="matrix(1,0,0,-1,0,595.25)" d="M.00001251 0H419.5V595.25H.00001251Z" clip-rule="evenodd"/>
</clipPath>
<clipPath id="clip_92">
<path transform="matrix(1,0,0,-1,0,595.25)" d="M.000006251 0H419.5V595.25H.000006251Z" clip-rule="evenodd"/>
</clipPath>
<clipPath id="clip_93">
<path transform="matrix(1,0,0,-1,0,595.25)" d="M.000006251 0H419.5V595.25H.000006251Z" clip-rule="evenodd"/>
</clipPath>
<clipPath id="clip_94">
<path transform="matrix(1,0,0,-1,0,595.25)" d="M.000006251 0H419.5V595.25H.000006251Z" clip-rule="evenodd"/>
</clipPath>
<clipPath id="clip_95">
<path transform="matrix(1,0,0,-1,0,595.25)" d="M.000006251 0H419.5V595.25H.000006251Z" clip-rule="evenodd"/>
</clipPath>
<clipPath id="clip_96">
<path transform="matrix(1,0,0,-1,0,595.25)" d="M.000006251 0H419.5V595.25H.000006251Z" clip-rule="evenodd"/>
</clipPath>
<clipPath id="clip_97">
<path transform="matrix(1,0,0,-1,0,595.25)" d="M.000006251 0H419.5V595.25H.000006251Z" clip-rule="evenodd"/>
</clipPath>
<clipPath id="clip_98">
<path transform="matrix(1,0,0,-1,0,595.25)" d="M.000006251 0H419.5V595.25H.000006251Z" clip-rule="evenodd"/>
</clipPath>
<clipPath id="clip_99">
<path transform="matrix(1,0,0,-1,0,595.25)" d="M.00001251 0H419.5V595.25H.00001251Z" clip-rule="evenodd"/>
</clipPath>
<clipPath id="clip_100">
<path transform="matrix(1,0,0,-1,0,595.25)" d="M.000006251 0H419.5V595.25H.000006251Z" clip-rule="evenodd"/>
</clipPath>
<clipPath id="clip_101">
<path transform="matrix(1,0,0,-1,0,595.25)" d="M.000006251 0H419.5V595.25H.000006251Z" clip-rule="evenodd"/>
</clipPath>
<clipPath id="clip_102">
<path transform="matrix(1,0,0,-1,0,595.25)" d="M.000006251 0H419.5V595.25H.000006251Z" clip-rule="evenodd"/>
</clipPath>
<clipPath id="clip_103">
<path transform="matrix(1,0,0,-1,0,595.25)" d="M.000006251 0H419.5V595.25H.000006251Z" clip-rule="evenodd"/>
</clipPath>
<clipPath id="clip_104">
<path transform="matrix(1,0,0,-1,0,595.25)" d="M.000006251 0H419.5V595.25H.000006251Z" clip-rule="evenodd"/>
</clipPath>
<clipPath id="clip_105">
<path transform="matrix(1,0,0,-1,0,595.25)" d="M.000006251 0H419.5V595.25H.000006251Z" clip-rule="evenodd"/>
</clipPath>
<clipPath id="clip_106">
<path transform="matrix(1,0,0,-1,0,595.25)" d="M.000006251 0H419.5V595.25H.000006251Z" clip-rule="evenodd"/>
</clipPath>
<clipPath id="clip_107">
<path transform="matrix(1,0,0,-1,0,595.25)" d="M.000006251 0H419.5V595.25H.000006251Z" clip-rule="evenodd"/>
</clipPath>
<clipPath id="clip_108">
<path transform="matrix(1,0,0,-1,0,595.25)" d="M.00001251 0H419.5V595.25H.00001251Z" clip-rule="evenodd"/>
</clipPath>
<clipPath id="clip_109">
<path transform="matrix(1,0,0,-1,0,595.25)" d="M.000006251 0H419.5V595.25H.000006251Z" clip-rule="evenodd"/>
</clipPath>
<clipPath id="clip_110">
<path transform="matrix(1,0,0,-1,0,595.25)" d="M.000006251 0H419.5V595.25H.000006251Z" clip-rule="evenodd"/>
</clipPath>
<clipPath id="clip_111">
<path transform="matrix(1,0,0,-1,0,595.25)" d="M.000006251 0H419.5V595.25H.000006251Z" clip-rule="evenodd"/>
</clipPath>
<clipPath id="clip_112">
<path transform="matrix(1,0,0,-1,0,595.25)" d="M.00001251 0H419.5V595.25H.00001251Z" clip-rule="evenodd"/>
</clipPath>
<clipPath id="clip_113">
<path transform="matrix(1,0,0,-1,0,595.25)" d="M.000006251 0H419.5V595.25H.000006251Z" clip-rule="evenodd"/>
</clipPath>
<clipPath id="clip_114">
<path transform="matrix(1,0,0,-1,0,595.25)" d="M.000006251 0H419.5V595.25H.000006251Z" clip-rule="evenodd"/>
</clipPath>
<clipPath id="clip_115">
<path transform="matrix(1,0,0,-1,0,595.25)" d="M.000006251 0H419.5V595.25H.000006251Z" clip-rule="evenodd"/>
</clipPath>
<clipPath id="clip_116">
<path transform="matrix(1,0,0,-1,0,595.25)" d="M.00001251 0H419.5V595.25H.00001251Z" clip-rule="evenodd"/>
</clipPath>
<clipPath id="clip_117">
<path transform="matrix(1,0,0,-1,0,595.25)" d="M.000006251 0H419.5V595.25H.000006251Z" clip-rule="evenodd"/>
</clipPath>
<clipPath id="clip_118">
<path transform="matrix(1,0,0,-1,0,595.25)" d="M.000006251 0H419.5V595.25H.000006251Z" clip-rule="evenodd"/>
</clipPath>
<clipPath id="clip_119">
<path transform="matrix(1,0,0,-1,0,595.25)" d="M.000006251 0H419.5V595.25H.000006251Z" clip-rule="evenodd"/>
</clipPath>
<clipPath id="clip_120">
<path transform="matrix(1,0,0,-1,0,595.25)" d="M.00001251 0H419.5V595.25H.00001251Z" clip-rule="evenodd"/>
</clipPath>
<clipPath id="clip_121">
<path transform="matrix(1,0,0,-1,0,595.25)" d="M.000006251 0H419.5V595.25H.000006251Z" clip-rule="evenodd"/>
</clipPath>
<clipPath id="clip_122">
<path transform="matrix(1,0,0,-1,0,595.25)" d="M.000006251 0H419.5V595.25H.000006251Z" clip-rule="evenodd"/>
</clipPath>
<clipPath id="clip_123">
<path transform="matrix(1,0,0,-1,0,595.25)" d="M.000006251 0H419.5V595.25H.000006251Z" clip-rule="evenodd"/>
</clipPath>
<clipPath id="clip_124">
<path transform="matrix(1,0,0,-1,0,595.25)" d="M.00001251 0H419.5V595.25H.00001251Z" clip-rule="evenodd"/>
</clipPath>
<clipPath id="clip_125">
<path transform="matrix(1,0,0,-1,0,595.25)" d="M.000006251 0H419.5V595.25H.000006251Z" clip-rule="evenodd"/>
</clipPath>
<clipPath id="clip_126">
<path transform="matrix(1,0,0,-1,0,595.25)" d="M.000006251 0H419.5V595.25H.000006251Z" clip-rule="evenodd"/>
</clipPath>
<clipPath id="clip_127">
<path transform="matrix(1,0,0,-1,0,595.25)" d="M.000006251 0H419.5V595.25H.000006251Z" clip-rule="evenodd"/>
</clipPath>
<clipPath id="clip_128">
<path transform="matrix(1,0,0,-1,0,595.25)" d="M.00001251 0H419.5V595.25H.00001251Z" clip-rule="evenodd"/>
</clipPath>
<clipPath id="clip_129">
<path transform="matrix(1,0,0,-1,0,595.25)" d="M.000006251 0H419.5V595.25H.000006251Z" clip-rule="evenodd"/>
</clipPath>
<clipPath id="clip_130">
<path transform="matrix(1,0,0,-1,0,595.25)" d="M.000006251 0H419.5V595.25H.000006251Z" clip-rule="evenodd"/>
</clipPath>
<clipPath id="clip_131">
<path transform="matrix(1,0,0,-1,0,595.25)" d="M.000006251 0H419.5V595.25H.000006251Z" clip-rule="evenodd"/>
</clipPath>
<clipPath id="clip_132">
<path transform="matrix(1,0,0,-1,0,595.25)" d="M.000006251 0H419.5V595.25H.000006251Z" clip-rule="evenodd"/>
</clipPath>
<clipPath id="clip_133">
<path transform="matrix(1,0,0,-1,0,595.25)" d="M.000006251 0H419.5V595.25H.000006251Z" clip-rule="evenodd"/>
</clipPath>
<clipPath id="clip_134">
<path transform="matrix(1,0,0,-1,0,595.25)" d="M.000006251 0H419.5V595.25H.000006251Z" clip-rule="evenodd"/>
</clipPath>
<clipPath id="clip_135">
<path transform="matrix(1,0,0,-1,0,595.25)" d="M.000006251 0H419.5V595.25H.000006251Z" clip-rule="evenodd"/>
</clipPath>
<clipPath id="clip_136">
<path transform="matrix(1,0,0,-1,0,595.25)" d="M.000006251 0H419.5V595.25H.000006251Z" clip-rule="evenodd"/>
</clipPath>
<clipPath id="clip_137">
<path transform="matrix(1,0,0,-1,0,595.25)" d="M.000006251 0H419.5V595.25H.000006251Z" clip-rule="evenodd"/>
</clipPath>
<clipPath id="clip_138">
<path transform="matrix(1,0,0,-1,0,595.25)" d="M.000006251 0H419.5V595.25H.000006251Z" clip-rule="evenodd"/>
</clipPath>
<clipPath id="clip_139">
<path transform="matrix(1,0,0,-1,0,595.25)" d="M.000006251 0H419.5V595.25H.000006251Z" clip-rule="evenodd"/>
</clipPath>
<clipPath id="clip_140">
<path transform="matrix(1,0,0,-1,0,595.25)" d="M.000006251 0H419.5V595.25H.000006251Z" clip-rule="evenodd"/>
</clipPath>
<clipPath id="clip_141">
<path transform="matrix(1,0,0,-1,0,595.25)" d="M.000006251 0H419.5V595.25H.000006251Z" clip-rule="evenodd"/>
</clipPath>
<clipPath id="clip_142">
<path transform="matrix(1,0,0,-1,0,595.25)" d="M.000006251 0H419.5V595.25H.000006251Z" clip-rule="evenodd"/>
</clipPath>
<clipPath id="clip_143">
<path transform="matrix(1,0,0,-1,0,595.25)" d="M.000006251 0H419.5V595.25H.000006251Z" clip-rule="evenodd"/>
</clipPath>
<clipPath id="clip_144">
<path transform="matrix(1,0,0,-1,0,595.25)" d="M.000006251 0H419.5V595.25H.000006251Z" clip-rule="evenodd"/>
</clipPath>
<clipPath id="clip_145">
<path transform="matrix(1,0,0,-1,0,595.25)" d="M.000006251 0H419.5V595.25H.000006251Z" clip-rule="evenodd"/>
</clipPath>
<clipPath id="clip_146">
<path transform="matrix(1,0,0,-1,0,595.25)" d="M.00001251 0H419.5V595.25H.00001251Z" clip-rule="evenodd"/>
</clipPath>
<clipPath id="clip_147">
<path transform="matrix(1,0,0,-1,0,595.25)" d="M.000006251 0H419.5V595.25H.000006251Z" clip-rule="evenodd"/>
</clipPath>
<clipPath id="clip_148">
<path transform="matrix(1,0,0,-1,0,595.25)" d="M.000006251 0H419.5V595.25H.000006251Z" clip-rule="evenodd"/>
</clipPath>
<clipPath id="clip_149">
<path transform="matrix(1,0,0,-1,0,595.25)" d="M.000006251 0H419.5V595.25H.000006251Z" clip-rule="evenodd"/>
</clipPath>
<clipPath id="clip_150">
<path transform="matrix(1,0,0,-1,0,595.25)" d="M.00001251 0H419.5V595.25H.00001251Z" clip-rule="evenodd"/>
</clipPath>
<clipPath id="clip_151">
<path transform="matrix(1,0,0,-1,0,595.25)" d="M.000006251 0H419.5V595.25H.000006251Z" clip-rule="evenodd"/>
</clipPath>
<clipPath id="clip_152">
<path transform="matrix(1,0,0,-1,0,595.25)" d="M.000006251 0H419.5V595.25H.000006251Z" clip-rule="evenodd"/>
</clipPath>
<clipPath id="clip_153">
<path transform="matrix(1,0,0,-1,0,595.25)" d="M.000006251 0H419.5V595.25H.000006251Z" clip-rule="evenodd"/>
</clipPath>
<clipPath id="clip_154">
<path transform="matrix(1,0,0,-1,0,595.25)" d="M.000006251 0H419.5V595.25H.000006251Z" clip-rule="evenodd"/>
</clipPath>
<clipPath id="clip_155">
<path transform="matrix(1,0,0,-1,0,595.25)" d="M.000006251 0H419.5V595.25H.000006251Z" clip-rule="evenodd"/>
</clipPath>
<clipPath id="clip_156">
<path transform="matrix(1,0,0,-1,0,595.25)" d="M.000006251 0H419.5V595.25H.000006251Z" clip-rule="evenodd"/>
</clipPath>
</defs>
<g>
<g clip-path="url(#clip_1)">
</g>
<g clip-path="url(#clip_2)">
</g>
<g clip-path="url(#clip_3)">
<g clip-path="url(#clip_4)">
</g>
<g clip-path="url(#clip_5)">
</g>
</g>
<g clip-path="url(#clip_6)">
<text xml:space="preserve" transform="matrix(1 0 -0 1 0 595.25)" font-size="11" font-family="Times New Roman"><tspan y="-530.97" x="57.525 60.528 66.028 68.778 73.057 78.018009 83.518009 86.268009 89.271 94.771 99.76501 102.768009 105.518009 110.51201 113.51501 116.518009 119.268009 123.00801 128.50801 134.00801 137.748 140.498 145.998 149.73799 152.48799 155.491 160.991 165.985 169.98902 174.98302 177.73302 185.71903 191.21903 194.95902 200.45902 204.73802 207.48802 215.95803 220.95203 226.45203 229.20203 234.44902 239.44303 244.94303 249.93703 252.68703 257.93403 262.928 267.922 273.422 275.919 283.905 287.645 290.648 293.65104 296.65406 301.64805 307.14805 309.89805 312.64805 318.14805 320.89805 325.89204 328.89506 334.39506 338.67405 343.63505">to say that all four of these works may have been written in close </tspan></text>
</g>
<g clip-path="url(#clip_7)">
<text xml:space="preserve" transform="matrix(1 0 -0 1 0 595.25)" font-size="11" font-family="Times New Roman"><tspan y="-516.47" x="57.525 63.025 66.76501 72.26501 77.76501 80.768009 89.271 92.274 95.277 100.777 103.527 106.277 111.271 116.771 121.76501 125.50501 131.005 135.99901 141.49901 145.77802 148.52802 154.02802 159.52802 162.27802 170.74802 176.24802 179.74602 184.74002 187.49002 190.49303 195.99303 200.98703 206.48703 209.23703 212.24004 220.22605 225.22005 230.72005 233.72306 239.22306 241.97306 247.22005 252.21405 257.20805 260.94804 264.95204 269.946 272.696 277.69 282.937 287.931 291.671 294.674">proximity, &#x201c;perhaps no more than twenty years&#x201d; apart.</tspan></text>
</g>
<g clip-path="url(#clip_8)">
<text xml:space="preserve" transform="matrix(1 0 -0 1 0 595.25)" font-size="7" font-family="Times New Roman"><tspan y="-520.47" x="297.42 300.92">11</tspan></text>
</g>
<g clip-path="url(#clip_9)">
<text xml:space="preserve" transform="matrix(1 0 -0 1 0 595.25)" font-size="11" font-family="Times New Roman"><tspan y="-516.47" x="304.43"> </tspan></text>
</g>
<g clip-path="url(#clip_10)">
<text xml:space="preserve" transform="matrix(1 0 -0 1 0 595.25)" font-size="11" font-family="Times New Roman"><tspan y="-516.47" x="307.17 313.89103 318.907 324.407 327.41004 332.91004 338.41004 341.16004 344.16307 349.66307 352.66609 358.16609">Taking into </tspan></text>
</g>
<g clip-path="url(#clip_11)">
<text xml:space="preserve" transform="matrix(1 0 -0 1 0 595.25)" font-size="11" font-family="Times New Roman"><tspan y="-501.95" x="57.525 62.519 67.513 72.507 78.007 83.507 89.007 92.01 94.76 100.26 103.263 108.763 113.515 117.255008 120.005008 124.99901 130.49901 133.50202 139.00202 143.99602 149.24301 154.23702 159.23102 161.98102 164.73102 169.01003 174.23503 179.22904 184.72904 187.47904 192.47304 196.75205 199.50205 205.00205 207.97205 212.25106 215.00106 217.97106 223.47106 226.47406 231.46807 235.20806 240.45505 244.19504 249.18904 252.19205 257.18605 260.18907 263.19209 268.69209 274.19209 276.94209 282.44209 286.18208 288.93208 294.43208 297.4351 302.9351 305.6851 308.1821 313.6821 318.6761 321.4261 325.70509 331.20509 336.70509 342.20509 347.16609 351.44508 354.41508 358.69407">account other evidence, such as his interpretation of 3:4, he suggests </tspan></text>
</g>
<g clip-path="url(#clip_12)">
<text xml:space="preserve" transform="matrix(1 0 -0 1 0 595.25)" font-size="11" font-family="Times New Roman"><tspan y="-487.2" x="57.525 60.528 66.028 71.022 74.025 76.775 79.778 85.278 90.272 93.022 98.522 103.51601 106.519008 109.522 115.022 120.522 123.272 126.275 130.554 133.304 138.804 142.511 148.011 153.511 158.505 164.005 167.00801 172.50801 175.25801 180.25202 185.24602 187.99602 190.49301 198.47902 206.46503 209.21503 214.71503">that the dating is probably &#x201c;c. AD 80</tspan></text>
</g>
<g clip-path="url(#clip_13)">
<text xml:space="preserve" transform="matrix(1 0 -0 1 0 595.25)" font-size="11" font-family="Times New Roman"><tspan y="-487.2" x="220.38">-</tspan></text>
</g>
<g clip-path="url(#clip_14)">
<text xml:space="preserve" transform="matrix(1 0 -0 1 0 595.25)" font-size="11" font-family="Times New Roman"><tspan y="-487.2" x="224.13 229.63 235.13 237.627 242.621 245.371 253.35701 258.35099 261.354 264.35704 267.10704 271.85905 275.59904 278.60206 283.59605 287.33604 290.08604 296.08103 301.075 303.825 308.819 312.317 316.05699 320.33598 323.08598 328.58598 333.54698 338.54096 341.54399 347.04399">90,&#x201d; well after Peter&#x2019;s death.</tspan></text>
</g>
<g clip-path="url(#clip_15)">
<text xml:space="preserve" transform="matrix(1 0 -0 1 0 595.25)" font-size="7" font-family="Times New Roman"><tspan y="-491.2" x="349.7 353.2">12</tspan></text>
</g>
<g clip-path="url(#clip_16)">
<text xml:space="preserve" transform="matrix(1 0 -0 1 0 595.25)" font-size="11" font-family="Times New Roman"><tspan y="-487.2" x="356.7"> </tspan></text>
</g>
<g clip-path="url(#clip_17)">
<text xml:space="preserve" transform="matrix(1 0 -0 1 0 595.25)" font-size="11" font-family="Times New Roman"><tspan y="-472.7" x="93.55 103.329 106.299 111.29301 116.79301 121.78701 126.78101 129.78403 132.53403 140.52004 144.26003 149.76003 155.00702 160.00102 163.74102 166.49102 169.49402 174.24602 177.98601 183.48601 188.48001 191.48302 196.98302 199.48001 204.47402 209.97402 213.714 218.466 223.46 227.73902 230.48902 238.43102 241.48902 244.45902 249.95902 252.70902 259.958 264.952 270.452 275.44599 280.94599 286.193 291.18699 299.69 302.44 307.94 313.44 316.19 321.69 326.684 329.687 332.69004 338.19004 343.69004">Michael Kruger largely agrees with Bauckham on dating.</tspan></text>
</g>
<g clip-path="url(#clip_18)">
<text xml:space="preserve" transform="matrix(1 0 -0 1 0 595.25)" font-size="7" font-family="Times New Roman"><tspan y="-476.7" x="346.7 350.2">13</tspan></text>
</g>
<g clip-path="url(#clip_19)">
<text xml:space="preserve" transform="matrix(1 0 -0 1 0 595.25)" font-size="11" font-family="Times New Roman"><tspan y="-472.7" x="353.7"> </tspan></text>
</g>
<g clip-path="url(#clip_20)">
<text xml:space="preserve" transform="matrix(1 0 -0 1 0 595.25)" font-size="11" font-family="Times New Roman"><tspan y="-458.2" x="57.525 65.511 69.25101 74.75101 80.25101 85.24501 88.985019 91.735019 94.738018 99.985019 103.72502 109.22502 113.50402 116.25402 119.22402 124.72402 127.47402 130.47704 135.97704 140.97104 143.72104 148.71504 153.46704 157.20703 160.21004 165.71004 168.46004 175.70905 181.20905 186.70905 190.44904 195.44304 200.94304 203.69304 209.68804 214.68204 217.68505 223.18505 227.93704 231.67704 235.95604 238.70604 241.45604 246.95604 252.45604 255.42604 258.42906 263.92906 269.42906 272.17906 275.18208 280.68208 285.67607 288.67909 291.42909 296.42308 303.67207 306.67509 311.66908 320.1721 325.16609 330.66609 333.6691 336.4191 341.9191 345.6591">Kruger turns to the early Church Fathers, noting that &#x201c;Clement of </tspan></text>
</g>
<g clip-path="url(#clip_21)">
<text xml:space="preserve" transform="matrix(1 0 -0 1 0 595.25)" font-size="11" font-family="Times New Roman"><tspan y="-443.67" x="57.525 65.511 68.514 73.508 79.008 84.00201 89.50201 95.00201 98.74201 101.49201 106.486019 109.236019 112.97602 117.970027 120.720027 123.470027 128.97003 134.47003">Alexandria (c. 150</tspan></text>
</g>
<g clip-path="url(#clip_22)">
<text xml:space="preserve" transform="matrix(1 0 -0 1 0 595.25)" font-size="11" font-family="Times New Roman"><tspan y="-443.67" x="139.83">-</tspan></text>
</g>
<g clip-path="url(#clip_23)">
<text xml:space="preserve" transform="matrix(1 0 -0 1 0 595.25)" font-size="11" font-family="Times New Roman"><tspan y="-443.67" x="143.58 149.08 154.58 160.08 163.578 168.572 171.322 179.30802 183.048 188.548 191.55101 196.54502 199.042 204.03601 206.78601 212.28601 217.78601">215)&#x201d; wrote a now</tspan></text>
</g>
<g clip-path="url(#clip_24)">
<text xml:space="preserve" transform="matrix(1 0 -0 1 0 595.25)" font-size="11" font-family="Times New Roman"><tspan y="-443.67" x="225.88">-</tspan></text>
</g>
<g clip-path="url(#clip_25)">
<text xml:space="preserve" transform="matrix(1 0 -0 1 0 595.25)" font-size="11" font-family="Times New Roman"><tspan y="-443.67" x="229.63 232.63301 238.13301 242.41202 245.38202 248.13202 253.12602 258.62605 267.12907 275.63209 280.62608 286.12608 288.87608 293.87007 297.61006 303.11006 305.86006 311.10707 316.60707 319.35707 324.85707 327.60707 333.60206 338.59605 341.59907 346.59306 350.33305">lost commentary on 2 Peter.</tspan></text>
</g>
<g clip-path="url(#clip_26)">
<text xml:space="preserve" transform="matrix(1 0 -0 1 0 595.25)" font-size="7" font-family="Times New Roman"><tspan y="-447.7" x="352.95 356.45">14</tspan></text>
</g>
<g clip-path="url(#clip_27)">
<text xml:space="preserve" transform="matrix(1 0 -0 1 0 595.25)" font-size="11" font-family="Times New Roman"><tspan y="-443.67" x="359.95"> </tspan></text>
</g>
<g clip-path="url(#clip_28)">
<text xml:space="preserve" transform="matrix(1 0 -0 1 0 595.25)" font-size="11" font-family="Times New Roman"><tspan y="-429.17" x="57.525 62.519 66.259 69.757 74.75101 80.25101 85.003009 89.99701 95.49701 99.77601 102.52601 106.23301 111.22701 113.97701 116.72701 122.22701 127.72701">&#x201c;Irenaeus (c. 130</tspan></text>
</g>
<g clip-path="url(#clip_29)">
<text xml:space="preserve" transform="matrix(1 0 -0 1 0 595.25)" font-size="11" font-family="Times New Roman"><tspan y="-429.17" x="133.08">-</tspan></text>
</g>
<g clip-path="url(#clip_30)">
<text xml:space="preserve" transform="matrix(1 0 -0 1 0 595.25)" font-size="11" font-family="Times New Roman"><tspan y="-429.17" x="136.83 142.33 147.83 153.33 157.06999 162.064 164.814 173.064 178.058 183.558 186.308 191.808 196.802 202.049 207.043 209.793 214.787 217.79001 222.06902 227.56902 230.31902 235.81902 241.31902 246.81902 254.76102 260.26103 263.01103 266.06904 271.56904 276.53004 279.02705 284.02104 289.52104 292.52406 296.80305 299.77305 302.77607 307.77006">200)&#x201d; may have also known the epistle.</tspan></text>
</g>
<g clip-path="url(#clip_31)">
<text xml:space="preserve" transform="matrix(1 0 -0 1 0 595.25)" font-size="7" font-family="Times New Roman"><tspan y="-433.17" x="310.67 314.17">15</tspan></text>
</g>
<g clip-path="url(#clip_32)">
<text xml:space="preserve" transform="matrix(1 0 -0 1 0 595.25)" font-size="11" font-family="Times New Roman"><tspan y="-429.17" x="317.67"> </tspan></text>
</g>
<g clip-path="url(#clip_33)">
<text xml:space="preserve" transform="matrix(1 0 -0 1 0 595.25)" font-size="11" font-family="Times New Roman"><tspan y="-429.17" x="320.45 328.436 331.43904 335.71803 341.21803 343.96803">Also, </tspan></text>
</g>
<g clip-path="url(#clip_34)">
<text xml:space="preserve" transform="matrix(1 0 -0 1 0 595.25)" font-size="11" font-family="Times New Roman"><tspan y="-414.67" x="57.525 62.519 66.798007 72.298007 76.522 79.525 82.528 88.028 90.778 100.557 105.518009 109.25801 112.26101 117.76101 121.501018 124.251018 127.99102 132.98502 135.73502 138.48502 143.98502 149.48502">&#x201c;Justin Martyr (c. 115</tspan></text>
</g>
<g clip-path="url(#clip_35)">
<text xml:space="preserve" transform="matrix(1 0 -0 1 0 595.25)" font-size="11" font-family="Times New Roman"><tspan y="-414.67" x="154.85">-</tspan></text>
</g>
<g clip-path="url(#clip_36)">
<text xml:space="preserve" transform="matrix(1 0 -0 1 0 595.25)" font-size="11" font-family="Times New Roman"><tspan y="-414.67" x="158.6 164.1 169.6 175.1 178.598 183.59201 186.34201 194.84502 199.83902 205.33902 208.08902 213.08303 216.08603 219.08904 224.58904 230.08904 235.08304 237.83304 240.83605 246.33605 249.08605 254.58605 257.33607 263.33106 268.32505 271.32807 276.08009 279.82008 282.57008 288.07008 291.0731 296.5731 299.3231 302.3261 307.8261 310.5761 316.0761 319.07914 323.35813 326.10813 334.0501 339.5501 343.3231 348.8231">165)&#x201d; may allude to 2 Peter 2:1 in his work </tspan></text>
</g>
<g clip-path="url(#clip_37)">
<text xml:space="preserve" transform="matrix(1 0 -0 1 0 595.25)" font-size="11" font-family="Times New Roman" font-style="italic"><tspan y="-399.92" x="57.525 65.511 68.514 74.014 77.017 82.517 88.017 93.517 98.511 101.261 108.51 111.513 114.516 120.016 122.766 128.761 133.04001 138.001 143.501 149.001">Dialogue with Trypho</tspan></text>
</g>
<g clip-path="url(#clip_38)">
<text xml:space="preserve" transform="matrix(1 0 -0 1 0 595.25)" font-size="11" font-family="Times New Roman"><tspan y="-399.92" x="154.6">.</tspan></text>
</g>
<g clip-path="url(#clip_39)">
<text xml:space="preserve" transform="matrix(1 0 -0 1 0 595.25)" font-size="7" font-family="Times New Roman"><tspan y="-403.92" x="157.6 161.1">16</tspan></text>
</g>
<g clip-path="url(#clip_40)">
<text xml:space="preserve" transform="matrix(1 0 -0 1 0 595.25)" font-size="11" font-family="Times New Roman"><tspan y="-399.92" x="164.6"> </tspan></text>
</g>
<g clip-path="url(#clip_41)">
<text xml:space="preserve" transform="matrix(1 0 -0 1 0 595.25)" font-size="11" font-family="Times New Roman"><tspan y="-399.92" x="167.35 171.09 176.59 179.34 184.334 189.834 193.332 198.326 203.32 211.57 216.56401 222.06401 225.06702 227.81702 235.80303 238.80603 241.80904 247.30904 250.05904 257.308 262.302 267.802 272.796 278.296 283.796 288.78999 297.293 300.043 302.793 310.54798 314.28797 319.53498 325.03498 330.02897 333.76896 336.51896 342.01896 347.51896 350.52198 355.51597 359.79496 362.54496 365.51496 371.01496 376.00895">In agreement with Bauckham, Kruger notes the </tspan></text>
</g>
<g clip-path="url(#clip_42)">
<text xml:space="preserve" transform="matrix(1 0 -0 1 0 595.25)" font-size="11" font-family="Times New Roman"><tspan y="-385.4" x="57.525 63.025 68.525 72.804 77.028 80.031 85.531 88.534 91.536998 94.53999 97.54299 103.04299 105.79299 110.786998 113.78999 119.28999 124.284 127.286998 130.03699 133.04 138.54 143.534">possibility &#x201c;that the </tspan></text>
</g>
<g clip-path="url(#clip_43)">
<text xml:space="preserve" transform="matrix(1 0 -0 1 0 595.25)" font-size="11" font-family="Times New Roman" font-style="italic"><tspan y="-385.4" x="146.33 153.051 158.551 164.051 169.067 174.567 177.57 182.56401 188.06401 192.34302 197.30402 200.05402 205.55402 208.55702 211.30702 218.02802 223.04402 226.04703 231.04103">Apocalypse of Peter</tspan></text>
</g>
<g clip-path="url(#clip_44)">
<text xml:space="preserve" transform="matrix(1 0 -0 1 0 595.25)" font-size="11" font-family="Times New Roman"><tspan y="-385.4" x="235.4"> </tspan></text>
</g>
<g clip-path="url(#clip_45)">
<text xml:space="preserve" transform="matrix(1 0 -0 1 0 595.25)" font-size="11" font-family="Times New Roman"><tspan y="-385.4" x="238.15 241.648 246.642 249.392 252.142 257.642 263.142 268.642 272.382 275.132 282.88697 287.88096 292.15995 294.90995 300.40995 305.37095 310.61796 315.61195 321.11195 326.61195 331.60594 337.10594 340.10896 342.85896 348.35896 353.85896 359.35896 364.85896 367.60896 373.10896">(c. 110) was dependent upon 2 </tspan></text>
</g>
<g clip-path="url(#clip_46)">
<text xml:space="preserve" transform="matrix(1 0 -0 1 0 595.25)" font-size="11" font-family="Times New Roman"><tspan y="-370.9" x="57.525 63.520006 68.51401 71.517009 76.51101 80.251018 83.001018">Peter.&#x201d;</tspan></text>
</g>
<g clip-path="url(#clip_47)">
<text xml:space="preserve" transform="matrix(1 0 -0 1 0 595.25)" font-size="7" font-family="Times New Roman"><tspan y="-374.9" x="87.8 91.3">17</tspan></text>
</g>
<g clip-path="url(#clip_48)">
<text xml:space="preserve" transform="matrix(1 0 -0 1 0 595.25)" font-size="11" font-family="Times New Roman"><tspan y="-370.9" x="94.8"> </tspan></text>
</g>
<g clip-path="url(#clip_49)">
<text xml:space="preserve" transform="matrix(1 0 -0 1 0 595.25)" font-size="11" font-family="Times New Roman"><tspan y="-370.9" x="97.55 103.545 106.548 112.048 117.042 120.045 123.048 128.548 131.298 134.048 142.03401 145.774 151.274 156.774 161.768 165.508 168.258 173.758 179.258 183.537 189.037 193.998 198.27701 201.02701 203.99701 209.49701 214.49102 217.24102 222.488 227.48201 230.48502 235.47902 238.22902 243.72902 248.48102 253.47502 258.97505 261.72505 264.72807 270.22807 273.23109 278.73109 281.48109 284.4841 289.9841 294.9781 297.7281 301.46809 304.4711 308.2111 312.49009 315.46009 317.9571 322.95109 327.94508 333.44508 336.4481 341.9481 345.68809 351.18809 353.93809 361.92408 364.9271 367.9301 373.4301">Finally, Kruger pushes the date back into the first century with </tspan></text>
</g>
<g clip-path="url(#clip_50)">
<text xml:space="preserve" transform="matrix(1 0 -0 1 0 595.25)" font-size="11" font-family="Times New Roman"><tspan y="-356.4" x="57.525 63.025 66.028 70.307 73.057 78.557 84.057 87.027 92.021 95.024 98.027 103.527 109.027 111.777 117.277 121.017009 123.767009 128.761 134.261 137.011 144.26001 147.26302 152.25702 160.76003 165.75403 171.25403 174.25704 177.00704 180.74703 185.74103 188.49103 191.24103 196.74103">his notation of &#x201c;1 Clement (c. 95</tspan></text>
</g>
<g clip-path="url(#clip_51)">
<text xml:space="preserve" transform="matrix(1 0 -0 1 0 595.25)" font-size="11" font-family="Times New Roman"><tspan y="-356.4" x="202.38">-</tspan></text>
</g>
<g clip-path="url(#clip_52)">
<text xml:space="preserve" transform="matrix(1 0 -0 1 0 595.25)" font-size="11" font-family="Times New Roman"><tspan y="-356.4" x="206.13 211.63 216.877 220.61699 223.36699">97).&#x201d;</tspan></text>
</g>
<g clip-path="url(#clip_53)">
<text xml:space="preserve" transform="matrix(1 0 -0 1 0 595.25)" font-size="7" font-family="Times New Roman"><tspan y="-360.4" x="228.13 231.63">18</tspan></text>
</g>
<g clip-path="url(#clip_54)">
<text xml:space="preserve" transform="matrix(1 0 -0 1 0 595.25)" font-size="11" font-family="Times New Roman"><tspan y="-356.4" x="235.15"> </tspan></text>
</g>
<g clip-path="url(#clip_55)">
<text xml:space="preserve" transform="matrix(1 0 -0 1 0 595.25)" font-size="11" font-family="Times New Roman"><tspan y="-356.4" x="237.9 248.394 253.894 258.88798 262.38597 267.37995 270.12995 277.88493 281.6249 287.1249 292.6249 297.6189 301.3589 303.8559 308.84989 314.34989 319.5969 322.3469 329.5959 334.58988 340.08988 345.08387 350.58387 356.08387 361.07786 369.58088">Where Kruger and Bauckham </tspan></text>
</g>
<g clip-path="url(#clip_56)">
<text xml:space="preserve" transform="matrix(1 0 -0 1 0 595.25)" font-size="11" font-family="Times New Roman"><tspan y="-341.9" x="57.525 63.025 66.028 71.528 76.522 80.26201 85.76201 90.75601 93.50601 96.50901 100.78801 103.53801 108.499019 111.502017 114.252017 119.752017 122.75501 128.255 131.005 133.755 141.00402 145.99802 151.49802 156.49202 161.99202 167.23902 172.23302 180.73603 183.48603 186.48903 191.98903 194.99204 199.98604 203.72603 209.22603 212.72403 217.71804 220.72104 225.00005 227.75005 232.71105 235.71405 241.21405 246.20806 248.95806 252.45606 257.45005 260.45307 265.95307 270.70509 274.44508 278.72407 283.68507 286.43507 289.43809 294.93809 297.68809 306.1911 310.9431 315.9371 321.4371 324.1871 327.19013 332.69013 337.6841">diverge is at 3:4. Bauckham interprets &#x201c;the fathers&#x201d; to mean the </tspan></text>
</g>
<g clip-path="url(#clip_57)">
<text xml:space="preserve" transform="matrix(1 0 -0 1 0 595.25)" font-size="11" font-family="Times New Roman"><tspan y="-327.13" x="57.525 62.519 68.019 73.519 77.798 80.768 86.268 89.270999 92.273998 97.268 100.018 103.758 108.75201 111.755008 117.255008 122.007 125.74701 130.02602 132.77602 136.48302 141.47702 146.97702 152.47702 155.22702 158.23003 163.73003 168.72403 171.22103 174.96102 177.96402 181.70401 185.98302 188.95302 191.70302 197.20302 202.19702 207.44402 212.43802 216.17801 221.17201 224.17502 227.17803 232.67803 238.17803 240.92803 246.42803 250.16802 252.91802 258.16505 263.15904 266.16206 269.16508 274.15907 279.65907 284.41108 288.15107 292.43006 296.13706 298.88706 301.63706 304.64009 309.8871 315.3871 319.66609 322.41609 326.64009 329.6431 335.1431 340.6431 345.6371 348.6401 351.64314 357.14314 362.64314 365.39314 370.89314">apostolic fathers (and the first generation of believers), thus signaling 2 </tspan></text>
</g>
<g clip-path="url(#clip_58)">
<text xml:space="preserve" transform="matrix(1 0 -0 1 0 595.25)" font-size="11" font-family="Times New Roman"><tspan y="-312.63" x="57.525 63.520006 68.51401 71.517009 76.51101 80.251018 83.001018 87.99502 93.49502 101.99802 106.99202 111.27102 113.74602 117.48602 121.22603 126.72603 135.22904 137.97904 142.97304 145.72304 151.22304 156.72304 161.00205">Peter comes from a post</tspan></text>
</g>
<g clip-path="url(#clip_59)">
<text xml:space="preserve" transform="matrix(1 0 -0 1 0 595.25)" font-size="11" font-family="Times New Roman"><tspan y="-312.63" x="164.1">-</tspan></text>
</g>
<g clip-path="url(#clip_60)">
<text xml:space="preserve" transform="matrix(1 0 -0 1 0 595.25)" font-size="11" font-family="Times New Roman"><tspan y="-312.63" x="167.6 172.59401 178.09401 183.59401 187.87302 190.84302 196.34302 199.34603 202.34903 207.34304 210.09304 215.08704 220.58704 225.58104">apostolic age.</tspan></text>
</g>
<g clip-path="url(#clip_61)">
<text xml:space="preserve" transform="matrix(1 0 -0 1 0 595.25)" font-size="7" font-family="Times New Roman"><tspan y="-316.63" x="228.13 231.63">19</tspan></text>
</g>
<g clip-path="url(#clip_62)">
<text xml:space="preserve" transform="matrix(1 0 -0 1 0 595.25)" font-size="11" font-family="Times New Roman"><tspan y="-312.63" x="235.15"> </tspan></text>
</g>
<g clip-path="url(#clip_63)">
<text xml:space="preserve" transform="matrix(1 0 -0 1 0 595.25)" font-size="11" font-family="Times New Roman"><tspan y="-312.63" x="237.9 245.149 250.649 253.399 258.39299 263.89299 269.39299 272.396 276.136 281.12998 285.40898 288.37898 291.12898 293.87898 301.86497 305.60496 311.10496 316.35197 321.34596 325.08595 327.83595 333.33595 338.83595 341.83897 346.83296 351.11195 353.86195 356.83195 362.33195 367.32594 370.32896">By contrast, Kruger notes that </tspan></text>
</g>
<g clip-path="url(#clip_64)">
<text xml:space="preserve" transform="matrix(1 0 -0 1 0 595.25)" font-size="11" font-family="Times New Roman"><tspan y="-298.13" x="57.525 60.528 66.028 69.031 73.31 76.06 79.03 83.309 86.059 91.559 97.059 100.029 102.779 108.279 113.273 118.267009 123.26101 127.54001 131.76403 136.75803 140.49802 143.50102 146.50403 152.00403 154.75403 157.75704 163.25704 168.25104 171.00104 175.99504 181.49504 184.99304 188.73303 193.48503 198.47904 201.48204 204.23204 207.23505 212.73505 215.73805 220.73206 224.47205 229.97205 233.47005 238.46405 241.46706 246.46106 249.46407 252.46707 257.96708 263.46708 266.21708 271.71708 276.71107 281.46308 286.45707 291.95707 296.23606 301.19706 303.69407 308.44609 313.94609 319.44609 327.43208 332.93208 337.92607 341.42405 346.41804 349.16804 352.17106 357.67106 360.42106 363.42408 368.92408 373.91807">this is not necessarily the correct interpretation because &#x201c;nowhere in the </tspan></text>
</g>
<g clip-path="url(#clip_65)">
<text xml:space="preserve" transform="matrix(1 0 -0 1 0 595.25)" font-size="11" font-family="Times New Roman"><tspan y="-283.63" x="57.525 65.511 72.232 74.982 80.482 84.255008 87.005008 90.008 95.508 98.258 101.261 106.761 111.755008 114.505008 122.491008 127.991008 133.491 137.77 140.74 146.24 149.24301 152.24602 157.24002 159.99002 165.98502 170.97902 173.98203 179.48203 184.47603 188.21602 192.49503 195.24503 198.21503 202.49404">NT or in the Apostolic Fathers is </tspan></text>
</g>
<g clip-path="url(#clip_66)">
<text xml:space="preserve" transform="matrix(1 0 -0 1 0 595.25)" font-size="11" font-family="Times New Roman"><tspan y="-283.63" x="205.38">&#x03bf;</tspan></text>
</g>
<g clip-path="url(#clip_67)">
<text xml:space="preserve" transform="matrix(1 0 -0 1 0 595.25)" font-size="11" font-family="Times New Roman"><tspan y="-283.63" x="210.88">&#x1f31;</tspan></text>
</g>
<g clip-path="url(#clip_68)">
<text xml:space="preserve" transform="matrix(1 0 -0 1 0 595.25)" font-size="11" font-family="Times New Roman"><tspan y="-283.63" x="213.88"> </tspan></text>
</g>
<g clip-path="url(#clip_69)">
<text xml:space="preserve" transform="matrix(1 0 -0 1 0 595.25)" font-size="11" font-family="Times New Roman"><tspan y="-283.63" x="216.63 222.13 227.89402 232.371 236.87 242.359 246.86899">&#x03c0;&#x03b1;&#x03c4;&#x03ad;&#x03c1;&#x03b5;&#x03c2;</tspan></text>
</g>
<g clip-path="url(#clip_70)">
<text xml:space="preserve" transform="matrix(1 0 -0 1 0 595.25)" font-size="11" font-family="Times New Roman"><tspan y="-283.63" x="251.15"> </tspan></text>
</g>
<g clip-path="url(#clip_71)">
<text xml:space="preserve" transform="matrix(1 0 -0 1 0 595.25)" font-size="11" font-family="Times New Roman"><tspan y="-283.63" x="253.9 257.63999 260.38999 263.13999 266.143 271.643 276.637 279.387 283.12699 288.12098 291.124 296.624 301.376 305.116 309.395 312.145 315.852 318.602 324.102 328.38099 333.34199 338.84199 341.59199 344.595 350.095 352.845 356.585 361.337 365.077 370.07099 373.81098">[, the fathers,] used to refer </tspan></text>
</g>
<g clip-path="url(#clip_72)">
<text xml:space="preserve" transform="matrix(1 0 -0 1 0 595.25)" font-size="11" font-family="Times New Roman"><tspan y="-269.13" x="57.525 60.528 66.028 68.778 76.027 81.527 85.267009 88.270008 92.549 95.519008 98.522 103.51601 109.01601 111.76601 115.50601 121.50101 126.49501 129.49802 134.99802 139.99202 143.73201 148.01102 150.76102 154.46802 157.21802 162.71802 168.21802 171.22103 173.97103 176.97403 181.25304 184.00304 188.96404 194.46404 199.96404 204.24304 207.21305 211.49205 214.46205 219.45606 224.95606 227.95906 230.96207 236.46207 239.21207 244.71207 248.99108 253.95207 259.4521 262.2021 265.2051 270.7051 273.4551 277.1951 282.1891 285.68708 290.68107 294.42106 297.17106 300.17408 305.67408 308.42408 312.42808 317.42207 325.40806 328.41108 332.69007 338.19007">to Christian &#x2018;Fathers,&#x2019; but is consistently used to refer to Jewish </tspan></text>
</g>
<g clip-path="url(#clip_73)">
<text xml:space="preserve" transform="matrix(1 0 -0 1 0 595.25)" font-size="11" font-family="Times New Roman"><tspan y="-254.35" x="57.525 63.025 68.019008 71.022 74.76201 77.76501 82.75901 86.25701 91.251018 96.751018 101.030017 103.780017">patriarchs.&#x201d;</tspan></text>
</g>
<g clip-path="url(#clip_74)">
<text xml:space="preserve" transform="matrix(1 0 -0 1 0 595.25)" font-size="7" font-family="Times New Roman"><tspan y="-258.35" x="108.57 112.07">20</tspan></text>
</g>
<g clip-path="url(#clip_75)">
<text xml:space="preserve" transform="matrix(1 0 -0 1 0 595.25)" font-size="11" font-family="Times New Roman"><tspan y="-254.35" x="115.57"> </tspan></text>
</g>
<g clip-path="url(#clip_76)">
<text xml:space="preserve" transform="matrix(1 0 -0 1 0 595.25)" font-size="11" font-family="Times New Roman"><tspan y="-254.35" x="118.33 125.051 130.551 136.051 140.33 143.08 145.83 150.824 153.574 157.314 162.814 168.314 173.814 178.808 187.058 192.052 197.552 200.55501 205.54901 208.55202 211.30202 216.80202 219.80503 224.79903 229.55103 234.54503 237.29503 242.79503 246.53502 249.03202 254.02602 259.526 262.52903 268.02903 273.023 278.523 283.27503 288.269 291.019 294.02204 299.52204 302.27204 309.52104 314.515 319.76203 324.756 330.256 335.756 340.75 349.25303 352.993 357.272">Thus, a fundamental piece of evidence in Bauckham&#x2019;s </tspan></text>
</g>
<g clip-path="url(#clip_77)">
<text xml:space="preserve" transform="matrix(1 0 -0 1 0 595.25)" font-size="11" font-family="Times New Roman"><tspan y="-239.85" x="57.525 63.025 68.019008 71.022 74.025 79.525 85.025 87.775 90.778 96.278 100.557 105.518009 109.797008 112.547008 115.517009 118.520008 122.799 125.549 131.04901 136.54901 144.49102 149.50702 153.24701">dating loses its power.</tspan></text>
</g>
<g clip-path="url(#clip_78)">
<text xml:space="preserve" transform="matrix(1 0 -0 1 0 595.25)" font-size="7" font-family="Times New Roman"><tspan y="-243.85" x="156.1 159.6">21</tspan></text>
</g>
<g clip-path="url(#clip_79)">
<text xml:space="preserve" transform="matrix(1 0 -0 1 0 595.25)" font-size="11" font-family="Times New Roman"><tspan y="-239.85" x="163.1"> </tspan></text>
</g>
<g clip-path="url(#clip_80)">
<text xml:space="preserve" transform="matrix(1 0 -0 1 0 595.25)" font-size="11" font-family="Times New Roman"><tspan y="-239.85" x="165.85 173.09902 178.09302 183.59302 188.58702 194.08702 199.33402 204.32802 212.83103 215.58103 220.57503 223.57804 227.85704 233.35704 236.10704 240.33106 243.33406 248.32807 251.33107 256.32505 260.60404 263.35404 266.32405 271.82405 276.81803 279.82106 282.57106 286.85005 292.35005 297.85005 302.81105 305.56105 309.05903 314.053 317.05604 320.05906 325.55906 330.55305 334.29304 337.04304 342.03703 344.78703 349.066 354.566 359.79103 363.531 368.525 373.51899">Bauckham also states that Jude (either a source </tspan></text>
</g>
<g clip-path="url(#clip_81)">
</g>
<path transform="matrix(1,0,0,-1,0,595.25)" d="M57.525 215.6H201.625V216.35H57.525Z" fill-rule="evenodd"/>
<g clip-path="url(#clip_82)">
</g>
<g clip-path="url(#clip_83)">
</g>
<g clip-path="url(#clip_84)">
</g>
<g clip-path="url(#clip_85)">
</g>
<g clip-path="url(#clip_86)">
</g>
<g clip-path="url(#clip_87)">
</g>
<g clip-path="url(#clip_88)">
</g>
<g clip-path="url(#clip_89)">
</g>
<g clip-path="url(#clip_90)">
</g>
<g clip-path="url(#clip_91)">
</g>
<g clip-path="url(#clip_92)">
</g>
<g clip-path="url(#clip_93)">
</g>
<g clip-path="url(#clip_94)">
</g>
<g clip-path="url(#clip_95)">
</g>
<g clip-path="url(#clip_96)">
</g>
<g clip-path="url(#clip_97)">
</g>
<g clip-path="url(#clip_98)">
</g>
<g clip-path="url(#clip_99)">
</g>
<g clip-path="url(#clip_100)">
</g>
<g clip-path="url(#clip_101)">
</g>
<g clip-path="url(#clip_102)">
</g>
<g clip-path="url(#clip_103)">
</g>
<g clip-path="url(#clip_104)">
</g>
<g clip-path="url(#clip_105)">
</g>
<g clip-path="url(#clip_106)">
</g>
<g clip-path="url(#clip_107)">
</g>
<g clip-path="url(#clip_108)">
</g>
<g clip-path="url(#clip_109)">
</g>
<g clip-path="url(#clip_110)">
</g>
<g clip-path="url(#clip_111)">
</g>
<g clip-path="url(#clip_112)">
</g>
<g clip-path="url(#clip_113)">
</g>
<g clip-path="url(#clip_114)">
</g>
<g clip-path="url(#clip_115)">
</g>
<g clip-path="url(#clip_116)">
</g>
<g clip-path="url(#clip_117)">
</g>
<g clip-path="url(#clip_118)">
</g>
<g clip-path="url(#clip_119)">
</g>
<g clip-path="url(#clip_120)">
</g>
<g clip-path="url(#clip_121)">
</g>
<g clip-path="url(#clip_122)">
</g>
<g clip-path="url(#clip_123)">
</g>
<g clip-path="url(#clip_124)">
</g>
<g clip-path="url(#clip_125)">
</g>
<g clip-path="url(#clip_126)">
</g>
<g clip-path="url(#clip_127)">
</g>
<g clip-path="url(#clip_128)">
</g>
<g clip-path="url(#clip_129)">
</g>
<g clip-path="url(#clip_130)">
</g>
<g clip-path="url(#clip_131)">
</g>
<g clip-path="url(#clip_132)">
</g>
<g clip-path="url(#clip_133)">
</g>
<g clip-path="url(#clip_134)">
</g>
<g clip-path="url(#clip_135)">
</g>
<g clip-path="url(#clip_136)">
</g>
<g clip-path="url(#clip_137)">
</g>
<g clip-path="url(#clip_138)">
</g>
<g clip-path="url(#clip_139)">
</g>
<g clip-path="url(#clip_140)">
</g>
<g clip-path="url(#clip_141)">
</g>
<g clip-path="url(#clip_142)">
</g>
<g clip-path="url(#clip_143)">
</g>
<g clip-path="url(#clip_144)">
</g>
<g clip-path="url(#clip_145)">
</g>
<g clip-path="url(#clip_146)">
</g>
<g clip-path="url(#clip_147)">
</g>
<g clip-path="url(#clip_148)">
</g>
<g clip-path="url(#clip_149)">
</g>
<g clip-path="url(#clip_150)">
</g>
<g clip-path="url(#clip_151)">
</g>
<g clip-path="url(#clip_152)">
</g>
<g clip-path="url(#clip_153)">
</g>
<g clip-path="url(#clip_154)">
</g>
<g clip-path="url(#clip_155)">
</g>
<g clip-path="url(#clip_156)">
</g>
<text xml:space="preserve" transform="matrix(1 0 -0 1 0 595.25)" font-size="11" font-family="Times New Roman"><tspan y="-30.2" x="204.25 209.75">46</tspan></text>
<text xml:space="preserve" transform="matrix(1 0 -0 1 0 595.25)" font-size="7.6" font-family="Arial" font-weight="bold"><tspan y="-551.25" x="57.6 62.6616 66.8872 71.1128 75.7488 78.7052 82.9308 87.5668 91.792407 94.323207 96.428409 103.59521 108.23121 112.86721 114.97241 122.13921 125.09561 129.73162 132.26242 136.48802 138.59322 143.65482 147.88042 152.10602 156.74202 161.37802 166.01403 168.11922 173.18082 177.40642 179.93723 184.16283 187.11923">Excursus:&#x00a0;Who&#x00a0;Wrote&#x00a0;Second&#x00a0;Peter?</tspan></text>
<text xml:space="preserve" transform="matrix(1 0 -0 1 0 595.25)" font-size="7.6" font-family="Arial" font-weight="bold"><tspan y="-551.25" x="283.41154 285.51673 292.27314 296.90913 301.5451 304.5015 307.0323 311.25788 315.89387 320.11946 324.34504 326.45024 331.0862 333.617 335.7222 341.2094 345.8454 348.3762 353.01219 357.64817 360.60456 364.83015 369.46614 371.57133">Importance&#x00a0;of&#x00a0;Authorship</tspan></text>
<text xml:space="preserve" transform="matrix(1 0 -0 1 0 595.25)" font-size="8" font-family="Times New Roman"><tspan y="-202.82" x="57.53 63.306 66.85 69.514 75.73 79.274">Hermas</tspan></text>
<text xml:space="preserve" transform="matrix(1 0 -0 1 0 595.25)" font-size="8" font-family="Times New Roman"><tspan y="-202.82" x="85.2417 87.9057 91.4497">(c.</tspan></text>
<text xml:space="preserve" transform="matrix(1 0 -0 1 0 595.25)" font-size="8" font-family="Times New Roman"><tspan y="-202.82" x="96.28934 102.06534">AD</tspan></text>
<text xml:space="preserve" transform="matrix(1 0 -0 1 0 595.25)" font-size="8" font-family="Times New Roman"><tspan y="-202.82" x="110.67682 114.67682 118.67682 121.34082 125.34082 129.34082 133.34082 136.00482">80&#x00ad;100).</tspan></text>
<text xml:space="preserve" transform="matrix(1 0 -0 1 0 595.25)" font-size="8" font-family="Times New Roman"><tspan y="-202.82" x="140.83774 146.61374">He</tspan></text>
<text xml:space="preserve" transform="matrix(1 0 -0 1 0 595.25)" font-size="8" font-family="Times New Roman"><tspan y="-202.82" x="152.99866 156.11066 158.32666 161.87067 164.08667 167.63068 170.74268">states,</tspan></text>
<text xml:space="preserve" transform="matrix(1 0 -0 1 0 595.25)" font-size="8" font-family="Times New Roman"><tspan y="-202.82" x="175.60489 179.1489 181.3649 185.3649 188.9089 192.0209">&#x201c;these</tspan></text>
<text xml:space="preserve" transform="matrix(1 0 -0 1 0 595.25)" font-size="8" font-family="Times New Roman"><tspan y="-202.82" x="198.42597 200.64197 204.64197 207.30597 210.84998">three</tspan></text>
<text xml:space="preserve" transform="matrix(1 0 -0 1 0 595.25)" font-size="8" font-family="Times New Roman"><tspan y="-202.82" x="217.24703 223.02303 227.02303 229.68703 233.68703">works</tspan></text>
<text xml:space="preserve" transform="matrix(1 0 -0 1 0 595.25)" font-size="8" font-family="Times New Roman"><tspan y="-202.82" x="239.6345 243.17852 245.84252">are</tspan></text>
<text xml:space="preserve" transform="matrix(1 0 -0 1 0 595.25)" font-size="8" font-family="Times New Roman"><tspan y="-202.82" x="252.23293">2</tspan></text>
<text xml:space="preserve" transform="matrix(1 0 -0 1 0 595.25)" font-size="8" font-family="Times New Roman"><tspan y="-202.82" x="259.06575 263.51374 267.05775 269.27375 272.81776 275.48176 278.14576">Peter&#x2019;s</tspan></text>
<text xml:space="preserve" transform="matrix(1 0 -0 1 0 595.25)" font-size="8" font-family="Times New Roman"><tspan y="-202.82" x="284.11338 287.65739 289.87339 293.87339 296.98539 300.5294 303.6414">closest</tspan></text>
<text xml:space="preserve" transform="matrix(1 0 -0 1 0 595.25)" font-size="8" font-family="Times New Roman"><tspan y="-202.82" x="308.7196 311.3836 314.9276 317.14363 320.68763 322.90364 325.11964 329.11964 332.66365">relatives</tspan></text>
<text xml:space="preserve" transform="matrix(1 0 -0 1 0 595.25)" font-size="8" font-family="Times New Roman"><tspan y="-202.82" x="338.65003 340.86604">in</tspan></text>
<text xml:space="preserve" transform="matrix(1 0 -0 1 0 595.25)" font-size="8" font-family="Times New Roman"><tspan y="-202.82" x="347.70549 349.92149 353.92149">the</tspan></text>
<text xml:space="preserve" transform="matrix(1 0 -0 1 0 595.25)" font-size="8" font-family="Times New Roman"><tspan y="-202.82" x="360.3117 363.8557 367.39973 370.06373 372.27973">early</tspan></text>
<text xml:space="preserve" transform="matrix(1 0 -0 1 0 595.25)" font-size="8" font-family="Times New Roman"><tspan y="-193.6" x="57.53 61.073999 65.074 69.074 71.738 75.282 79.282 81.282">church,&#x201d;</tspan></text>
<text xml:space="preserve" transform="matrix(1 0 -0 1 0 595.25)" font-size="8" font-family="Times New Roman"><tspan y="-193.6" x="86.846408 90.846408 94.846408 98.846408">150.</tspan></text>
<text xml:space="preserve" transform="matrix(1 0 -0 1 0 595.25)" font-size="8" font-family="Times New Roman"><tspan y="-184.38" x="71.53 75.53 79.53">11.</tspan></text>
<text xml:space="preserve" transform="matrix(1 0 -0 1 0 595.25)" font-size="8" font-family="Times New Roman"><tspan y="-184.38" x="83.53 86.194 90.194 92.41 96.41 98.41">Ibid.,</tspan></text>
<text xml:space="preserve" transform="matrix(1 0 -0 1 0 595.25)" font-size="8" font-family="Times New Roman"><tspan y="-184.38" x="102.41672 106.41672 110.41672 114.41672">150.</tspan></text>
<text xml:space="preserve" transform="matrix(1 0 -0 1 0 595.25)" font-size="8" font-family="Times New Roman"><tspan y="-175.16" x="71.53 75.53 79.53">12.</tspan></text>
<text xml:space="preserve" transform="matrix(1 0 -0 1 0 595.25)" font-size="8" font-family="Times New Roman"><tspan y="-175.16" x="83.53 88.858 92.402 96.402 99.946 103.946 107.946 111.49 117.706">Bauckham,</tspan></text>
<text xml:space="preserve" transform="matrix(1 0 -0 1 0 595.25)" font-size="8" font-family="Times New Roman" font-style="italic"><tspan y="-175.16" x="121.74094 125.284938 129.28495 133.28495 136.82895">Jude,</tspan></text>
<text xml:space="preserve" transform="matrix(1 0 -0 1 0 595.25)" font-size="8" font-family="Times New Roman" font-style="italic"><tspan y="-175.16" x="140.8425">2</tspan></text>
<text xml:space="preserve" transform="matrix(1 0 -0 1 0 595.25)" font-size="8" font-family="Times New Roman" font-style="italic"><tspan y="-175.16" x="146.8425 151.7225 155.26651 157.48252 161.02652">Peter</tspan></text>
<text xml:space="preserve" transform="matrix(1 0 -0 1 0 595.25)" font-size="8" font-family="Times New Roman"><tspan y="-175.16" x="164.16672">,</tspan></text>
<text xml:space="preserve" transform="matrix(1 0 -0 1 0 595.25)" font-size="8" font-family="Times New Roman"><tspan y="-175.16" x="168.16672 172.16672 176.16672 180.16672">158.</tspan></text>
<text xml:space="preserve" transform="matrix(1 0 -0 1 0 595.25)" font-size="8" font-family="Times New Roman"><tspan y="-165.94" x="71.53 75.53 79.53">13.</tspan></text>
<text xml:space="preserve" transform="matrix(1 0 -0 1 0 595.25)" font-size="8" font-family="Times New Roman"><tspan y="-165.94" x="84.59619 89.04419 93.04419">For</tspan></text>
<text xml:space="preserve" transform="matrix(1 0 -0 1 0 595.25)" font-size="8" font-family="Times New Roman"><tspan y="-165.94" x="98.775669 104.99167 108.99167 112.53567">much</tspan></text>
<text xml:space="preserve" transform="matrix(1 0 -0 1 0 595.25)" font-size="8" font-family="Times New Roman"><tspan y="-165.94" x="119.615299 123.615299">of</tspan></text>
<text xml:space="preserve" transform="matrix(1 0 -0 1 0 595.25)" font-size="8" font-family="Times New Roman"><tspan y="-165.94" x="129.34555 135.12155 139.12155 142.66556">what</tspan></text>
<text xml:space="preserve" transform="matrix(1 0 -0 1 0 595.25)" font-size="8" font-family="Times New Roman"><tspan y="-165.94" x="147.96253 150.62653 154.62653 156.84253 159.05854 163.05854 168.83454 171.94654">follows,</tspan></text>
<text xml:space="preserve" transform="matrix(1 0 -0 1 0 595.25)" font-size="8" font-family="Times New Roman"><tspan y="-165.94" x="177.02872">I</tspan></text>
<text xml:space="preserve" transform="matrix(1 0 -0 1 0 595.25)" font-size="8" font-family="Times New Roman"><tspan y="-165.94" x="182.75897 186.30298">am</tspan></text>
<text xml:space="preserve" transform="matrix(1 0 -0 1 0 595.25)" font-size="8" font-family="Times New Roman"><tspan y="-165.94" x="195.59859 197.81459 201.81459 205.81459 209.3586 213.3586 215.5746 219.1186">indebted</tspan></text>
<text xml:space="preserve" transform="matrix(1 0 -0 1 0 595.25)" font-size="8" font-family="Times New Roman"><tspan y="-165.94" x="226.21166 228.42766">to</tspan></text>
<text xml:space="preserve" transform="matrix(1 0 -0 1 0 595.25)" font-size="8" font-family="Times New Roman"><tspan y="-165.94" x="235.5005 242.6125">M.</tspan></text>
<text xml:space="preserve" transform="matrix(1 0 -0 1 0 595.25)" font-size="8" font-family="Times New Roman"><tspan y="-165.94" x="247.67998 253.45598 256.11997 260.11997 264.11997 267.66398 270.32798">Kruger,</tspan></text>
<text xml:space="preserve" transform="matrix(1 0 -0 1 0 595.25)" font-size="8" font-family="Times New Roman"><tspan y="-165.94" x="275.40245 278.94645 283.82646 287.82646">&#x201c;The</tspan></text>
<text xml:space="preserve" transform="matrix(1 0 -0 1 0 595.25)" font-size="8" font-family="Times New Roman"><tspan y="-165.94" x="294.4569 300.2329 304.2329 306.4489 310.4489 313.99293 317.99293 320.20893 322.42494 325.96894 328.18495 330.40095">Authenticity</tspan></text>
<text xml:space="preserve" transform="matrix(1 0 -0 1 0 595.25)" font-size="8" font-family="Times New Roman"><tspan y="-165.94" x="337.51527 341.51527">of</tspan></text>
<text xml:space="preserve" transform="matrix(1 0 -0 1 0 595.25)" font-size="8" font-family="Times New Roman"><tspan y="-165.94" x="347.2455">2</tspan></text>
<text xml:space="preserve" transform="matrix(1 0 -0 1 0 595.25)" font-size="8" font-family="Times New Roman"><tspan y="-165.94" x="354.3117 358.7597 362.3037 364.5197 368.06373 370.72773 372.72773">Peter,&#x201d;</tspan></text>
<text xml:space="preserve" transform="matrix(1 0 -0 1 0 595.25)" font-size="8" font-family="Times New Roman" font-style="italic"><tspan y="-156.72" x="57.53 61.073999 65.953998 70.40199">JETS</tspan></text>
<text xml:space="preserve" transform="matrix(1 0 -0 1 0 595.25)" font-size="8" font-family="Times New Roman" font-style="italic"><tspan y="-156.72" x="76.41672 80.41672">42</tspan></text>
<text xml:space="preserve" transform="matrix(1 0 -0 1 0 595.25)" font-size="8" font-family="Times New Roman"><tspan y="-156.72" x="84.41672">,</tspan></text>
<text xml:space="preserve" transform="matrix(1 0 -0 1 0 595.25)" font-size="8" font-family="Times New Roman"><tspan y="-156.72" x="88.41672 92.41672 96.41672 100.41672 103.08072 107.08072 111.08072">645&#x00ad;71.</tspan></text>
<text xml:space="preserve" transform="matrix(1 0 -0 1 0 595.25)" font-size="8" font-family="Times New Roman"><tspan y="-147.5" x="71.53 75.53 79.53">14.</tspan></text>
<text xml:space="preserve" transform="matrix(1 0 -0 1 0 595.25)" font-size="8" font-family="Times New Roman"><tspan y="-147.5" x="83.53 86.194 90.194 92.41 96.41 98.41">Ibid.,</tspan></text>
<text xml:space="preserve" transform="matrix(1 0 -0 1 0 595.25)" font-size="8" font-family="Times New Roman"><tspan y="-147.5" x="102.41672 106.41672 110.41672 114.41672">652.</tspan></text>
<text xml:space="preserve" transform="matrix(1 0 -0 1 0 595.25)" font-size="8" font-family="Times New Roman"><tspan y="-138.28002" x="71.53 75.53 79.53">15.</tspan></text>
<text xml:space="preserve" transform="matrix(1 0 -0 1 0 595.25)" font-size="8" font-family="Times New Roman"><tspan y="-138.28002" x="83.53 86.194 90.194 92.41 96.41 98.41">Ibid.,</tspan></text>
<text xml:space="preserve" transform="matrix(1 0 -0 1 0 595.25)" font-size="8" font-family="Times New Roman"><tspan y="-138.28002" x="102.41672 106.41672 110.41672 114.41672">653.</tspan></text>
<text xml:space="preserve" transform="matrix(1 0 -0 1 0 595.25)" font-size="8" font-family="Times New Roman"><tspan y="-129.06002" x="71.53 75.53 79.53">16.</tspan></text>
<text xml:space="preserve" transform="matrix(1 0 -0 1 0 595.25)" font-size="8" font-family="Times New Roman"><tspan y="-129.06002" x="83.53 86.194 90.194 92.41 96.41 98.41">Ibid.,</tspan></text>
<text xml:space="preserve" transform="matrix(1 0 -0 1 0 595.25)" font-size="8" font-family="Times New Roman"><tspan y="-129.06002" x="102.41672 106.41672 110.41672 114.41672">654.</tspan></text>
<text xml:space="preserve" transform="matrix(1 0 -0 1 0 595.25)" font-size="8" font-family="Times New Roman"><tspan y="-119.840007" x="71.53 75.53 79.53">17.</tspan></text>
<text xml:space="preserve" transform="matrix(1 0 -0 1 0 595.25)" font-size="8" font-family="Times New Roman"><tspan y="-119.840007" x="83.53 86.194 90.194 92.41 96.41">Ibid.</tspan></text>
<text xml:space="preserve" transform="matrix(1 0 -0 1 0 595.25)" font-size="8" font-family="Times New Roman"><tspan y="-110.62001" x="71.53 75.53 79.53">18.</tspan></text>
<text xml:space="preserve" transform="matrix(1 0 -0 1 0 595.25)" font-size="8" font-family="Times New Roman"><tspan y="-110.62001" x="83.53 86.194 90.194 92.41 96.41">Ibid.</tspan></text>
<text xml:space="preserve" transform="matrix(1 0 -0 1 0 595.25)" font-size="8" font-family="Times New Roman"><tspan y="-101.40001" x="71.53 75.53 79.53">19.</tspan></text>
<text xml:space="preserve" transform="matrix(1 0 -0 1 0 595.25)" font-size="8" font-family="Times New Roman"><tspan y="-101.40001" x="83.569339 88.89734">R.</tspan></text>
<text xml:space="preserve" transform="matrix(1 0 -0 1 0 595.25)" font-size="8" font-family="Times New Roman"><tspan y="-101.40001" x="92.94461 98.27261 101.81661 105.81661 109.36061 113.36061 117.36061 120.90461 127.12061">Bauckham,</tspan></text>
<text xml:space="preserve" transform="matrix(1 0 -0 1 0 595.25)" font-size="8" font-family="Times New Roman" font-style="italic"><tspan y="-101.40001" x="131.19489 134.73889 138.73889 142.73889 146.2829">Jude,</tspan></text>
<text xml:space="preserve" transform="matrix(1 0 -0 1 0 595.25)" font-size="8" font-family="Times New Roman" font-style="italic"><tspan y="-101.40001" x="150.33579">2</tspan></text>
<text xml:space="preserve" transform="matrix(1 0 -0 1 0 595.25)" font-size="8" font-family="Times New Roman" font-style="italic"><tspan y="-101.40001" x="156.37512 161.25513 164.79914 167.01514 170.55915">Peter</tspan></text>
<text xml:space="preserve" transform="matrix(1 0 -0 1 0 595.25)" font-size="8" font-family="Times New Roman"><tspan y="-101.40001" x="173.69934">,</tspan></text>
<text xml:space="preserve" transform="matrix(1 0 -0 1 0 595.25)" font-size="8" font-family="Times New Roman"><tspan y="-101.40001" x="177.73868 181.73868 185.73868 189.73868">158.</tspan></text>
<text xml:space="preserve" transform="matrix(1 0 -0 1 0 595.25)" font-size="8" font-family="Times New Roman"><tspan y="-101.40001" x="193.77802 198.22602 201.77002 203.98603 207.53003">Peter</tspan></text>
<text xml:space="preserve" transform="matrix(1 0 -0 1 0 595.25)" font-size="8" font-family="Times New Roman"><tspan y="-101.40001" x="212.25484 214.47084">is</tspan></text>
<text xml:space="preserve" transform="matrix(1 0 -0 1 0 595.25)" font-size="8" font-family="Times New Roman"><tspan y="-101.40001" x="219.63011 223.63011 227.17412 229.39012 231.60613 235.15013 239.15013 242.69414">believed</tspan></text>
<text xml:space="preserve" transform="matrix(1 0 -0 1 0 595.25)" font-size="8" font-family="Times New Roman"><tspan y="-101.40001" x="248.7671 250.98311">to</tspan></text>
<text xml:space="preserve" transform="matrix(1 0 -0 1 0 595.25)" font-size="8" font-family="Times New Roman"><tspan y="-101.40001" x="257.0291 261.0291 264.57313 268.57313">have</tspan></text>
<text xml:space="preserve" transform="matrix(1 0 -0 1 0 595.25)" font-size="8" font-family="Times New Roman"><tspan y="-101.40001" x="274.17 278.17 280.38603 283.93003">died</tspan></text>
<text xml:space="preserve" transform="matrix(1 0 -0 1 0 595.25)" font-size="8" font-family="Times New Roman"><tspan y="-101.40001" x="289.9828 293.0948 297.0948 303.3108 306.8548 312.6308 316.6308 320.1748 322.8388">somewhere</tspan></text>
<text xml:space="preserve" transform="matrix(1 0 -0 1 0 595.25)" font-size="8" font-family="Times New Roman"><tspan y="-101.40001" x="328.45179 331.11579 333.7798 337.7798">from</tspan></text>
<text xml:space="preserve" transform="matrix(1 0 -0 1 0 595.25)" font-size="8" font-family="Times New Roman"><tspan y="-101.40001" x="346.0419 351.8179">AD</tspan></text>
<text xml:space="preserve" transform="matrix(1 0 -0 1 0 595.25)" font-size="8" font-family="Times New Roman"><tspan y="-101.40001" x="359.63594 363.63594 367.63594 370.29994 374.29994">60&#x00ad;8.</tspan></text>
<text xml:space="preserve" transform="matrix(1 0 -0 1 0 595.25)" font-size="8" font-family="Times New Roman"><tspan y="-92.18001" x="57.53 61.978 65.522">See</tspan></text>
<text xml:space="preserve" transform="matrix(1 0 -0 1 0 595.25)" font-size="8" font-family="Times New Roman"><tspan y="-92.18001" x="71.21999 76.09999">T.</tspan></text>
<text xml:space="preserve" transform="matrix(1 0 -0 1 0 595.25)" font-size="8" font-family="Times New Roman"><tspan y="-92.18001" x="80.24592 84.69392 88.237918 92.237918 94.90192 98.445919 100.66192 104.66192 108.20592 110.86992">Schreiner,</tspan></text>
<text xml:space="preserve" transform="matrix(1 0 -0 1 0 595.25)" font-size="8" font-family="Times New Roman" font-style="italic"><tspan y="-92.18001" x="115.037479 119.037479">1,</tspan></text>
<text xml:space="preserve" transform="matrix(1 0 -0 1 0 595.25)" font-size="8" font-family="Times New Roman" font-style="italic"><tspan y="-92.18001" x="123.17669">2</tspan></text>
<text xml:space="preserve" transform="matrix(1 0 -0 1 0 595.25)" font-size="8" font-family="Times New Roman" font-style="italic"><tspan y="-92.18001" x="129.3159 134.1959 137.73992 139.95592 143.49993 146.61193">Peter,</tspan></text>
<text xml:space="preserve" transform="matrix(1 0 -0 1 0 595.25)" font-size="8" font-family="Times New Roman" font-style="italic"><tspan y="-92.18001" x="150.77933 154.32334 158.32334 162.32334">Jude</tspan></text>
<text xml:space="preserve" transform="matrix(1 0 -0 1 0 595.25)" font-size="8" font-family="Times New Roman"><tspan y="-92.18001" x="165.88089">,</tspan></text>
<text xml:space="preserve" transform="matrix(1 0 -0 1 0 595.25)" font-size="8" font-family="Times New Roman"><tspan y="-92.18001" x="170.0201 174.0201 178.0201 182.0201">276.</tspan></text>
<text xml:space="preserve" transform="matrix(1 0 -0 1 0 595.25)" font-size="8" font-family="Times New Roman"><tspan y="-92.18001" x="186.1593 191.4873 195.03131 199.03131 202.57532 206.57532 210.57532 214.11933">Bauckham</tspan></text>
<text xml:space="preserve" transform="matrix(1 0 -0 1 0 595.25)" font-size="8" font-family="Times New Roman"><tspan y="-92.18001" x="222.50946 226.50946 230.05347 232.26947 234.48548 238.02948 242.02948 245.57349">believes</tspan></text>
<text xml:space="preserve" transform="matrix(1 0 -0 1 0 595.25)" font-size="8" font-family="Times New Roman"><tspan y="-92.18001" x="250.8596 254.8596 258.85963">one</tspan></text>
<text xml:space="preserve" transform="matrix(1 0 -0 1 0 595.25)" font-size="8" font-family="Times New Roman"><tspan y="-92.18001" x="264.5496 268.0936 271.6376">can</tspan></text>
<text xml:space="preserve" transform="matrix(1 0 -0 1 0 595.25)" font-size="8" font-family="Times New Roman"><tspan y="-92.18001" x="277.79039 281.79039">be</tspan></text>
<text xml:space="preserve" transform="matrix(1 0 -0 1 0 595.25)" font-size="8" font-family="Times New Roman"><tspan y="-92.18001" x="287.48036 291.02436 295.02436 299.02436 301.68836 303.90437 307.90437 311.44837 315.44837">confident</tspan></text>
<text xml:space="preserve" transform="matrix(1 0 -0 1 0 595.25)" font-size="8" font-family="Times New Roman"><tspan y="-92.18001" x="319.8305 322.0465">it</tspan></text>
<text xml:space="preserve" transform="matrix(1 0 -0 1 0 595.25)" font-size="8" font-family="Times New Roman"><tspan y="-92.18001" x="326.41505 328.63105">is</tspan></text>
<text xml:space="preserve" transform="matrix(1 0 -0 1 0 595.25)" font-size="8" font-family="Times New Roman"><tspan y="-92.18001" x="333.89018 337.43418 339.65019">&#x201c;in</tspan></text>
<text xml:space="preserve" transform="matrix(1 0 -0 1 0 595.25)" font-size="8" font-family="Times New Roman"><tspan y="-92.18001" x="345.80284 351.57884">AD</tspan></text>
<text xml:space="preserve" transform="matrix(1 0 -0 1 0 595.25)" font-size="8" font-family="Times New Roman"><tspan y="-92.18001" x="359.49674 363.49674">64</tspan></text>
<text xml:space="preserve" transform="matrix(1 0 -0 1 0 595.25)" font-size="8" font-family="Times New Roman"><tspan y="-92.18001" x="369.63594 373.63594">or</tspan></text>
<text xml:space="preserve" transform="matrix(1 0 -0 1 0 595.25)" font-size="8" font-family="Times New Roman"><tspan y="-82.96001" x="57.53 61.53 65.53 67.53">65.&#x201d;</tspan></text>
<text xml:space="preserve" transform="matrix(1 0 -0 1 0 595.25)" font-size="8" font-family="Times New Roman"><tspan y="-82.96001" x="73.08078 77.52878 81.07278">See</tspan></text>
<text xml:space="preserve" transform="matrix(1 0 -0 1 0 595.25)" font-size="8" font-family="Times New Roman"><tspan y="-82.96001" x="86.63156 91.959568">R.</tspan></text>
<text xml:space="preserve" transform="matrix(1 0 -0 1 0 595.25)" font-size="8" font-family="Times New Roman"><tspan y="-82.96001" x="95.9675 101.2955 104.8395 108.8395 112.3835 116.3835 120.3835 123.9275 130.1435">Bauckham,</tspan></text>
<text xml:space="preserve" transform="matrix(1 0 -0 1 0 595.25)" font-size="8" font-family="Times New Roman" font-style="italic"><tspan y="-82.96001" x="134.17844 137.72245 141.72245 145.72245 149.26645">Jude,</tspan></text>
<text xml:space="preserve" transform="matrix(1 0 -0 1 0 595.25)" font-size="8" font-family="Times New Roman" font-style="italic"><tspan y="-82.96001" x="153.28">2</tspan></text>
<text xml:space="preserve" transform="matrix(1 0 -0 1 0 595.25)" font-size="8" font-family="Times New Roman" font-style="italic"><tspan y="-82.96001" x="159.28 164.16 167.70401 169.92002 173.46402">Peter</tspan></text>
<text xml:space="preserve" transform="matrix(1 0 -0 1 0 595.25)" font-size="8" font-family="Times New Roman"><tspan y="-82.96001" x="176.60422">,</tspan></text>
<text xml:space="preserve" transform="matrix(1 0 -0 1 0 595.25)" font-size="8" font-family="Times New Roman"><tspan y="-82.96001" x="180.60422 184.60422 188.60422 192.60422">159.</tspan></text>
<text xml:space="preserve" transform="matrix(1 0 -0 1 0 595.25)" font-size="8" font-family="Times New Roman"><tspan y="-73.740009" x="71.53 75.53 79.53">20.</tspan></text>
<text xml:space="preserve" transform="matrix(1 0 -0 1 0 595.25)" font-size="8" font-family="Times New Roman"><tspan y="-73.740009" x="83.53 90.642">M.</tspan></text>
<text xml:space="preserve" transform="matrix(1 0 -0 1 0 595.25)" font-size="8" font-family="Times New Roman"><tspan y="-73.740009" x="94.64328 100.41928 103.08328 107.08328 111.08328 114.62728 117.29128">Kruger,</tspan></text>
<text xml:space="preserve" transform="matrix(1 0 -0 1 0 595.25)" font-size="8" font-family="Times New Roman"><tspan y="-73.740009" x="121.29953 124.84353 129.72353 133.72353">&#x201c;The</tspan></text>
<text xml:space="preserve" transform="matrix(1 0 -0 1 0 595.25)" font-size="8" font-family="Times New Roman"><tspan y="-73.740009" x="139.28781 145.06381 149.06381 151.27982 155.27982 158.82382 162.82382 165.03983 167.25583 170.79984 173.01584 175.23184">Authenticity</tspan></text>
<text xml:space="preserve" transform="matrix(1 0 -0 1 0 595.25)" font-size="8" font-family="Times New Roman"><tspan y="-73.740009" x="181.28 185.28">of</tspan></text>
<text xml:space="preserve" transform="matrix(1 0 -0 1 0 595.25)" font-size="8" font-family="Times New Roman"><tspan y="-73.740009" x="189.94406">2</tspan></text>
<text xml:space="preserve" transform="matrix(1 0 -0 1 0 595.25)" font-size="8" font-family="Times New Roman"><tspan y="-73.740009" x="195.94406 200.39206 203.93607 206.15207 209.69608 212.36008 214.36008">Peter,&#x201d;</tspan></text>
<text xml:space="preserve" transform="matrix(1 0 -0 1 0 595.25)" font-size="8" font-family="Times New Roman"><tspan y="-73.740009" x="219.93235 223.93235 227.93235 231.93235">665.</tspan></text>
<text xml:space="preserve" transform="matrix(1 0 -0 1 0 595.25)" font-size="8" font-family="Times New Roman"><tspan y="-64.520008" x="71.53 75.53 79.53">21.</tspan></text>
<text xml:space="preserve" transform="matrix(1 0 -0 1 0 595.25)" font-size="8" font-family="Times New Roman"><tspan y="-64.520008" x="84.78199 90.10999 93.65399 97.65399 101.19799 105.19799 109.19799 112.74199">Bauckham</tspan></text>
<text xml:space="preserve" transform="matrix(1 0 -0 1 0 595.25)" font-size="8" font-family="Times New Roman"><tspan y="-64.520008" x="122.24491 125.78891 129.78891 136.00492 138.22092 140.43692">admits</tspan></text>
<text xml:space="preserve" transform="matrix(1 0 -0 1 0 595.25)" font-size="8" font-family="Times New Roman"><tspan y="-64.520008" x="146.82894 149.04494 153.04494 156.58895">that</tspan></text>
<text xml:space="preserve" transform="matrix(1 0 -0 1 0 595.25)" font-size="8" font-family="Times New Roman"><tspan y="-64.520008" x="162.07701 164.29302 168.29302">the</tspan></text>
<text xml:space="preserve" transform="matrix(1 0 -0 1 0 595.25)" font-size="8" font-family="Times New Roman"><tspan y="-64.520008" x="175.10243 177.31844 181.31844 183.53444 187.07845 189.74245 193.74245 196.40645 199.95046 202.16646 205.71047 207.92647 210.14247 214.14247">interpretation</tspan></text>
<text xml:space="preserve" transform="matrix(1 0 -0 1 0 595.25)" font-size="8" font-family="Times New Roman"><tspan y="-64.520008" x="221.44817 225.44817">of</tspan></text>
<text xml:space="preserve" transform="matrix(1 0 -0 1 0 595.25)" font-size="8" font-family="Times New Roman"><tspan y="-64.520008" x="231.36421 234.90822 239.35622 242.90023 245.11623 249.11623 252.66024 255.32424 258.43626">&#x201c;Fathers&#x201d;</tspan></text>
<text xml:space="preserve" transform="matrix(1 0 -0 1 0 595.25)" font-size="8" font-family="Times New Roman"><tspan y="-64.520008" x="265.26856 268.81257">as</tspan></text>
<text xml:space="preserve" transform="matrix(1 0 -0 1 0 595.25)" font-size="8" font-family="Times New Roman"><tspan y="-64.520008" x="275.1846 280.9606">OT</tspan></text>
<text xml:space="preserve" transform="matrix(1 0 -0 1 0 595.25)" font-size="8" font-family="Times New Roman"><tspan y="-64.520008" x="289.10066 291.76466 295.30867 297.52467 301.52467 305.06867 307.73268">fathers</tspan></text>
<text xml:space="preserve" transform="matrix(1 0 -0 1 0 595.25)" font-size="8" font-family="Times New Roman"><tspan y="-64.520008" x="314.11827 318.11827 321.66227">has</tspan></text>
<text xml:space="preserve" transform="matrix(1 0 -0 1 0 595.25)" font-size="8" font-family="Times New Roman"><tspan y="-64.520008" x="328.0343 331.5783 333.7943 337.7943">&#x201c;the</tspan></text>
<text xml:space="preserve" transform="matrix(1 0 -0 1 0 595.25)" font-size="8" font-family="Times New Roman"><tspan y="-64.520008" x="344.6105 350.3865 353.9305 356.1465 360.1465 364.1465">weight</tspan></text>
<text xml:space="preserve" transform="matrix(1 0 -0 1 0 595.25)" font-size="8" font-family="Times New Roman"><tspan y="-64.520008" x="369.63594 373.63594">of</tspan></text>
<text xml:space="preserve" transform="matrix(1 0 -0 1 0 595.25)" font-size="8" font-family="Times New Roman"><tspan y="-55.300008" x="57.53 61.53 64.642 68.186 72.186 75.729999 77.729999">usage,&#x201d;</tspan></text>
<text xml:space="preserve" transform="matrix(1 0 -0 1 0 595.25)" font-size="8" font-family="Times New Roman"><tspan y="-55.300008" x="83.29562 88.62363">R.</tspan></text>
<text xml:space="preserve" transform="matrix(1 0 -0 1 0 595.25)" font-size="8" font-family="Times New Roman"><tspan y="-55.300008" x="92.63156 97.959568 101.50356 105.50356 109.04756 113.04756 117.04756 120.59156 126.80756">Bauckham,</tspan></text>
<text xml:space="preserve" transform="matrix(1 0 -0 1 0 595.25)" font-size="8" font-family="Times New Roman" font-style="italic"><tspan y="-55.300008" x="130.8425 134.3865 138.3865 142.3865 145.93051">Jude,</tspan></text>
<text xml:space="preserve" transform="matrix(1 0 -0 1 0 595.25)" font-size="8" font-family="Times New Roman" font-style="italic"><tspan y="-55.300008" x="149.94406">2</tspan></text>
<text xml:space="preserve" transform="matrix(1 0 -0 1 0 595.25)" font-size="8" font-family="Times New Roman" font-style="italic"><tspan y="-55.300008" x="155.94406 160.82407 164.36808 166.58408 170.12808">Peter</tspan></text>
<text xml:space="preserve" transform="matrix(1 0 -0 1 0 595.25)" font-size="8" font-family="Times New Roman"><tspan y="-55.300008" x="173.26828">,</tspan></text>
<text xml:space="preserve" transform="matrix(1 0 -0 1 0 595.25)" font-size="8" font-family="Times New Roman"><tspan y="-55.300008" x="177.26828 181.26828 185.26828 189.26828">290.</tspan></text>
</g>
</svg>
