<svg class="pg-svg" xmlns="http://www.w3.org/2000/svg" xmlns:xlink="http://www.w3.org/1999/xlink" xmlns:inkscape="http://www.inkscape.org/namespaces/inkscape" version="1.1" width="419.5" height="595.25" viewBox="0 0 419.5 595.25">
<defs>
<clipPath id="clip_1">
<path transform="matrix(1,0,0,-1,0,595.25)" d="M.000006251 0H419.5V595.25H.000006251Z" clip-rule="evenodd"/>
</clipPath>
<clipPath id="clip_2">
<path transform="matrix(1,0,0,-1,0,595.25)" d="M.000006251 0H419.5V595.25H.000006251Z" clip-rule="evenodd"/>
</clipPath>
<clipPath id="clip_3">
<path transform="matrix(1,0,0,-1,0,595.25)" d="M365.48 546.47H376.48V559.22H365.48Z" clip-rule="evenodd"/>
</clipPath>
<clipPath id="clip_4">
<path transform="matrix(1,0,0,-1,0,595.25)" d="M365.48 546.47H376.48V559.22H365.48Z" clip-rule="evenodd"/>
</clipPath>
<clipPath id="clip_5">
<path transform="matrix(1,0,0,-1,0,595.25)" d="M365.48 546.47H376.48V559.22H365.48Z" clip-rule="evenodd"/>
</clipPath>
<clipPath id="clip_6">
<path transform="matrix(1,0,0,-1,0,595.25)" d="M.000006251 0H419.5V595.25H.000006251Z" clip-rule="evenodd"/>
</clipPath>
<clipPath id="clip_7">
<path transform="matrix(1,0,0,-1,0,595.25)" d="M.000006251 0H419.5V595.25H.000006251Z" clip-rule="evenodd"/>
</clipPath>
<clipPath id="clip_8">
<path transform="matrix(1,0,0,-1,0,595.25)" d="M.000006251 0H419.5V595.25H.000006251Z" clip-rule="evenodd"/>
</clipPath>
<clipPath id="clip_9">
<path transform="matrix(1,0,0,-1,0,595.25)" d="M.000006251 0H419.5V595.25H.000006251Z" clip-rule="evenodd"/>
</clipPath>
<clipPath id="clip_10">
<path transform="matrix(1,0,0,-1,0,595.25)" d="M.000006251 0H419.5V595.25H.000006251Z" clip-rule="evenodd"/>
</clipPath>
<clipPath id="clip_11">
<path transform="matrix(1,0,0,-1,0,595.25)" d="M.000006251 0H419.5V595.25H.000006251Z" clip-rule="evenodd"/>
</clipPath>
<clipPath id="clip_12">
<path transform="matrix(1,0,0,-1,0,595.25)" d="M.000006251 0H419.5V595.25H.000006251Z" clip-rule="evenodd"/>
</clipPath>
<clipPath id="clip_13">
<path transform="matrix(1,0,0,-1,0,595.25)" d="M.000006251 0H419.5V595.25H.000006251Z" clip-rule="evenodd"/>
</clipPath>
<clipPath id="clip_14">
<path transform="matrix(1,0,0,-1,0,595.25)" d="M.000006251 0H419.5V595.25H.000006251Z" clip-rule="evenodd"/>
</clipPath>
<clipPath id="clip_15">
<path transform="matrix(1,0,0,-1,0,595.25)" d="M.000006251 0H419.5V595.25H.000006251Z" clip-rule="evenodd"/>
</clipPath>
<clipPath id="clip_16">
<path transform="matrix(1,0,0,-1,0,595.25)" d="M.000006251 0H419.5V595.25H.000006251Z" clip-rule="evenodd"/>
</clipPath>
<clipPath id="clip_17">
<path transform="matrix(1,0,0,-1,0,595.25)" d="M.000006251 0H419.5V595.25H.000006251Z" clip-rule="evenodd"/>
</clipPath>
<clipPath id="clip_18">
<path transform="matrix(1,0,0,-1,0,595.25)" d="M.000006251 0H419.5V595.25H.000006251Z" clip-rule="evenodd"/>
</clipPath>
<clipPath id="clip_19">
<path transform="matrix(1,0,0,-1,0,595.25)" d="M.000006251 0H419.5V595.25H.000006251Z" clip-rule="evenodd"/>
</clipPath>
<clipPath id="clip_20">
<path transform="matrix(1,0,0,-1,0,595.25)" d="M.000006251 0H419.5V595.25H.000006251Z" clip-rule="evenodd"/>
</clipPath>
<clipPath id="clip_21">
<path transform="matrix(1,0,0,-1,0,595.25)" d="M.000006251 0H419.5V595.25H.000006251Z" clip-rule="evenodd"/>
</clipPath>
<clipPath id="clip_22">
<path transform="matrix(1,0,0,-1,0,595.25)" d="M.000006251 0H419.5V595.25H.000006251Z" clip-rule="evenodd"/>
</clipPath>
<clipPath id="clip_23">
<path transform="matrix(1,0,0,-1,0,595.25)" d="M.000006251 0H419.5V595.25H.000006251Z" clip-rule="evenodd"/>
</clipPath>
<clipPath id="clip_24">
<path transform="matrix(1,0,0,-1,0,595.25)" d="M.000006251 0H419.5V595.25H.000006251Z" clip-rule="evenodd"/>
</clipPath>
<clipPath id="clip_25">
<path transform="matrix(1,0,0,-1,0,595.25)" d="M.000006251 0H419.5V595.25H.000006251Z" clip-rule="evenodd"/>
</clipPath>
<clipPath id="clip_26">
<path transform="matrix(1,0,0,-1,0,595.25)" d="M.000006251 0H419.5V595.25H.000006251Z" clip-rule="evenodd"/>
</clipPath>
<clipPath id="clip_27">
<path transform="matrix(1,0,0,-1,0,595.25)" d="M.000006251 0H419.5V595.25H.000006251Z" clip-rule="evenodd"/>
</clipPath>
<clipPath id="clip_28">
<path transform="matrix(1,0,0,-1,0,595.25)" d="M.000006251 0H419.5V595.25H.000006251Z" clip-rule="evenodd"/>
</clipPath>
<clipPath id="clip_29">
<path transform="matrix(1,0,0,-1,0,595.25)" d="M.000006251 0H419.5V595.25H.000006251Z" clip-rule="evenodd"/>
</clipPath>
<clipPath id="clip_30">
<path transform="matrix(1,0,0,-1,0,595.25)" d="M.000006251 0H419.5V595.25H.000006251Z" clip-rule="evenodd"/>
</clipPath>
<clipPath id="clip_31">
<path transform="matrix(1,0,0,-1,0,595.25)" d="M.000006251 0H419.5V595.25H.000006251Z" clip-rule="evenodd"/>
</clipPath>
<clipPath id="clip_32">
<path transform="matrix(1,0,0,-1,0,595.25)" d="M.000006251 0H419.5V595.25H.000006251Z" clip-rule="evenodd"/>
</clipPath>
<clipPath id="clip_33">
<path transform="matrix(1,0,0,-1,0,595.25)" d="M.000006251 0H419.5V595.25H.000006251Z" clip-rule="evenodd"/>
</clipPath>
<clipPath id="clip_34">
<path transform="matrix(1,0,0,-1,0,595.25)" d="M.000006251 0H419.5V595.25H.000006251Z" clip-rule="evenodd"/>
</clipPath>
<clipPath id="clip_35">
<path transform="matrix(1,0,0,-1,0,595.25)" d="M.000006251 0H419.5V595.25H.000006251Z" clip-rule="evenodd"/>
</clipPath>
<clipPath id="clip_36">
<path transform="matrix(1,0,0,-1,0,595.25)" d="M.000006251 0H419.5V595.25H.000006251Z" clip-rule="evenodd"/>
</clipPath>
<clipPath id="clip_37">
<path transform="matrix(1,0,0,-1,0,595.25)" d="M.000006251 0H419.5V595.25H.000006251Z" clip-rule="evenodd"/>
</clipPath>
<clipPath id="clip_38">
<path transform="matrix(1,0,0,-1,0,595.25)" d="M.000006251 0H419.5V595.25H.000006251Z" clip-rule="evenodd"/>
</clipPath>
<clipPath id="clip_39">
<path transform="matrix(1,0,0,-1,0,595.25)" d="M.000006251 0H419.5V595.25H.000006251Z" clip-rule="evenodd"/>
</clipPath>
</defs>
<g>
<g clip-path="url(#clip_1)">
<text xml:space="preserve" transform="matrix(1 0 -0 1 0 595.25)" font-size="11" font-family="Times New Roman"><tspan y="-548.97" x="358.45"> </tspan></text>
</g>
<g clip-path="url(#clip_2)">
</g>
<g clip-path="url(#clip_3)">
<g clip-path="url(#clip_4)">

</g>
<g clip-path="url(#clip_5)">
<text xml:space="preserve" transform="matrix(1 0 -0 1 0 595.25)" font-size="11" font-family="Times New Roman"><tspan y="-548.97" x="376.48"> </tspan></text>
</g>
</g>
<g clip-path="url(#clip_6)">
<text fill="#467886" xml:space="preserve" transform="matrix(1 0 -0 1 0 595.25)" font-size="11" font-family="Times New Roman"><tspan y="-530.97" x="129.58 135.08 138.08301 141.08602 146.58602 150.86502 153.83502 156.83803 159.84104 167.82704 175.81305 183.79906 186.54906 189.55207 194.54607 200.04607 205.04007 210.54007 213.54308 218.53708 226.52309 231.51709 237.01709 242.51709 246.01509 251.0091 256.5091 262.0091 265.50709 270.50108 276.00108 279.74107 282.74409 287.02308 289.99308 292.74308 298.24308 301.98307 307.48307 310.48609 314.76509 319.72608 323.46607 331.9691 337.4691 342.9691 347.24809 350.21809 354.49708 359.45808 363.19807">https://www.lakeviewchurchofchrist.org/sermons/serm</tspan></text>
</g>
<path transform="matrix(1,0,0,-1,0,595.25)" d="M129.58 529.22H371.72999V529.72H129.58Z" fill="#467886" fill-rule="evenodd"/>
<g clip-path="url(#clip_7)">
</g>
<g clip-path="url(#clip_8)">
<text fill="#467886" xml:space="preserve" transform="matrix(1 0 -0 1 0 595.25)" font-size="11" font-family="Times New Roman"><tspan y="-518.22" x="129.58 135.08 140.58 144.85901 147.82901 153.32901 158.82901 164.32901 169.82901 172.83202 178.33202 183.83202 186.83502 192.33502 197.83502 200.83803 205.83203 211.33203">ons/2024/11/17/add</tspan></text>
</g>
<g clip-path="url(#clip_9)">
<text fill="#467886" xml:space="preserve" transform="matrix(1 0 -0 1 0 595.25)" font-size="11" font-family="Times New Roman"><tspan y="-518.22" x="216.88">-</tspan></text>
</g>
<g clip-path="url(#clip_10)">
<text fill="#467886" xml:space="preserve" transform="matrix(1 0 -0 1 0 595.25)" font-size="11" font-family="Times New Roman"><tspan y="-518.22" x="220.63 223.63">to</tspan></text>
</g>
<g clip-path="url(#clip_11)">
<text fill="#467886" xml:space="preserve" transform="matrix(1 0 -0 1 0 595.25)" font-size="11" font-family="Times New Roman"><tspan y="-518.22" x="229.13">-</tspan></text>
</g>
<g clip-path="url(#clip_12)">
<text fill="#467886" xml:space="preserve" transform="matrix(1 0 -0 1 0 595.25)" font-size="11" font-family="Times New Roman"><tspan y="-518.22" x="232.88 238.38 243.88 249.38">your</tspan></text>
</g>
<g clip-path="url(#clip_13)">
<text fill="#467886" xml:space="preserve" transform="matrix(1 0 -0 1 0 595.25)" font-size="11" font-family="Times New Roman"><tspan y="-518.22" x="253.15">-</tspan></text>
</g>
<g clip-path="url(#clip_14)">
<text fill="#467886" xml:space="preserve" transform="matrix(1 0 -0 1 0 595.25)" font-size="11" font-family="Times New Roman"><tspan y="-518.22" x="256.9 260.63999 265.63398 268.637 271.64">faith</tspan></text>
</g>
<g clip-path="url(#clip_15)">
<text fill="#467886" xml:space="preserve" transform="matrix(1 0 -0 1 0 595.25)" font-size="11" font-family="Times New Roman"><tspan y="-518.22" x="277.17">-</tspan></text>
</g>
<g clip-path="url(#clip_16)">
<text fill="#467886" xml:space="preserve" transform="matrix(1 0 -0 1 0 595.25)" font-size="11" font-family="Times New Roman"><tspan y="-518.22" x="280.92 286.42 291.92 297.16703 305.153 308.15605 313.15003 318.65003 324.15003">knowledge</tspan></text>
</g>
<g clip-path="url(#clip_17)">
<text xml:space="preserve" transform="matrix(1 0 -0 1 0 595.25)" font-size="11" font-family="Times New Roman"><tspan y="-518.22" x="329.2 331.95">. </tspan></text>
</g>
<g clip-path="url(#clip_18)">
<text xml:space="preserve" transform="matrix(1 0 -0 1 0 595.25)" font-size="11" font-family="Times New Roman"><tspan y="-518.22" x="334.45"> </tspan></text>
</g>
<path transform="matrix(1,0,0,-1,0,595.25)" d="M129.58 516.47H329.21003V516.97H129.58Z" fill="#467886" fill-rule="evenodd"/>
<g clip-path="url(#clip_19)">
</g>
<g clip-path="url(#clip_20)">
<text xml:space="preserve" transform="matrix(1 0 -0 1 0 595.25)" font-size="11" font-family="Times New Roman" font-weight="bold"><tspan y="-495.7" x="57.525 68.525 71.528 74.531 77.534 80.536998 86.036998 95.277 99.556 102.306 105.056 112.271999 115.021999 117.771999 125.020999 127.770999 130.521 133.271 139.013 145.008 151.00299 153.75299 161.739 164.489 167.239 175.742 178.492 181.48401 189.98702 195.48702 200.48102 205.47502 210.46903 213.47203">Williams, T. B., and D. G. Horrell</tspan></text>
</g>
<g clip-path="url(#clip_21)">
<text xml:space="preserve" transform="matrix(1 0 -0 1 0 595.25)" font-size="11" font-family="Times New Roman"><tspan y="-495.7" x="216.63"> </tspan></text>
</g>
<g clip-path="url(#clip_22)">
<text xml:space="preserve" transform="matrix(1 0 -0 1 0 595.25)" font-size="11" font-family="Times New Roman"><tspan y="-480.2" x="75.55 81.05 86.55 92.05">2023</tspan></text>
</g>
<g clip-path="url(#clip_23)">
<text xml:space="preserve" transform="matrix(1 0 -0 1 0 595.25)" font-size="11" font-family="Times New Roman"><tspan y="-480.2" x="97.55"> </tspan></text>
</g>
<g clip-path="url(#clip_24)">
<text xml:space="preserve" transform="matrix(1 0 -0 1 0 595.25)" font-size="11" font-family="Times New Roman" font-style="italic"><tspan y="-480.2" x="129.58 135.08 138.072 144.793 149.809 152.81201 157.80602 162.08502 165.79203 168.78403 175.28502 178.27703 185.52603 189.80504 192.77504 195.77805 198.78105 203.77506 209.27506 212.27806 215.27007 220.77007 226.27007 231.77007 234.76207 241.48307 246.49907 251.49308 256.99308 261.98707 264.99009 267.9931 272.9871 278.4871 281.4901 284.48213 291.7311 297.2311 305.2171 312.97209 317.96607 323.46607 326.4691 331.9691 336.24809">1 Peter: A Critical and Exegetical Commentary</tspan></text>
</g>
<g clip-path="url(#clip_25)">
<text xml:space="preserve" transform="matrix(1 0 -0 1 0 595.25)" font-size="11" font-family="Times New Roman"><tspan y="-480.2" x="341.45 344.2 347.19203 352.69203 355.68403 361.18403 366.68403 369.68705 373.96604 376.44105">. 2 vols. </tspan></text>
</g>
<g clip-path="url(#clip_26)">
</g>
<g clip-path="url(#clip_27)">
<text xml:space="preserve" transform="matrix(1 0 -0 1 0 595.25)" font-size="11" font-family="Times New Roman"><tspan y="-467.45" x="129.58 133.31999 138.81999 141.823 146.817 150.55699 156.05699 161.051 164.054 167.057 172.557 178.057 183.05101 186.05402 188.30902 195.55803 199.29802 202.30103 205.30403 208.30704 213.05904 218.05304 221.05605 223.31105 230.56006 236.06006 244.56307 253.06607 258.06007 263.56007 266.56309 271.55708 275.29707 280.79707 283.54707 285.80207 292.52308 298.02308 303.52308 309.02308 314.52308 320.02308 323.0811 325.05009 331.7711 340.3291 347.0501 349.3051 356.5541 359.55714 364.55113 368.2911 373.7911">International Critical Commentary. London: T&#x0026;T Clark.</tspan></text>
</g>
<g clip-path="url(#clip_28)">
<text xml:space="preserve" transform="matrix(1 0 -0 1 0 595.25)" font-size="11" font-family="Times New Roman"><tspan y="-467.45" x="376.48"> </tspan></text>
</g>
<g clip-path="url(#clip_29)">
</g>
<g clip-path="url(#clip_30)">
<text xml:space="preserve" transform="matrix(1 0 -0 1 0 595.25)" font-size="11" font-family="Times New Roman" font-weight="bold"><tspan y="-444.67" x="57.525 65.511 71.011 77.006 83.00099 88.50099 91.25099 94.00099 101.98699 104.73699 107.48699 110.23699 113.977 118.971 124.471 130.466 134.74501">Young, R., trans.</tspan></text>
</g>
<g clip-path="url(#clip_31)">
<text xml:space="preserve" transform="matrix(1 0 -0 1 0 595.25)" font-size="11" font-family="Times New Roman"><tspan y="-444.67" x="137.58"> </tspan></text>
</g>
<g clip-path="url(#clip_32)">
<text xml:space="preserve" transform="matrix(1 0 -0 1 0 595.25)" font-size="11" font-family="Times New Roman"><tspan y="-429.17" x="75.55 81.05 86.55 92.05">1997</tspan></text>
</g>
<g clip-path="url(#clip_33)">
<text xml:space="preserve" transform="matrix(1 0 -0 1 0 595.25)" font-size="11" font-family="Times New Roman"><tspan y="-429.17" x="97.55"> </tspan></text>
</g>
<g clip-path="url(#clip_34)">
<text xml:space="preserve" transform="matrix(1 0 -0 1 0 595.25)" font-size="11" font-family="Times New Roman" font-style="italic"><tspan y="-429.17" x="129.58 135.575 141.075 146.575 152.075 157.575 161.31499 165.594 169.80699 175.80199 178.805 181.808 186.802 191.08101 196.58101 199.55101 203.78601 209.781 214.06002 219.56002 225.06002 229.28403 232.28704 238.02904 241.03205 244.03505 249.53505">Young&#x2019;s Literal Translation</tspan></text>
</g>
<g clip-path="url(#clip_35)">
<text xml:space="preserve" transform="matrix(1 0 -0 1 0 595.25)" font-size="11" font-family="Times New Roman"><tspan y="-429.17" x="255.15 257.9 262.13499 269.38398 274.37797 277.38099 280.384 283.38703 288.88703 294.38703 299.88703 304.881 313.38404 316.38706 320.62205 327.34306 332.84306 338.34306 343.84306 348.12205 352.35704 359.60603 362.60905 368.10905 371.11207 376.34806">. Bellingham: Logos Bible </tspan></text>
</g>
<g clip-path="url(#clip_36)">
</g>
<g clip-path="url(#clip_37)">
<text xml:space="preserve" transform="matrix(1 0 -0 1 0 595.25)" font-size="11" font-family="Times New Roman"><tspan y="-416.42" x="129.58 135.575 141.075 144.81499 147.818 155.804 160.798 164.538 169.532">Software.</tspan></text>
</g>
<g clip-path="url(#clip_38)">
<text xml:space="preserve" transform="matrix(1 0 -0 1 0 595.25)" font-size="11" font-family="Times New Roman"><tspan y="-416.42" x="172.1"> </tspan></text>
</g>
<g clip-path="url(#clip_39)">
</g>
</g>
</svg>
